<svg width="76" height="76" viewBox="0 0 76 76" fill="none" xmlns="http://www.w3.org/2000/svg">
<rect width="76" height="76" fill="white"/>
<path d="M55.6429 37.4756C54.7071 35.9132 53.3908 34.6606 51.7452 33.7176C50.5154 33.0229 49.2402 32.5819 47.8032 32.3926V27.4281C49.2402 26.836 50.132 25.5254 50.132 23.9964C50.132 21.9125 48.4099 20.2237 46.2642 20.2237C44.1167 20.2237 42.3645 21.9125 42.3645 23.9964C42.3645 25.5254 43.2048 26.836 44.6418 27.4281V32.3948C43.4922 32.556 42.3001 32.9038 41.2114 33.4382C38.9878 31.7993 31.6965 26.4229 27.4312 23.2827C27.5323 22.9288 27.6102 22.564 27.6102 22.1791C27.6102 19.8709 25.6841 18 23.3047 18C20.9253 18 19 19.8709 19 22.1791C19 24.487 20.9273 26.3585 23.3067 26.3585C24.1183 26.3585 24.869 26.1281 25.5168 25.7493L26.4169 26.412L38.7855 35.0603C38.1316 35.6429 37.5226 36.3056 37.0355 37.0491C36.0483 38.565 35.445 40.2328 35.445 42.0521V42.4317C35.445 43.7088 35.6951 44.9145 36.121 46.0471C36.496 47.0361 37.0444 47.9353 37.7235 48.7483L33.6186 52.7417C33.2545 52.6114 32.8719 52.54 32.4727 52.54C31.5841 52.54 30.7506 52.8769 30.1221 53.4858C29.493 54.0963 29.1484 54.9071 29.1484 55.77C29.1487 56.6327 29.495 57.4434 30.1238 58.0534C30.7523 58.6636 31.5878 59 32.477 59C33.3663 59 34.202 58.6636 34.8311 58.0534C35.4588 57.4434 35.8054 56.6324 35.8054 55.77C35.8054 55.4362 35.7522 55.1104 35.6522 54.8008L39.8951 50.6828C40.4768 51.0727 41.1051 51.401 41.7805 51.6841C43.1126 52.243 44.5829 52.5835 46.192 52.5835H46.4869C48.2659 52.5835 49.944 52.178 51.5216 51.3486C53.1839 50.472 54.485 49.2732 55.4679 47.7429C56.456 46.2083 57 44.5129 57 42.6476V42.5544C57 40.7195 56.5623 39.0266 55.6429 37.4756ZM50.4588 46.1141C49.3072 47.356 47.9834 48.1211 46.4869 48.1211H46.2403C45.3856 48.1211 44.5496 47.8918 43.731 47.4749C42.8085 47.0158 42.1072 46.3609 41.5333 45.5317C40.9401 44.7179 40.6182 43.8293 40.6182 42.8872V42.601C40.6182 41.6748 40.8013 40.7965 41.2629 39.967C41.7563 39.0603 42.4228 38.3552 43.3091 37.7947C44.1794 37.238 45.1088 36.9649 46.144 36.9649H46.2403C47.179 36.9649 48.0676 37.1445 48.9063 37.5609C49.7607 38.0049 50.4588 38.6116 51 39.4095C51.5256 40.2077 51.8383 41.0687 51.9389 42.0067C51.9547 42.2016 51.9627 42.4013 51.9627 42.5921C51.9627 43.865 51.4615 45.0439 50.4588 46.1141Z" fill="#F8761F"/>
</svg>
