<svg width="76" height="76" viewBox="0 0 76 76" fill="none" xmlns="http://www.w3.org/2000/svg">
<rect width="76" height="76" fill="white"/>
<g clip-path="url(#clip0_104_691)">
<path d="M17.8882 16.0702L44.448 14.1084C47.7106 13.8286 48.5486 14.0172 50.6002 15.5086L59.0784 21.4812C60.4766 22.5084 60.9422 22.7883 60.9422 23.9067V56.6633C60.9422 58.7163 60.1968 59.9307 57.587 60.1159L26.7442 61.9841C24.7858 62.0767 23.8531 61.7969 22.8274 60.4899L16.584 52.3711C15.4642 50.8769 15 49.7585 15 48.451V19.3342C15 17.6556 15.7454 16.2559 17.8882 16.0702Z" fill="white"/>
<path fill-rule="evenodd" clip-rule="evenodd" d="M44.448 14.1089L17.8882 16.0707C15.7454 16.2559 15 17.6561 15 19.3342V48.451C15 49.758 15.4642 50.8764 16.584 52.3711L22.8274 60.4894C23.8531 61.7964 24.7858 62.0767 26.7442 61.9836L57.5875 60.1164C60.1954 59.9307 60.9427 58.7163 60.9427 56.6638V23.9071C60.9427 22.8463 60.5237 22.5406 59.2901 21.6353L50.6002 15.5086C48.5491 14.0172 47.7106 13.8286 44.448 14.1084V14.1089ZM27.4416 23.371C24.923 23.5404 24.3518 23.5788 22.9214 22.4158L19.285 19.5233C18.9154 19.1489 19.1011 18.6819 20.0323 18.5887L45.565 16.723C47.7091 16.5358 48.8256 17.2831 49.6642 17.9359L54.0432 21.1087C54.2304 21.2033 54.696 21.7615 54.1358 21.7615L27.768 23.3489L27.4416 23.371ZM24.5054 56.3839V28.5761C24.5054 27.3617 24.8784 26.8015 25.9949 26.7075L56.28 24.9343C57.3072 24.8417 57.7714 25.4945 57.7714 26.707V54.3295C57.7714 55.5439 57.5842 56.5711 55.9075 56.6638L26.9266 58.3438C25.2499 58.4364 24.5059 57.8782 24.5059 56.3839H24.5054ZM53.1134 30.067C53.2992 30.907 53.1134 31.747 52.2734 31.843L50.8766 32.1199V52.651C49.6637 53.3038 48.5472 53.6767 47.6141 53.6767C46.1227 53.6767 45.7502 53.2097 44.6333 51.811L35.4989 37.4398V51.3439L38.3885 51.9982C38.3885 51.9982 38.3885 53.6782 36.0571 53.6782L29.6299 54.0511C29.4427 53.6767 29.6299 52.7441 30.2813 52.5583L31.9598 52.0927V33.7087L29.6304 33.5201C29.4432 32.6801 29.9088 31.4671 31.2144 31.3731L38.1106 30.9089L47.6146 45.4659V32.5875L45.192 32.3091C45.0048 31.2804 45.7502 30.5331 46.6814 30.4419L53.1134 30.067Z" fill="black"/>
</g>
<defs>
<clipPath id="clip0_104_691">
<rect width="48" height="48" fill="white" transform="translate(15 14)"/>
</clipPath>
</defs>
</svg>
