<svg width="76" height="76" viewBox="0 0 76 76" fill="none" xmlns="http://www.w3.org/2000/svg">
<rect width="76" height="76" fill="white"/>
<g clip-path="url(#clip0_104_684)">
<path fill-rule="evenodd" clip-rule="evenodd" d="M33.4113 21.0837C32.9663 21.0842 32.5257 21.1722 32.1148 21.3429C31.7039 21.5136 31.3306 21.7636 31.0163 22.0785C30.7019 22.3935 30.4527 22.7673 30.2829 23.1786C30.113 23.5899 30.0259 24.0306 30.0264 24.4756C30.026 24.9205 30.1132 25.3611 30.2831 25.7723C30.4529 26.1836 30.7022 26.5573 31.0165 26.8722C31.3308 27.1871 31.7041 27.437 32.115 27.6076C32.5259 27.7783 32.9663 27.8663 33.4113 27.8667H36.7961V24.4756C36.7966 24.0306 36.7095 23.5899 36.5396 23.1786C36.3698 22.7673 36.1206 22.3935 35.8063 22.0785C35.4919 21.7636 35.1187 21.5136 34.7077 21.3429C34.2968 21.1722 33.8562 21.0842 33.4113 21.0837ZM33.4113 30.1284H24.3849C23.94 30.1288 23.4995 30.2168 23.0886 30.3875C22.6777 30.5581 22.3044 30.808 21.9901 31.1229C21.6758 31.4378 21.4266 31.8116 21.2567 32.2228C21.0868 32.634 20.9996 33.0746 21 33.5196C20.9995 33.9645 21.0867 34.4052 21.2565 34.8165C21.4264 35.2278 21.6756 35.6016 21.9899 35.9166C22.3042 36.2316 22.6775 36.4815 23.0884 36.6522C23.4994 36.8229 23.9399 36.911 24.3849 36.9114H33.4113C33.8562 36.911 34.2968 36.8229 34.7077 36.6522C35.1187 36.4815 35.4919 36.2316 35.8063 35.9166C36.1206 35.6016 36.3698 35.2278 36.5396 34.8165C36.7095 34.4052 36.7966 33.9645 36.7961 33.5196C36.7966 33.0746 36.7093 32.634 36.5395 32.2228C36.3696 31.8116 36.1204 31.4378 35.806 31.1229C35.4917 30.808 35.1185 30.5581 34.7076 30.3875C34.2967 30.2168 33.8562 30.1288 33.4113 30.1284Z" fill="#44BEDF"/>
<path fill-rule="evenodd" clip-rule="evenodd" d="M54.8489 33.5196C54.8493 33.0746 54.7621 32.634 54.5922 32.2228C54.4223 31.8116 54.1731 31.4378 53.8588 31.1229C53.5445 30.808 53.1712 30.5581 52.7603 30.3875C52.3494 30.2168 51.9089 30.1288 51.464 30.1284C51.0191 30.1288 50.5786 30.2168 50.1677 30.3875C49.7568 30.5581 49.3835 30.808 49.0692 31.1229C48.7549 31.4378 48.5057 31.8116 48.3358 32.2228C48.1659 32.634 48.0787 33.0746 48.0791 33.5196V36.9114H51.464C51.909 36.911 52.3495 36.8229 52.7604 36.6522C53.1714 36.4815 53.5447 36.2316 53.859 35.9166C54.1733 35.6016 54.4225 35.2278 54.5924 34.8165C54.7622 34.4052 54.8494 33.9645 54.8489 33.5196ZM45.8225 33.5196V24.4756C45.823 24.0306 45.7358 23.5899 45.566 23.1786C45.3962 22.7673 45.147 22.3935 44.8326 22.0785C44.5183 21.7636 44.145 21.5136 43.7341 21.3429C43.3231 21.1722 42.8826 21.0842 42.4376 21.0837C41.9926 21.0842 41.5521 21.1722 41.1412 21.3429C40.7302 21.5136 40.3569 21.7636 40.0426 22.0785C39.7283 22.3935 39.4791 22.7673 39.3092 23.1786C39.1394 23.5899 39.0522 24.0306 39.0527 24.4756V33.5196C39.0522 33.9645 39.1394 34.4052 39.3092 34.8165C39.4791 35.2278 39.7283 35.6016 40.0426 35.9166C40.3569 36.2316 40.7302 36.4815 41.1412 36.6522C41.5521 36.8229 41.9926 36.911 42.4376 36.9114C42.8826 36.911 43.3231 36.8229 43.7341 36.6522C44.145 36.4815 44.5183 36.2316 44.8326 35.9166C45.147 35.6016 45.3962 35.2278 45.566 34.8165C45.7358 34.4052 45.823 33.9645 45.8225 33.5196Z" fill="#2EB67D"/>
<path fill-rule="evenodd" clip-rule="evenodd" d="M42.4376 55C42.8826 54.9996 43.3231 54.9115 43.7341 54.7408C44.145 54.5701 44.5183 54.3202 44.8326 54.0052C45.147 53.6902 45.3962 53.3164 45.566 52.9052C45.7358 52.4939 45.823 52.0532 45.8225 51.6082C45.8229 51.1633 45.7357 50.7226 45.5658 50.3114C45.3959 49.9002 45.1467 49.5265 44.8324 49.2116C44.5181 48.8967 44.1448 48.6467 43.7339 48.4761C43.323 48.3054 42.8825 48.2174 42.4376 48.217H39.0527V51.6082C39.0522 52.0532 39.1394 52.4939 39.3092 52.9052C39.4791 53.3164 39.7283 53.6902 40.0426 54.0052C40.3569 54.3202 40.7302 54.5701 41.1412 54.7408C41.5521 54.9115 41.9926 54.9996 42.4376 55ZM42.4376 45.9554H51.464C51.9089 45.9549 52.3494 45.8669 52.7603 45.6963C53.1712 45.5256 53.5445 45.2757 53.8588 44.9608C54.1731 44.6459 54.4223 44.2722 54.5922 43.861C54.7621 43.4498 54.8493 43.0091 54.8489 42.5642C54.8494 42.1192 54.7622 41.6785 54.5924 41.2672C54.4225 40.8559 54.1733 40.4821 53.859 40.1671C53.5447 39.8522 53.1714 39.6022 52.7604 39.4315C52.3495 39.2608 51.909 39.1728 51.464 39.1724H42.4376C41.9926 39.1728 41.5521 39.2608 41.1412 39.4315C40.7302 39.6022 40.3569 39.8522 40.0426 40.1671C39.7283 40.4821 39.4791 40.8559 39.3092 41.2672C39.1394 41.6785 39.0522 42.1192 39.0527 42.5642C39.0523 43.0091 39.1395 43.4498 39.3094 43.861C39.4793 44.2722 39.7285 44.6459 40.0428 44.9608C40.3572 45.2757 40.7304 45.5256 41.1413 45.6963C41.5522 45.8669 41.9927 45.9549 42.4376 45.9554Z" fill="#ECB22E"/>
<path fill-rule="evenodd" clip-rule="evenodd" d="M21 42.5642C20.9996 43.0091 21.0868 43.4498 21.2567 43.861C21.4266 44.2722 21.6758 44.6459 21.9901 44.9608C22.3044 45.2757 22.6777 45.5256 23.0886 45.6963C23.4995 45.8669 23.94 45.9549 24.3849 45.9554C24.8298 45.9549 25.2703 45.8669 25.6812 45.6963C26.0921 45.5256 26.4654 45.2757 26.7797 44.9608C27.094 44.6459 27.3432 44.2722 27.5131 43.861C27.683 43.4498 27.7702 43.0091 27.7698 42.5642V39.1724H24.3849C23.9399 39.1728 23.4993 39.2609 23.0883 39.4316C22.6773 39.6023 22.304 39.8523 21.9897 40.1674C21.6753 40.4824 21.4261 40.8563 21.2563 41.2676C21.0865 41.679 20.9994 42.1191 21 42.5642ZM30.0264 42.5642V51.6082C30.0259 52.0532 30.113 52.4939 30.2829 52.9052C30.4527 53.3164 30.7019 53.6902 31.0163 54.0052C31.3306 54.3202 31.7039 54.5701 32.1148 54.7408C32.5257 54.9115 32.9663 54.9996 33.4113 55C33.8562 54.9996 34.2968 54.9115 34.7077 54.7408C35.1187 54.5701 35.4919 54.3202 35.8063 54.0052C36.1206 53.6902 36.3698 53.3164 36.5396 52.9052C36.7095 52.4939 36.7966 52.0532 36.7961 51.6082V42.5648C36.7966 42.1198 36.7095 41.6791 36.5396 41.2678C36.3698 40.8565 36.1206 40.4827 35.8063 40.1678C35.4919 39.8528 35.1187 39.6028 34.7077 39.4322C34.2968 39.2615 33.8562 39.1734 33.4113 39.173C32.9663 39.1734 32.5257 39.2615 32.1148 39.4322C31.7039 39.6028 31.3306 39.8528 31.0163 40.1678C30.7019 40.4827 30.4527 40.8565 30.2829 41.2678C30.113 41.6791 30.0259 42.1192 30.0264 42.5642Z" fill="#E01E5A"/>
</g>
<defs>
<clipPath id="clip0_104_684">
<rect width="34" height="34" fill="white" transform="translate(21 21)"/>
</clipPath>
</defs>
</svg>
