<svg width="558" height="240" viewBox="0 0 558 240" fill="none" xmlns="http://www.w3.org/2000/svg">
<g clip-path="url(#clip0_86_1583)">
<rect width="558" height="240" fill="black"/>
<line x1="80.5" y1="-63" x2="80.5" y2="337" stroke="#5E5E67" stroke-dasharray="4 4"/>
<line x1="477.5" y1="-63" x2="477.5" y2="337" stroke="#5E5E67" stroke-dasharray="4 4"/>
<rect x="81" y="24" width="396" height="48" rx="4" fill="#1B1B1D"/>
<path d="M97.75 54.216C94.096 54.216 91.666 51.57 91.666 47.52C91.666 43.488 94.15 40.842 97.75 40.842C100.54 40.842 102.556 42.408 103.168 45.162H101.422C100.936 43.434 99.694 42.282 97.75 42.282C95.158 42.282 93.394 44.334 93.394 47.52C93.394 50.706 95.14 52.776 97.75 52.776C99.748 52.776 101.008 51.588 101.476 49.806H103.222C102.61 52.614 100.576 54.216 97.75 54.216ZM105.057 54V41.058H106.677V54H105.057ZM110.015 43.002C109.421 43.002 108.971 42.552 108.971 41.958C108.971 41.364 109.421 40.914 110.015 40.914C110.609 40.914 111.059 41.364 111.059 41.958C111.059 42.552 110.609 43.002 110.015 43.002ZM109.205 54V44.802H110.825V54H109.205ZM117.26 54.216C114.56 54.216 112.778 52.452 112.778 49.41C112.778 46.764 114.434 44.586 117.17 44.586C119.978 44.586 121.472 46.512 121.472 49.23C121.472 49.374 121.472 49.554 121.454 49.734H114.398C114.452 51.948 115.838 52.884 117.278 52.884C118.574 52.884 119.456 52.38 119.816 51.21H121.364C120.878 53.19 119.276 54.216 117.26 54.216ZM117.206 45.918C115.82 45.918 114.74 46.782 114.47 48.456H119.78C119.636 46.764 118.61 45.918 117.206 45.918ZM123.408 54V44.802H124.938V46.314C125.352 45.504 126.342 44.586 127.944 44.586C130.266 44.586 131.418 45.972 131.418 48.348V54H129.798V48.528C129.798 46.89 129.078 45.954 127.602 45.954C126.144 45.954 125.028 47.052 125.028 48.654V54H123.408ZM138.441 54H137.073C135.183 54 134.553 53.118 134.553 51.552V46.152H132.915V44.802H133.455C134.445 44.802 134.679 44.604 134.679 43.596V42.138H136.173V44.802H138.441V46.152H136.173V51.444C136.173 52.308 136.479 52.65 137.361 52.65H138.441V54ZM146.726 54L143.198 41.058H144.944L147.752 51.984L150.686 41.058H152.702L155.654 51.984L158.426 41.058H160.136L156.662 54H154.664L151.694 43.164L148.67 54H146.726ZM164.986 54.216C162.178 54.216 160.414 52.308 160.414 49.41C160.414 46.566 162.304 44.586 164.986 44.586C167.794 44.586 169.558 46.494 169.558 49.392C169.558 52.236 167.668 54.216 164.986 54.216ZM164.986 52.866C166.588 52.866 167.902 51.696 167.902 49.392C167.902 47.106 166.588 45.936 164.986 45.936C163.384 45.936 162.07 47.106 162.07 49.392C162.07 51.696 163.384 52.866 164.986 52.866ZM171.502 54V44.802H173.032V46.872C173.41 45.576 174.4 44.802 176.038 44.802H176.308V46.404H175.768C173.95 46.404 173.122 47.358 173.122 49.194V54H171.502ZM177.83 54V41.058H179.45V48.906L183.932 44.802H186.056L181.862 48.654L186.164 54H184.148L180.674 49.662L179.45 50.76V54H177.83ZM190.74 54.216C188.418 54.216 186.942 53.154 186.78 51.21H188.346C188.454 52.326 189.39 52.884 190.74 52.884C192.234 52.884 192.954 52.362 192.954 51.462C192.954 50.652 192.378 50.382 191.208 50.202L190.11 50.04C188.022 49.734 187.05 48.942 187.05 47.412C187.05 45.756 188.508 44.586 190.722 44.586C192.882 44.586 194.304 45.72 194.394 47.466H192.828C192.702 46.476 191.856 45.918 190.668 45.918C189.354 45.918 188.634 46.476 188.634 47.25C188.634 48.042 189.192 48.384 190.452 48.582L191.568 48.762C193.584 49.068 194.556 49.77 194.556 51.336C194.556 53.1 193.08 54.216 190.74 54.216ZM196.428 57.51V44.802H197.958V46.728C198.444 45.486 199.686 44.586 201.216 44.586C203.7 44.586 205.41 46.476 205.41 49.392C205.41 52.254 203.574 54.216 201.18 54.216C199.704 54.216 198.624 53.622 198.048 52.596V57.51H196.428ZM201.018 52.866C202.512 52.866 203.754 51.696 203.754 49.392C203.754 47.106 202.512 45.936 201.018 45.936C199.326 45.936 198.048 47.16 198.048 49.464C198.048 51.786 199.272 52.866 201.018 52.866ZM210.062 54.216C207.992 54.216 206.804 53.226 206.804 51.624C206.804 49.68 208.352 49.068 210.35 48.726L211.394 48.546C212.276 48.402 212.888 48.204 212.888 47.43C212.888 46.53 212.132 45.918 210.818 45.918C209.414 45.918 208.784 46.584 208.64 47.484H207.074C207.164 45.936 208.514 44.586 210.872 44.586C213.302 44.586 214.508 45.81 214.508 47.952V52.02C214.508 52.506 214.634 52.722 215.192 52.722H215.624V54.018C215.426 54.036 215.066 54.036 214.706 54.036C213.59 54.036 213.05 53.514 213.05 52.704C212.42 53.73 211.304 54.216 210.062 54.216ZM210.26 52.902C211.754 52.902 212.924 52.128 212.924 50.562V49.32C212.726 49.5 212.348 49.626 211.88 49.716L210.746 49.932C209.288 50.238 208.424 50.49 208.424 51.516C208.424 52.434 209.144 52.902 210.26 52.902ZM220.934 54.216C218.198 54.216 216.506 52.362 216.506 49.392C216.506 46.548 218.36 44.586 220.934 44.586C223.256 44.586 224.75 45.864 225.074 47.88H223.508C223.13 46.62 222.212 45.936 220.934 45.936C219.404 45.936 218.162 47.106 218.162 49.392C218.162 51.696 219.404 52.866 220.934 52.866C222.248 52.866 223.166 52.164 223.526 50.85H225.074C224.75 52.884 223.184 54.216 220.934 54.216ZM230.797 54.216C228.097 54.216 226.315 52.452 226.315 49.41C226.315 46.764 227.971 44.586 230.707 44.586C233.515 44.586 235.009 46.512 235.009 49.23C235.009 49.374 235.009 49.554 234.991 49.734H227.935C227.989 51.948 229.375 52.884 230.815 52.884C232.111 52.884 232.993 52.38 233.353 51.21H234.901C234.415 53.19 232.813 54.216 230.797 54.216ZM230.743 45.918C229.357 45.918 228.277 46.782 228.007 48.456H233.317C233.173 46.764 232.147 45.918 230.743 45.918Z" fill="white"/>
<path d="M464 48C464 48.1989 463.921 48.3897 463.78 48.5303C463.64 48.671 463.449 48.75 463.25 48.75H455.75V56.25C455.75 56.4489 455.671 56.6397 455.53 56.7803C455.39 56.921 455.199 57 455 57C454.801 57 454.61 56.921 454.47 56.7803C454.329 56.6397 454.25 56.4489 454.25 56.25V48.75H446.75C446.551 48.75 446.36 48.671 446.22 48.5303C446.079 48.3897 446 48.1989 446 48C446 47.8011 446.079 47.6103 446.22 47.4697C446.36 47.329 446.551 47.25 446.75 47.25H454.25V39.75C454.25 39.5511 454.329 39.3603 454.47 39.2197C454.61 39.079 454.801 39 455 39C455.199 39 455.39 39.079 455.53 39.2197C455.671 39.3603 455.75 39.5511 455.75 39.75V47.25H463.25C463.449 47.25 463.64 47.329 463.78 47.4697C463.921 47.6103 464 47.8011 464 48Z" fill="white"/>
<path d="M112 93H108.25V89.25C108.25 89.0511 108.171 88.8603 108.03 88.7197C107.89 88.579 107.699 88.5 107.5 88.5H96.25V87.75C96.25 87.5511 96.171 87.3603 96.0303 87.2197C95.8897 87.079 95.6989 87 95.5 87C95.3011 87 95.1103 87.079 94.9697 87.2197C94.829 87.3603 94.75 87.5511 94.75 87.75V104.25C94.75 104.449 94.829 104.64 94.9697 104.78C95.1103 104.921 95.3011 105 95.5 105C95.6989 105 95.8897 104.921 96.0303 104.78C96.171 104.64 96.25 104.449 96.25 104.25V103.5H104.5C104.699 103.5 104.89 103.421 105.03 103.28C105.171 103.14 105.25 102.949 105.25 102.75V99H112C112.199 99 112.39 98.921 112.53 98.7803C112.671 98.6397 112.75 98.4489 112.75 98.25V93.75C112.75 93.5511 112.671 93.3603 112.53 93.2197C112.39 93.079 112.199 93 112 93ZM106.75 90V93H96.25V90H106.75ZM103.75 102H96.25V99H103.75V102ZM111.25 97.5H96.25V94.5H111.25V97.5Z" fill="white"/>
<path d="M126.422 102V89.058H130.742C133.766 89.058 135.422 90.732 135.422 93.27C135.422 95.952 133.55 97.446 130.436 97.446H128.096V102H126.422ZM128.096 96.006H130.418C132.632 96.006 133.694 95.016 133.694 93.288C133.694 91.488 132.686 90.498 130.472 90.498H128.096V96.006ZM137.229 102V92.802H138.759V94.872C139.137 93.576 140.127 92.802 141.765 92.802H142.035V94.404H141.495C139.677 94.404 138.849 95.358 138.849 97.194V102H137.229ZM147.43 102.216C144.622 102.216 142.858 100.308 142.858 97.41C142.858 94.566 144.748 92.586 147.43 92.586C150.238 92.586 152.002 94.494 152.002 97.392C152.002 100.236 150.112 102.216 147.43 102.216ZM147.43 100.866C149.032 100.866 150.346 99.696 150.346 97.392C150.346 95.106 149.032 93.936 147.43 93.936C145.828 93.936 144.514 95.106 144.514 97.392C144.514 99.696 145.828 100.866 147.43 100.866ZM154.756 91.002C154.162 91.002 153.712 90.552 153.712 89.958C153.712 89.364 154.162 88.914 154.756 88.914C155.35 88.914 155.8 89.364 155.8 89.958C155.8 90.552 155.35 91.002 154.756 91.002ZM153.046 105.546C152.812 105.546 152.686 105.546 152.38 105.528V104.196H152.902C153.514 104.196 153.946 103.836 153.946 103.116V92.802H155.566V102.972C155.566 104.646 154.684 105.546 153.046 105.546ZM162 102.216C159.3 102.216 157.518 100.452 157.518 97.41C157.518 94.764 159.174 92.586 161.91 92.586C164.718 92.586 166.212 94.512 166.212 97.23C166.212 97.374 166.212 97.554 166.194 97.734H159.138C159.192 99.948 160.578 100.884 162.018 100.884C163.314 100.884 164.196 100.38 164.556 99.21H166.104C165.618 101.19 164.016 102.216 162 102.216ZM161.946 93.918C160.56 93.918 159.48 94.782 159.21 96.456H164.52C164.376 94.764 163.35 93.918 161.946 93.918ZM172.001 102.216C169.265 102.216 167.573 100.362 167.573 97.392C167.573 94.548 169.427 92.586 172.001 92.586C174.323 92.586 175.817 93.864 176.141 95.88H174.575C174.197 94.62 173.279 93.936 172.001 93.936C170.471 93.936 169.229 95.106 169.229 97.392C169.229 99.696 170.471 100.866 172.001 100.866C173.315 100.866 174.233 100.164 174.593 98.85H176.141C175.817 100.884 174.251 102.216 172.001 102.216ZM182.601 102H181.233C179.343 102 178.713 101.118 178.713 99.552V94.152H177.075V92.802H177.615C178.605 92.802 178.839 92.604 178.839 91.596V90.138H180.333V92.802H182.601V94.152H180.333V99.444C180.333 100.308 180.639 100.65 181.521 100.65H182.601V102ZM191.39 102V90.498H187.268V89.058H197.186V90.498H193.064V102H191.39ZM199.369 91.002C198.775 91.002 198.325 90.552 198.325 89.958C198.325 89.364 198.775 88.914 199.369 88.914C199.963 88.914 200.413 89.364 200.413 89.958C200.413 90.552 199.963 91.002 199.369 91.002ZM198.559 102V92.802H200.179V102H198.559ZM202.707 102V92.802H204.237V94.314C204.651 93.468 205.641 92.586 207.189 92.586C208.575 92.586 209.583 93.234 210.087 94.368C210.555 93.486 211.599 92.586 213.237 92.586C215.469 92.586 216.765 93.972 216.765 96.348V102H215.145V96.528C215.145 94.89 214.443 93.954 213.021 93.954C211.617 93.954 210.537 95.052 210.537 96.636V102H208.917V96.528C208.917 94.89 208.233 93.954 206.811 93.954C205.407 93.954 204.327 95.052 204.327 96.636V102H202.707ZM223.102 102.216C220.402 102.216 218.62 100.452 218.62 97.41C218.62 94.764 220.276 92.586 223.012 92.586C225.82 92.586 227.314 94.512 227.314 97.23C227.314 97.374 227.314 97.554 227.296 97.734H220.24C220.294 99.948 221.68 100.884 223.12 100.884C224.416 100.884 225.298 100.38 225.658 99.21H227.206C226.72 101.19 225.118 102.216 223.102 102.216ZM223.048 93.918C221.662 93.918 220.582 94.782 220.312 96.456H225.622C225.478 94.764 224.452 93.918 223.048 93.918ZM229.25 102V89.058H230.87V102H229.25ZM234.209 91.002C233.615 91.002 233.165 90.552 233.165 89.958C233.165 89.364 233.615 88.914 234.209 88.914C234.803 88.914 235.253 89.364 235.253 89.958C235.253 90.552 234.803 91.002 234.209 91.002ZM233.399 102V92.802H235.019V102H233.399ZM237.547 102V92.802H239.077V94.314C239.491 93.504 240.481 92.586 242.083 92.586C244.405 92.586 245.557 93.972 245.557 96.348V102H243.937V96.528C243.937 94.89 243.217 93.954 241.741 93.954C240.283 93.954 239.167 95.052 239.167 96.654V102H237.547ZM251.895 102.216C249.195 102.216 247.413 100.452 247.413 97.41C247.413 94.764 249.069 92.586 251.805 92.586C254.613 92.586 256.107 94.512 256.107 97.23C256.107 97.374 256.107 97.554 256.089 97.734H249.033C249.087 99.948 250.473 100.884 251.913 100.884C253.209 100.884 254.091 100.38 254.451 99.21H255.999C255.513 101.19 253.911 102.216 251.895 102.216ZM251.841 93.918C250.455 93.918 249.375 94.782 249.105 96.456H254.415C254.271 94.764 253.245 93.918 251.841 93.918Z" fill="white"/>
<path d="M456.125 96C456.125 96.2225 456.059 96.44 455.935 96.625C455.812 96.81 455.636 96.9542 455.431 97.0394C455.225 97.1245 454.999 97.1468 454.781 97.1034C454.562 97.06 454.362 96.9528 454.205 96.7955C454.047 96.6382 453.94 96.4377 453.897 96.2195C453.853 96.0012 453.875 95.775 453.961 95.5695C454.046 95.3639 454.19 95.1882 454.375 95.0646C454.56 94.941 454.777 94.875 455 94.875C455.298 94.875 455.585 94.9935 455.795 95.2045C456.006 95.4155 456.125 95.7016 456.125 96ZM461.375 94.875C461.152 94.875 460.935 94.941 460.75 95.0646C460.565 95.1882 460.421 95.3639 460.336 95.5695C460.25 95.775 460.228 96.0012 460.272 96.2195C460.315 96.4377 460.422 96.6382 460.58 96.7955C460.737 96.9528 460.937 97.06 461.156 97.1034C461.374 97.1468 461.6 97.1245 461.806 97.0394C462.011 96.9542 462.187 96.81 462.31 96.625C462.434 96.44 462.5 96.2225 462.5 96C462.5 95.7016 462.381 95.4155 462.17 95.2045C461.96 94.9935 461.673 94.875 461.375 94.875ZM448.625 94.875C448.402 94.875 448.185 94.941 448 95.0646C447.815 95.1882 447.671 95.3639 447.586 95.5695C447.5 95.775 447.478 96.0012 447.522 96.2195C447.565 96.4377 447.672 96.6382 447.83 96.7955C447.987 96.9528 448.187 97.06 448.406 97.1034C448.624 97.1468 448.85 97.1245 449.056 97.0394C449.261 96.9542 449.437 96.81 449.56 96.625C449.684 96.44 449.75 96.2225 449.75 96C449.75 95.7016 449.631 95.4155 449.42 95.2045C449.21 94.9935 448.923 94.875 448.625 94.875Z" fill="white"/>
<path d="M105.25 140.25C105.843 140.25 106.423 140.074 106.917 139.744C107.41 139.415 107.794 138.946 108.021 138.398C108.249 137.85 108.308 137.247 108.192 136.665C108.076 136.083 107.791 135.548 107.371 135.129C106.952 134.709 106.417 134.423 105.835 134.308C105.253 134.192 104.65 134.251 104.102 134.478C103.554 134.705 103.085 135.09 102.755 135.583C102.426 136.077 102.25 136.657 102.25 137.25C102.25 138.046 102.566 138.809 103.129 139.371C103.691 139.934 104.454 140.25 105.25 140.25ZM105.25 135.75C105.547 135.75 105.837 135.838 106.083 136.003C106.33 136.168 106.522 136.402 106.636 136.676C106.749 136.95 106.779 137.252 106.721 137.543C106.663 137.834 106.52 138.101 106.31 138.311C106.101 138.52 105.833 138.663 105.542 138.721C105.252 138.779 104.95 138.749 104.676 138.636C104.402 138.522 104.167 138.33 104.003 138.083C103.838 137.837 103.75 137.547 103.75 137.25C103.75 136.852 103.908 136.471 104.189 136.189C104.47 135.908 104.852 135.75 105.25 135.75ZM111.56 145.189C111.503 145.215 110.858 145.496 109.716 145.496C108.418 145.496 106.477 145.133 104.026 143.621C103.653 144.68 103.169 145.696 102.582 146.653C103.637 146.978 104.629 147.479 105.517 148.135C107.305 149.498 108.25 151.439 108.25 153.75C108.25 153.949 108.171 154.14 108.03 154.28C107.89 154.421 107.699 154.5 107.5 154.5C107.301 154.5 107.11 154.421 106.97 154.28C106.829 154.14 106.75 153.949 106.75 153.75C106.75 149.841 103.498 148.433 101.674 147.952C101.623 148.017 101.569 148.084 101.516 148.148C99.6745 150.38 97.3673 151.54 94.8005 151.54C94.5081 151.542 94.2158 151.528 93.9248 151.5C93.7259 151.48 93.5431 151.382 93.4165 151.227C93.2899 151.073 93.2299 150.874 93.2498 150.675C93.2697 150.476 93.3678 150.293 93.5225 150.167C93.6773 150.04 93.8759 149.98 94.0748 150C96.5048 150.242 98.6189 149.298 100.356 147.188C101.527 145.768 102.325 144.037 102.723 142.781C99.0745 140.658 96.7439 142.465 96.7186 142.485C96.6422 142.55 96.5535 142.599 96.4577 142.63C96.3619 142.66 96.261 142.671 96.161 142.661C96.061 142.652 95.9639 142.622 95.8754 142.575C95.787 142.527 95.7091 142.462 95.6463 142.384C95.5835 142.305 95.537 142.215 95.5097 142.118C95.4825 142.022 95.4749 141.92 95.4875 141.821C95.5 141.721 95.5325 141.625 95.5829 141.538C95.6334 141.451 95.7008 141.375 95.7811 141.315C95.9217 141.203 99.2705 138.596 104.173 141.931C108.435 144.829 110.916 143.835 110.94 143.824C111.029 143.781 111.127 143.757 111.226 143.753C111.325 143.748 111.424 143.764 111.518 143.798C111.611 143.832 111.697 143.884 111.77 143.952C111.842 144.019 111.901 144.101 111.942 144.191C111.984 144.282 112.006 144.379 112.009 144.479C112.013 144.578 111.996 144.677 111.96 144.77C111.925 144.862 111.871 144.947 111.803 145.019C111.734 145.091 111.652 145.149 111.561 145.189H111.56Z" fill="white"/>
<path d="M130.526 150.216C127.358 150.216 125.72 148.65 125.522 146.184H127.25C127.394 147.822 128.438 148.776 130.508 148.776C132.434 148.776 133.64 147.858 133.64 146.454C133.64 145.122 132.686 144.636 131.372 144.384L129.626 144.06C127.16 143.61 125.9 142.458 125.9 140.568C125.9 138.372 127.556 136.842 130.454 136.842C133.244 136.842 134.936 138.372 135.134 140.568H133.424C133.172 139.128 132.128 138.282 130.436 138.282C128.6 138.282 127.592 139.128 127.592 140.442C127.592 141.684 128.438 142.224 129.878 142.494L131.624 142.818C134.054 143.268 135.332 144.384 135.332 146.31C135.332 148.722 133.514 150.216 130.526 150.216ZM137.176 153.51V140.802H138.706V142.728C139.192 141.486 140.434 140.586 141.964 140.586C144.448 140.586 146.158 142.476 146.158 145.392C146.158 148.254 144.322 150.216 141.928 150.216C140.452 150.216 139.372 149.622 138.796 148.596V153.51H137.176ZM141.766 148.866C143.26 148.866 144.502 147.696 144.502 145.392C144.502 143.106 143.26 141.936 141.766 141.936C140.074 141.936 138.796 143.16 138.796 145.464C138.796 147.786 140.02 148.866 141.766 148.866ZM148.11 150V140.802H149.64V142.872C150.018 141.576 151.008 140.802 152.646 140.802H152.916V142.404H152.376C150.558 142.404 149.73 143.358 149.73 145.194V150H148.11ZM155.248 139.002C154.654 139.002 154.204 138.552 154.204 137.958C154.204 137.364 154.654 136.914 155.248 136.914C155.842 136.914 156.292 137.364 156.292 137.958C156.292 138.552 155.842 139.002 155.248 139.002ZM154.438 150V140.802H156.058V150H154.438ZM158.586 150V140.802H160.116V142.314C160.53 141.504 161.52 140.586 163.122 140.586C165.444 140.586 166.596 141.972 166.596 144.348V150H164.976V144.528C164.976 142.89 164.256 141.954 162.78 141.954C161.322 141.954 160.206 143.052 160.206 144.654V150H158.586ZM173.619 150H172.251C170.361 150 169.731 149.118 169.731 147.552V142.152H168.093V140.802H168.633C169.623 140.802 169.857 140.604 169.857 139.596V138.138H171.351V140.802H173.619V142.152H171.351V147.444C171.351 148.308 171.657 148.65 172.539 148.65H173.619V150ZM182.408 150V138.498H178.286V137.058H188.204V138.498H184.082V150H182.408ZM188.487 150V140.802H190.017V142.872C190.395 141.576 191.385 140.802 193.023 140.802H193.293V142.404H192.753C190.935 142.404 190.107 143.358 190.107 145.194V150H188.487ZM197.427 150.216C195.357 150.216 194.169 149.226 194.169 147.624C194.169 145.68 195.717 145.068 197.715 144.726L198.759 144.546C199.641 144.402 200.253 144.204 200.253 143.43C200.253 142.53 199.497 141.918 198.183 141.918C196.779 141.918 196.149 142.584 196.005 143.484H194.439C194.529 141.936 195.879 140.586 198.237 140.586C200.667 140.586 201.873 141.81 201.873 143.952V148.02C201.873 148.506 201.999 148.722 202.557 148.722H202.989V150.018C202.791 150.036 202.431 150.036 202.071 150.036C200.955 150.036 200.415 149.514 200.415 148.704C199.785 149.73 198.669 150.216 197.427 150.216ZM197.625 148.902C199.119 148.902 200.289 148.128 200.289 146.562V145.32C200.091 145.5 199.713 145.626 199.245 145.716L198.111 145.932C196.653 146.238 195.789 146.49 195.789 147.516C195.789 148.434 196.509 148.902 197.625 148.902ZM208.3 150.216C205.563 150.216 203.872 148.362 203.872 145.392C203.872 142.548 205.726 140.586 208.3 140.586C210.622 140.586 212.116 141.864 212.439 143.88H210.874C210.496 142.62 209.578 141.936 208.3 141.936C206.77 141.936 205.528 143.106 205.528 145.392C205.528 147.696 206.77 148.866 208.3 148.866C209.614 148.866 210.532 148.164 210.892 146.85H212.439C212.116 148.884 210.55 150.216 208.3 150.216ZM214.256 150V137.058H215.876V144.906L220.358 140.802H222.482L218.288 144.654L222.59 150H220.574L217.1 145.662L215.876 146.76V150H214.256ZM227.584 150.216C224.884 150.216 223.102 148.452 223.102 145.41C223.102 142.764 224.758 140.586 227.494 140.586C230.302 140.586 231.796 142.512 231.796 145.23C231.796 145.374 231.796 145.554 231.778 145.734H224.722C224.776 147.948 226.162 148.884 227.602 148.884C228.898 148.884 229.78 148.38 230.14 147.21H231.688C231.202 149.19 229.6 150.216 227.584 150.216ZM227.53 141.918C226.144 141.918 225.064 142.782 224.794 144.456H230.104C229.96 142.764 228.934 141.918 227.53 141.918ZM233.733 150V140.802H235.263V142.872C235.641 141.576 236.631 140.802 238.269 140.802H238.539V142.404H237.999C236.181 142.404 235.353 143.358 235.353 145.194V150H233.733Z" fill="white"/>
<path d="M456.125 144C456.125 144.223 456.059 144.44 455.935 144.625C455.812 144.81 455.636 144.954 455.431 145.039C455.225 145.125 454.999 145.147 454.781 145.103C454.562 145.06 454.362 144.953 454.205 144.795C454.047 144.638 453.94 144.438 453.897 144.219C453.853 144.001 453.875 143.775 453.961 143.569C454.046 143.364 454.19 143.188 454.375 143.065C454.56 142.941 454.777 142.875 455 142.875C455.298 142.875 455.585 142.994 455.795 143.205C456.006 143.415 456.125 143.702 456.125 144ZM461.375 142.875C461.152 142.875 460.935 142.941 460.75 143.065C460.565 143.188 460.421 143.364 460.336 143.569C460.25 143.775 460.228 144.001 460.272 144.219C460.315 144.438 460.422 144.638 460.58 144.795C460.737 144.953 460.937 145.06 461.156 145.103C461.374 145.147 461.6 145.125 461.806 145.039C462.011 144.954 462.187 144.81 462.31 144.625C462.434 144.44 462.5 144.223 462.5 144C462.5 143.702 462.381 143.415 462.17 143.205C461.96 142.994 461.673 142.875 461.375 142.875ZM448.625 142.875C448.402 142.875 448.185 142.941 448 143.065C447.815 143.188 447.671 143.364 447.586 143.569C447.5 143.775 447.478 144.001 447.522 144.219C447.565 144.438 447.672 144.638 447.83 144.795C447.987 144.953 448.187 145.06 448.406 145.103C448.624 145.147 448.85 145.125 449.056 145.039C449.261 144.954 449.437 144.81 449.56 144.625C449.684 144.44 449.75 144.223 449.75 144C449.75 143.702 449.631 143.415 449.42 143.205C449.21 142.994 448.923 142.875 448.625 142.875Z" fill="white"/>
<path d="M111.031 187.719L105.781 182.469C105.711 182.4 105.628 182.345 105.537 182.307C105.446 182.269 105.349 182.25 105.25 182.25H96.25C95.8522 182.25 95.4706 182.408 95.1893 182.689C94.908 182.971 94.75 183.352 94.75 183.75V200.25C94.75 200.648 94.908 201.029 95.1893 201.311C95.4706 201.592 95.8522 201.75 96.25 201.75H109.75C110.148 201.75 110.529 201.592 110.811 201.311C111.092 201.029 111.25 200.648 111.25 200.25V188.25C111.25 188.151 111.231 188.054 111.193 187.963C111.155 187.872 111.1 187.789 111.031 187.719ZM106 184.81L108.69 187.5H106V184.81ZM109.75 200.25H96.25V183.75H104.5V188.25C104.5 188.449 104.579 188.64 104.72 188.78C104.86 188.921 105.051 189 105.25 189H109.75V200.25ZM106.75 192.75C106.75 192.949 106.671 193.14 106.53 193.28C106.39 193.421 106.199 193.5 106 193.5H100C99.8011 193.5 99.6103 193.421 99.4697 193.28C99.329 193.14 99.25 192.949 99.25 192.75C99.25 192.551 99.329 192.36 99.4697 192.22C99.6103 192.079 99.8011 192 100 192H106C106.199 192 106.39 192.079 106.53 192.22C106.671 192.36 106.75 192.551 106.75 192.75ZM106.75 195.75C106.75 195.949 106.671 196.14 106.53 196.28C106.39 196.421 106.199 196.5 106 196.5H100C99.8011 196.5 99.6103 196.421 99.4697 196.28C99.329 196.14 99.25 195.949 99.25 195.75C99.25 195.551 99.329 195.36 99.4697 195.22C99.6103 195.079 99.8011 195 100 195H106C106.199 195 106.39 195.079 106.53 195.22C106.671 195.36 106.75 195.551 106.75 195.75Z" fill="white"/>
<path d="M126.422 198V185.058H130.742C133.766 185.058 135.422 186.732 135.422 189.27C135.422 191.952 133.55 193.446 130.436 193.446H128.096V198H126.422ZM128.096 192.006H130.418C132.632 192.006 133.694 191.016 133.694 189.288C133.694 187.488 132.686 186.498 130.472 186.498H128.096V192.006ZM137.229 198V188.802H138.759V190.872C139.137 189.576 140.127 188.802 141.765 188.802H142.035V190.404H141.495C139.677 190.404 138.849 191.358 138.849 193.194V198H137.229ZM147.43 198.216C144.622 198.216 142.858 196.308 142.858 193.41C142.858 190.566 144.748 188.586 147.43 188.586C150.238 188.586 152.002 190.494 152.002 193.392C152.002 196.236 150.112 198.216 147.43 198.216ZM147.43 196.866C149.032 196.866 150.346 195.696 150.346 193.392C150.346 191.106 149.032 189.936 147.43 189.936C145.828 189.936 144.514 191.106 144.514 193.392C144.514 195.696 145.828 196.866 147.43 196.866ZM154.756 187.002C154.162 187.002 153.712 186.552 153.712 185.958C153.712 185.364 154.162 184.914 154.756 184.914C155.35 184.914 155.8 185.364 155.8 185.958C155.8 186.552 155.35 187.002 154.756 187.002ZM153.046 201.546C152.812 201.546 152.686 201.546 152.38 201.528V200.196H152.902C153.514 200.196 153.946 199.836 153.946 199.116V188.802H155.566V198.972C155.566 200.646 154.684 201.546 153.046 201.546ZM162 198.216C159.3 198.216 157.518 196.452 157.518 193.41C157.518 190.764 159.174 188.586 161.91 188.586C164.718 188.586 166.212 190.512 166.212 193.23C166.212 193.374 166.212 193.554 166.194 193.734H159.138C159.192 195.948 160.578 196.884 162.018 196.884C163.314 196.884 164.196 196.38 164.556 195.21H166.104C165.618 197.19 164.016 198.216 162 198.216ZM161.946 189.918C160.56 189.918 159.48 190.782 159.21 192.456H164.52C164.376 190.764 163.35 189.918 161.946 189.918ZM172.001 198.216C169.265 198.216 167.573 196.362 167.573 193.392C167.573 190.548 169.427 188.586 172.001 188.586C174.323 188.586 175.817 189.864 176.141 191.88H174.575C174.197 190.62 173.279 189.936 172.001 189.936C170.471 189.936 169.229 191.106 169.229 193.392C169.229 195.696 170.471 196.866 172.001 196.866C173.315 196.866 174.233 196.164 174.593 194.85H176.141C175.817 196.884 174.251 198.216 172.001 198.216ZM182.601 198H181.233C179.343 198 178.713 197.118 178.713 195.552V190.152H177.075V188.802H177.615C178.605 188.802 178.839 188.604 178.839 187.596V186.138H180.333V188.802H182.601V190.152H180.333V195.444C180.333 196.308 180.639 196.65 181.521 196.65H182.601V198ZM188.402 198V185.058H193.586C196.196 185.058 197.654 186.462 197.654 188.46C197.654 190.008 196.682 190.908 195.422 191.286C197.024 191.664 198.032 192.726 198.032 194.382C198.032 196.65 196.178 198 193.694 198H188.402ZM190.076 190.656H193.478C195.008 190.656 195.926 189.9 195.926 188.55C195.926 187.254 195.08 186.48 193.478 186.48H190.076V190.656ZM190.076 196.578H193.658C195.332 196.578 196.304 195.75 196.304 194.31C196.304 192.906 195.332 192.078 193.658 192.078H190.076V196.578ZM199.912 198V188.802H201.442V190.872C201.82 189.576 202.81 188.802 204.448 188.802H204.718V190.404H204.178C202.36 190.404 201.532 191.358 201.532 193.194V198H199.912ZM207.05 187.002C206.456 187.002 206.006 186.552 206.006 185.958C206.006 185.364 206.456 184.914 207.05 184.914C207.644 184.914 208.094 185.364 208.094 185.958C208.094 186.552 207.644 187.002 207.05 187.002ZM206.24 198V188.802H207.86V198H206.24ZM214.295 198.216C211.595 198.216 209.813 196.452 209.813 193.41C209.813 190.764 211.469 188.586 214.205 188.586C217.013 188.586 218.507 190.512 218.507 193.23C218.507 193.374 218.507 193.554 218.489 193.734H211.433C211.487 195.948 212.873 196.884 214.313 196.884C215.609 196.884 216.491 196.38 216.851 195.21H218.399C217.913 197.19 216.311 198.216 214.295 198.216ZM214.241 189.918C212.855 189.918 211.775 190.782 211.505 192.456H216.815C216.671 190.764 215.645 189.918 214.241 189.918ZM221.076 198V190.152H219.438V188.802H221.094V187.632C221.094 185.562 222.372 185.058 223.956 185.058H224.856V186.408H224.064C223.146 186.408 222.696 186.714 222.696 187.722V188.802H224.856V190.152H222.696V198H221.076Z" fill="white"/>
<path d="M456.125 192C456.125 192.223 456.059 192.44 455.935 192.625C455.812 192.81 455.636 192.954 455.431 193.039C455.225 193.125 454.999 193.147 454.781 193.103C454.562 193.06 454.362 192.953 454.205 192.795C454.047 192.638 453.94 192.438 453.897 192.219C453.853 192.001 453.875 191.775 453.961 191.569C454.046 191.364 454.19 191.188 454.375 191.065C454.56 190.941 454.777 190.875 455 190.875C455.298 190.875 455.585 190.994 455.795 191.205C456.006 191.415 456.125 191.702 456.125 192ZM461.375 190.875C461.152 190.875 460.935 190.941 460.75 191.065C460.565 191.188 460.421 191.364 460.336 191.569C460.25 191.775 460.228 192.001 460.272 192.219C460.315 192.438 460.422 192.638 460.58 192.795C460.737 192.953 460.937 193.06 461.156 193.103C461.374 193.147 461.6 193.125 461.806 193.039C462.011 192.954 462.187 192.81 462.31 192.625C462.434 192.44 462.5 192.223 462.5 192C462.5 191.702 462.381 191.415 462.17 191.205C461.96 190.994 461.673 190.875 461.375 190.875ZM448.625 190.875C448.402 190.875 448.185 190.941 448 191.065C447.815 191.188 447.671 191.364 447.586 191.569C447.5 191.775 447.478 192.001 447.522 192.219C447.565 192.438 447.672 192.638 447.83 192.795C447.987 192.953 448.187 193.06 448.406 193.103C448.624 193.147 448.85 193.125 449.056 193.039C449.261 192.954 449.437 192.81 449.56 192.625C449.684 192.44 449.75 192.223 449.75 192C449.75 191.702 449.631 191.415 449.42 191.205C449.21 190.994 448.923 190.875 448.625 190.875Z" fill="white"/>
<rect x="296" y="138" width="201" height="60" rx="6" fill="#3A3A40"/>
<path d="M296 144C296 140.686 298.686 138 302 138H356V198H302C298.686 198 296 195.314 296 192V144Z" fill="white"/>
<path fill-rule="evenodd" clip-rule="evenodd" d="M309 178.712L315.349 173.849C318.72 178.25 322.301 180.279 326.29 180.279C330.258 180.279 333.74 178.274 336.96 173.907L343.397 178.653C338.754 184.95 332.977 188.276 326.29 188.276C319.626 188.276 313.796 184.973 309 178.712Z" fill="url(#paint0_linear_86_1583)"/>
<path fill-rule="evenodd" clip-rule="evenodd" d="M326.27 157.576L314.97 167.313L309.75 161.255L326.292 147L342.707 161.266L337.461 167.302L326.27 157.576Z" fill="url(#paint1_linear_86_1583)"/>
<path d="M367.008 155.264H370.14C371.068 155.264 371.884 155.444 372.588 155.804C373.292 156.156 373.836 156.664 374.22 157.328C374.612 157.984 374.808 158.752 374.808 159.632C374.808 160.512 374.612 161.284 374.22 161.948C373.836 162.604 373.292 163.112 372.588 163.472C371.884 163.824 371.068 164 370.14 164H367.008V155.264ZM367.728 163.076H370.104C370.816 163.076 371.432 162.936 371.952 162.656C372.48 162.376 372.884 161.976 373.164 161.456C373.444 160.936 373.584 160.328 373.584 159.632C373.584 158.936 373.444 158.328 373.164 157.808C372.884 157.288 372.48 156.888 371.952 156.608C371.432 156.328 370.816 156.188 370.104 156.188H367.728L368.16 155.852V163.412L367.728 163.076ZM379.263 164.144C378.623 164.144 378.047 164.004 377.535 163.724C377.031 163.444 376.635 163.056 376.347 162.56C376.067 162.056 375.927 161.488 375.927 160.856C375.927 160.224 376.067 159.66 376.347 159.164C376.635 158.66 377.031 158.268 377.535 157.988C378.047 157.708 378.623 157.568 379.263 157.568C379.903 157.568 380.475 157.708 380.979 157.988C381.483 158.268 381.879 158.66 382.167 159.164C382.455 159.66 382.599 160.224 382.599 160.856C382.599 161.488 382.455 162.056 382.167 162.56C381.879 163.056 381.483 163.444 380.979 163.724C380.475 164.004 379.903 164.144 379.263 164.144ZM379.263 163.328C379.695 163.328 380.079 163.224 380.415 163.016C380.759 162.8 381.023 162.504 381.207 162.128C381.399 161.752 381.495 161.328 381.495 160.856C381.495 160.384 381.399 159.96 381.207 159.584C381.023 159.208 380.759 158.916 380.415 158.708C380.079 158.492 379.695 158.384 379.263 158.384C378.831 158.384 378.443 158.492 378.099 158.708C377.763 158.916 377.499 159.208 377.307 159.584C377.123 159.96 377.031 160.384 377.031 160.856C377.031 161.328 377.123 161.752 377.307 162.128C377.499 162.504 377.763 162.8 378.099 163.016C378.443 163.224 378.831 163.328 379.263 163.328ZM384.045 157.712H385.137V164H384.045V157.712ZM384.597 156.464C384.405 156.464 384.241 156.4 384.105 156.272C383.977 156.136 383.913 155.972 383.913 155.78C383.913 155.588 383.977 155.428 384.105 155.3C384.241 155.164 384.405 155.096 384.597 155.096C384.789 155.096 384.949 155.164 385.077 155.3C385.213 155.428 385.281 155.588 385.281 155.78C385.281 155.972 385.213 156.136 385.077 156.272C384.949 156.4 384.789 156.464 384.597 156.464ZM386.951 157.712H387.983V159.008L387.815 158.756C388.039 158.388 388.343 158.1 388.727 157.892C389.111 157.676 389.563 157.568 390.083 157.568C390.531 157.568 390.931 157.652 391.283 157.82C391.635 157.988 391.915 158.26 392.123 158.636C392.339 159.012 392.447 159.496 392.447 160.088V164H391.355V160.208C391.355 159.808 391.295 159.476 391.175 159.212C391.055 158.948 390.879 158.752 390.647 158.624C390.423 158.496 390.147 158.432 389.819 158.432C389.435 158.432 389.111 158.516 388.847 158.684C388.583 158.844 388.383 159.06 388.247 159.332C388.111 159.596 388.043 159.888 388.043 160.208V164H386.951V157.712ZM396.461 166.64C395.861 166.64 395.353 166.564 394.937 166.412C394.521 166.268 394.209 166.068 394.001 165.812C393.801 165.564 393.701 165.28 393.701 164.96C393.701 164.624 393.801 164.328 394.001 164.072C394.209 163.816 394.509 163.612 394.901 163.46L395.417 163.688C395.153 163.824 394.957 163.972 394.829 164.132C394.709 164.3 394.649 164.504 394.649 164.744C394.649 164.96 394.717 165.152 394.853 165.32C394.997 165.496 395.209 165.636 395.489 165.74C395.769 165.844 396.109 165.896 396.509 165.896C396.981 165.896 397.385 165.836 397.721 165.716C398.057 165.604 398.309 165.448 398.477 165.248C398.653 165.056 398.741 164.832 398.741 164.576C398.741 164.296 398.633 164.08 398.417 163.928C398.201 163.768 397.885 163.688 397.469 163.688H395.417C395.001 163.688 394.681 163.596 394.457 163.412C394.241 163.228 394.133 162.992 394.133 162.704C394.133 162.48 394.221 162.268 394.397 162.068C394.573 161.868 394.837 161.668 395.189 161.468L395.273 161.42L395.813 161.732C395.517 161.884 395.313 162.012 395.201 162.116C395.097 162.212 395.045 162.316 395.045 162.428C395.045 162.556 395.085 162.652 395.165 162.716C395.253 162.772 395.393 162.8 395.585 162.8H397.721C398.393 162.8 398.913 162.952 399.281 163.256C399.657 163.552 399.845 163.952 399.845 164.456C399.845 164.872 399.713 165.244 399.449 165.572C399.185 165.908 398.797 166.168 398.285 166.352C397.781 166.544 397.173 166.64 396.461 166.64ZM396.509 161.96C396.005 161.96 395.553 161.868 395.153 161.684C394.761 161.492 394.453 161.232 394.229 160.904C394.005 160.568 393.893 160.188 393.893 159.764C393.893 159.34 394.005 158.96 394.229 158.624C394.453 158.288 394.761 158.028 395.153 157.844C395.553 157.66 396.005 157.568 396.509 157.568C397.013 157.568 397.461 157.66 397.853 157.844C398.253 158.028 398.565 158.288 398.789 158.624C399.013 158.96 399.125 159.34 399.125 159.764C399.125 160.188 399.013 160.568 398.789 160.904C398.573 161.232 398.265 161.492 397.865 161.684C397.473 161.868 397.021 161.96 396.509 161.96ZM396.509 161.216C396.829 161.216 397.109 161.156 397.349 161.036C397.589 160.916 397.773 160.748 397.901 160.532C398.037 160.308 398.105 160.052 398.105 159.764C398.105 159.332 397.957 158.984 397.661 158.72C397.373 158.448 396.989 158.312 396.509 158.312C396.189 158.312 395.909 158.372 395.669 158.492C395.429 158.612 395.241 158.784 395.105 159.008C394.977 159.224 394.913 159.476 394.913 159.764C394.913 160.196 395.057 160.548 395.345 160.82C395.641 161.084 396.029 161.216 396.509 161.216ZM397.733 157.94C397.981 157.86 398.301 157.792 398.693 157.736C399.085 157.672 399.453 157.64 399.797 157.64V158.528H397.829L397.733 157.94Z" fill="#42FFF6"/>
<path d="M367.008 170.808H371.04C371.815 170.808 372.487 170.943 373.056 171.214C373.625 171.475 374.064 171.858 374.372 172.362C374.689 172.866 374.848 173.454 374.848 174.126C374.848 174.798 374.685 175.377 374.358 175.862C374.041 176.347 373.593 176.725 373.014 176.996C372.445 177.257 371.787 177.388 371.04 177.388H368.016V175.89H370.858C371.259 175.89 371.605 175.825 371.894 175.694C372.183 175.554 372.407 175.353 372.566 175.092C372.725 174.821 372.804 174.499 372.804 174.126C372.804 173.557 372.631 173.123 372.286 172.824C371.95 172.525 371.474 172.376 370.858 172.376H368.282L369.024 171.844V181H367.008V170.808ZM376.028 173.664H377.792V176.184L377.638 176.002C377.769 175.433 377.993 174.947 378.31 174.546C378.637 174.135 379.024 173.855 379.472 173.706C379.93 173.557 380.406 173.571 380.9 173.748L380.634 175.316C380.121 175.241 379.659 175.283 379.248 175.442C378.847 175.591 378.525 175.848 378.282 176.212C378.049 176.567 377.932 177.005 377.932 177.528V181H376.028V173.664ZM385.248 181.168C384.455 181.168 383.75 181.005 383.134 180.678C382.518 180.351 382.038 179.899 381.692 179.32C381.347 178.741 381.174 178.079 381.174 177.332C381.174 176.585 381.347 175.923 381.692 175.344C382.038 174.765 382.518 174.313 383.134 173.986C383.75 173.659 384.455 173.496 385.248 173.496C386.042 173.496 386.746 173.659 387.362 173.986C387.978 174.313 388.459 174.765 388.804 175.344C389.159 175.923 389.336 176.585 389.336 177.332C389.336 178.079 389.159 178.741 388.804 179.32C388.459 179.899 387.978 180.351 387.362 180.678C386.746 181.005 386.042 181.168 385.248 181.168ZM385.248 179.782C385.668 179.782 386.042 179.679 386.368 179.474C386.704 179.259 386.961 178.965 387.138 178.592C387.316 178.219 387.404 177.799 387.404 177.332C387.404 176.865 387.316 176.445 387.138 176.072C386.961 175.699 386.704 175.409 386.368 175.204C386.042 174.989 385.668 174.882 385.248 174.882C384.838 174.882 384.464 174.989 384.128 175.204C383.802 175.409 383.545 175.699 383.358 176.072C383.181 176.445 383.092 176.865 383.092 177.332C383.092 177.799 383.181 178.219 383.358 178.592C383.545 178.965 383.802 179.259 384.128 179.474C384.464 179.679 384.838 179.782 385.248 179.782ZM389.438 182.89C389.848 182.815 390.166 182.643 390.39 182.372C390.614 182.111 390.726 181.728 390.726 181.224V173.664H392.63V180.846C392.63 181.854 392.364 182.61 391.832 183.114C391.309 183.618 390.511 183.884 389.438 183.912V182.89ZM391.678 172.544C391.379 172.544 391.118 172.437 390.894 172.222C390.679 172.007 390.572 171.746 390.572 171.438C390.572 171.13 390.679 170.869 390.894 170.654C391.118 170.439 391.379 170.332 391.678 170.332C391.986 170.332 392.247 170.439 392.462 170.654C392.686 170.869 392.798 171.13 392.798 171.438C392.798 171.746 392.686 172.007 392.462 172.222C392.247 172.437 391.986 172.544 391.678 172.544ZM398.015 181.168C397.269 181.168 396.592 181.009 395.985 180.692C395.388 180.365 394.917 179.913 394.571 179.334C394.226 178.746 394.053 178.074 394.053 177.318C394.053 176.581 394.221 175.923 394.557 175.344C394.893 174.765 395.36 174.313 395.957 173.986C396.555 173.659 397.227 173.496 397.973 173.496C398.757 173.496 399.429 173.678 399.989 174.042C400.559 174.397 400.979 174.882 401.249 175.498C401.529 176.105 401.637 176.772 401.571 177.5H394.865V176.52H400.451L399.751 177.136C399.807 176.679 399.775 176.263 399.653 175.89C399.541 175.517 399.341 175.223 399.051 175.008C398.762 174.784 398.403 174.672 397.973 174.672C397.591 174.672 397.241 174.77 396.923 174.966C396.615 175.153 396.368 175.437 396.181 175.82C396.004 176.203 395.915 176.665 395.915 177.206C395.915 177.71 396.018 178.149 396.223 178.522C396.438 178.895 396.727 179.18 397.091 179.376C397.455 179.572 397.861 179.67 398.309 179.67C398.795 179.67 399.252 179.567 399.681 179.362C400.111 179.157 400.489 178.877 400.815 178.522L401.585 178.998C401.455 179.306 401.231 179.628 400.913 179.964C400.596 180.3 400.185 180.585 399.681 180.818C399.177 181.051 398.622 181.168 398.015 181.168ZM406.531 181.168C405.794 181.168 405.131 181.005 404.543 180.678C403.955 180.342 403.488 179.885 403.143 179.306C402.807 178.727 402.639 178.069 402.639 177.332C402.639 176.585 402.807 175.923 403.143 175.344C403.488 174.765 403.964 174.313 404.571 173.986C405.178 173.659 405.859 173.496 406.615 173.496C407.194 173.496 407.726 173.589 408.211 173.776C408.696 173.963 409.112 174.247 409.457 174.63C409.802 175.003 410.054 175.456 410.213 175.988L408.701 176.436C408.524 175.941 408.253 175.563 407.889 175.302C407.534 175.041 407.128 174.91 406.671 174.91C406.26 174.91 405.892 175.008 405.565 175.204C405.238 175.391 404.982 175.657 404.795 176.002C404.618 176.347 404.529 176.739 404.529 177.178C404.529 177.626 404.622 178.037 404.809 178.41C405.005 178.774 405.28 179.063 405.635 179.278C405.999 179.493 406.424 179.6 406.909 179.6C407.404 179.6 407.884 179.488 408.351 179.264C408.818 179.04 409.2 178.737 409.499 178.354L410.269 178.9C410.138 179.236 409.9 179.581 409.555 179.936C409.219 180.281 408.79 180.575 408.267 180.818C407.744 181.051 407.166 181.168 406.531 181.168ZM414.102 181.168C413.402 181.168 412.847 180.949 412.436 180.51C412.025 180.071 411.82 179.483 411.82 178.746V174.196L412.674 175.05H410.672V174.14L411.05 174.014C411.367 173.893 411.643 173.706 411.876 173.454C412.109 173.193 412.301 172.838 412.45 172.39L412.576 171.788H413.724V174.322L412.982 173.664H416.006V175.05H412.982L413.724 174.448V178.662C413.724 179.035 413.827 179.329 414.032 179.544C414.237 179.759 414.508 179.866 414.844 179.866C415.021 179.866 415.213 179.847 415.418 179.81C415.623 179.773 415.81 179.726 415.978 179.67L416.146 180.692C415.903 180.832 415.595 180.944 415.222 181.028C414.858 181.121 414.485 181.168 414.102 181.168ZM420.301 170.808H424.333C425.108 170.808 425.78 170.943 426.349 171.214C426.918 171.475 427.357 171.858 427.665 172.362C427.982 172.866 428.141 173.454 428.141 174.126C428.141 174.798 427.978 175.377 427.651 175.862C427.334 176.347 426.886 176.725 426.307 176.996C425.738 177.257 425.08 177.388 424.333 177.388H421.309V175.89H424.151C424.552 175.89 424.898 175.825 425.187 175.694C425.476 175.554 425.7 175.353 425.859 175.092C426.018 174.821 426.097 174.499 426.097 174.126C426.097 173.557 425.924 173.123 425.579 172.824C425.243 172.525 424.767 172.376 424.151 172.376H421.575L422.317 171.844V181H420.301V170.808ZM429.349 170.528H431.253V175.316L430.931 174.938C431.183 174.49 431.528 174.14 431.967 173.888C432.405 173.627 432.909 173.496 433.479 173.496C434.039 173.496 434.519 173.599 434.921 173.804C435.322 174.009 435.635 174.327 435.859 174.756C436.092 175.185 436.209 175.736 436.209 176.408V181H434.305V176.646C434.305 176.273 434.244 175.965 434.123 175.722C434.011 175.47 433.847 175.283 433.633 175.162C433.418 175.041 433.161 174.98 432.863 174.98C432.527 174.98 432.237 175.055 431.995 175.204C431.752 175.353 431.565 175.554 431.435 175.806C431.313 176.058 431.253 176.338 431.253 176.646V181H429.349V170.528ZM440.007 181.168C439.251 181.168 438.649 180.981 438.201 180.608C437.763 180.235 437.543 179.726 437.543 179.082C437.543 178.559 437.688 178.13 437.977 177.794C438.267 177.449 438.645 177.201 439.111 177.052C439.578 176.903 440.087 176.828 440.637 176.828H442.835V177.822H440.903C440.362 177.822 439.956 177.915 439.685 178.102C439.415 178.289 439.279 178.559 439.279 178.914C439.279 179.25 439.396 179.516 439.629 179.712C439.863 179.908 440.171 180.006 440.553 180.006C440.889 180.006 441.188 179.941 441.449 179.81C441.72 179.67 441.935 179.483 442.093 179.25C442.252 179.017 442.331 178.76 442.331 178.48V176.562C442.331 176.03 442.182 175.633 441.883 175.372C441.594 175.111 441.202 174.98 440.707 174.98C440.278 174.98 439.881 175.069 439.517 175.246C439.153 175.423 438.827 175.68 438.537 176.016L437.795 175.4C438.057 174.84 438.472 174.383 439.041 174.028C439.62 173.673 440.292 173.496 441.057 173.496C441.701 173.496 442.257 173.613 442.723 173.846C443.19 174.07 443.549 174.411 443.801 174.868C444.053 175.316 444.179 175.867 444.179 176.52V181H442.443V179.236L442.709 179.684C442.476 180.132 442.126 180.491 441.659 180.762C441.202 181.033 440.651 181.168 440.007 181.168ZM448.331 181.168C447.706 181.168 447.132 181.07 446.609 180.874C446.087 180.669 445.667 180.421 445.349 180.132L445.769 178.998C446.087 179.259 446.465 179.479 446.903 179.656C447.342 179.824 447.785 179.908 448.233 179.908C448.644 179.908 448.971 179.829 449.213 179.67C449.456 179.502 449.577 179.273 449.577 178.984C449.577 178.741 449.47 178.55 449.255 178.41C449.041 178.261 448.709 178.135 448.261 178.032L448.009 177.976C447.095 177.771 446.441 177.5 446.049 177.164C445.657 176.819 445.461 176.357 445.461 175.778C445.461 175.283 445.583 174.868 445.825 174.532C446.077 174.187 446.418 173.93 446.847 173.762C447.286 173.585 447.781 173.496 448.331 173.496C448.901 173.496 449.419 173.58 449.885 173.748C450.361 173.916 450.767 174.126 451.103 174.378L450.697 175.54C450.408 175.316 450.049 175.129 449.619 174.98C449.199 174.831 448.803 174.756 448.429 174.756C448.047 174.756 447.748 174.831 447.533 174.98C447.328 175.12 447.225 175.325 447.225 175.596C447.225 175.839 447.323 176.025 447.519 176.156C447.725 176.287 448.051 176.408 448.499 176.52L448.751 176.576C449.675 176.772 450.333 177.052 450.725 177.416C451.127 177.771 451.327 178.247 451.327 178.844C451.327 179.339 451.197 179.759 450.935 180.104C450.683 180.449 450.329 180.715 449.871 180.902C449.423 181.079 448.91 181.168 448.331 181.168ZM456.326 181.168C455.579 181.168 454.903 181.009 454.296 180.692C453.699 180.365 453.227 179.913 452.882 179.334C452.537 178.746 452.364 178.074 452.364 177.318C452.364 176.581 452.532 175.923 452.868 175.344C453.204 174.765 453.671 174.313 454.268 173.986C454.865 173.659 455.537 173.496 456.284 173.496C457.068 173.496 457.74 173.678 458.3 174.042C458.869 174.397 459.289 174.882 459.56 175.498C459.84 176.105 459.947 176.772 459.882 177.5L453.176 177.5V176.52L458.762 176.52L458.062 177.136C458.118 176.679 458.085 176.263 457.964 175.89C457.852 175.517 457.651 175.223 457.362 175.008C457.073 174.784 456.713 174.672 456.284 174.672C455.901 174.672 455.551 174.77 455.234 174.966C454.926 175.153 454.679 175.437 454.492 175.82C454.315 176.203 454.226 176.665 454.226 177.206C454.226 177.71 454.329 178.149 454.534 178.522C454.749 178.895 455.038 179.18 455.402 179.376C455.766 179.572 456.172 179.67 456.62 179.67C457.105 179.67 457.563 179.567 457.992 179.362C458.421 179.157 458.799 178.877 459.126 178.522L459.896 178.998C459.765 179.306 459.541 179.628 459.224 179.964C458.907 180.3 458.496 180.585 457.992 180.818C457.488 181.051 456.933 181.168 456.326 181.168ZM465.794 172.096L467.236 172.446L463.834 173.832L463.442 172.894L466.438 170.808H467.754V181H465.794V172.096Z" fill="white"/>
</g>
<defs>
<linearGradient id="paint0_linear_86_1583" x1="309" y1="190.874" x2="343.397" y2="190.874" gradientUnits="userSpaceOnUse">
<stop stop-color="#8930FD"/>
<stop offset="1" stop-color="#49CCF9"/>
</linearGradient>
<linearGradient id="paint1_linear_86_1583" x1="309.75" y1="170.971" x2="342.707" y2="170.971" gradientUnits="userSpaceOnUse">
<stop stop-color="#FF02F0"/>
<stop offset="1" stop-color="#FFC800"/>
</linearGradient>
<clipPath id="clip0_86_1583">
<rect width="558" height="240" fill="white"/>
</clipPath>
</defs>
</svg>
