<svg width="558" height="240" viewBox="0 0 558 240" fill="none" xmlns="http://www.w3.org/2000/svg">
<g clip-path="url(#clip0_86_1563)">
<rect width="558" height="240" fill="black"/>
<line x1="-15" y1="47.5" x2="572" y2="47.5" stroke="#5E5E67" stroke-dasharray="4 4"/>
<line x1="-15" y1="192.5" x2="572" y2="192.5" stroke="#5E5E67" stroke-dasharray="4 4"/>
<line x1="80.5" y1="-63" x2="80.5" y2="337" stroke="#5E5E67" stroke-dasharray="4 4"/>
<line x1="477.5" y1="-63" x2="477.5" y2="337" stroke="#5E5E67" stroke-dasharray="4 4"/>
<rect x="80.5" y="150.5" width="396" height="41" rx="7.5" fill="#1B1B1D"/>
<rect x="80.5" y="150.5" width="396" height="41" rx="7.5" stroke="#B175EF"/>
<path d="M97.4494 166.764H103.149V167.688H98.1814L98.6014 167.316V174.948L98.1814 174.576H103.269V175.5H97.4494V166.764ZM98.0014 170.604H102.789V171.504H98.0014V170.604ZM104.642 169.212H105.674V170.508L105.506 170.256C105.73 169.896 106.03 169.608 106.406 169.392C106.79 169.176 107.234 169.068 107.738 169.068C108.258 169.068 108.706 169.188 109.082 169.428C109.466 169.668 109.738 170.04 109.898 170.544L109.61 170.448C109.754 170.176 109.938 169.936 110.162 169.728C110.394 169.52 110.666 169.36 110.978 169.248C111.298 169.128 111.65 169.068 112.034 169.068C112.474 169.068 112.866 169.156 113.21 169.332C113.554 169.5 113.826 169.776 114.026 170.16C114.234 170.536 114.338 171.02 114.338 171.612V175.5H113.246V171.732C113.246 171.332 113.19 171 113.078 170.736C112.966 170.464 112.798 170.264 112.574 170.136C112.358 170 112.09 169.932 111.77 169.932C111.402 169.932 111.086 170.016 110.822 170.184C110.566 170.352 110.37 170.572 110.234 170.844C110.106 171.116 110.042 171.412 110.042 171.732V175.5H108.95V171.732C108.95 171.332 108.894 171 108.782 170.736C108.67 170.464 108.502 170.264 108.278 170.136C108.062 170 107.794 169.932 107.474 169.932C107.106 169.932 106.79 170.016 106.526 170.184C106.262 170.352 106.062 170.572 105.926 170.844C105.798 171.116 105.734 171.412 105.734 171.732V175.5H104.642V169.212ZM117.868 175.644C117.212 175.644 116.688 175.488 116.296 175.176C115.912 174.856 115.72 174.42 115.72 173.868C115.72 173.452 115.832 173.1 116.056 172.812C116.288 172.524 116.6 172.308 116.992 172.164C117.392 172.02 117.844 171.948 118.348 171.948H120.352V172.644H118.492C117.892 172.644 117.448 172.74 117.16 172.932C116.872 173.124 116.728 173.408 116.728 173.784C116.728 174.144 116.852 174.428 117.1 174.636C117.348 174.844 117.684 174.948 118.108 174.948C118.476 174.948 118.804 174.872 119.092 174.72C119.388 174.568 119.616 174.364 119.776 174.108C119.944 173.852 120.028 173.576 120.028 173.28V171.624C120.028 171.064 119.884 170.644 119.596 170.364C119.316 170.076 118.924 169.932 118.42 169.932C117.988 169.932 117.604 170.028 117.268 170.22C116.94 170.412 116.656 170.684 116.416 171.036L115.948 170.676C116.164 170.196 116.504 169.808 116.968 169.512C117.432 169.216 117.976 169.068 118.6 169.068C119.12 169.068 119.564 169.164 119.932 169.356C120.308 169.548 120.596 169.836 120.796 170.22C120.996 170.596 121.096 171.056 121.096 171.6V175.5H120.088V174.168L120.244 174.432C120.028 174.8 119.716 175.096 119.308 175.32C118.908 175.536 118.428 175.644 117.868 175.644ZM122.841 169.212H123.933V175.5H122.841V169.212ZM123.393 167.964C123.201 167.964 123.037 167.9 122.901 167.772C122.773 167.636 122.709 167.472 122.709 167.28C122.709 167.088 122.773 166.928 122.901 166.8C123.037 166.664 123.201 166.596 123.393 166.596C123.585 166.596 123.745 166.664 123.873 166.8C124.009 166.928 124.077 167.088 124.077 167.28C124.077 167.472 124.009 167.636 123.873 167.772C123.745 167.9 123.585 167.964 123.393 167.964ZM125.748 166.524H126.84V175.5H125.748V166.524ZM133.579 166.764H134.851L138.187 175.5H136.975L133.963 167.244H134.335L131.323 175.5H130.243L133.579 166.764ZM131.695 172.368H136.471V173.256H131.695V172.368ZM141.892 175.644C141.292 175.644 140.752 175.504 140.272 175.224C139.792 174.944 139.412 174.556 139.132 174.06C138.86 173.556 138.724 172.988 138.724 172.356C138.724 171.724 138.86 171.16 139.132 170.664C139.412 170.16 139.792 169.768 140.272 169.488C140.752 169.208 141.292 169.068 141.892 169.068C142.444 169.068 142.932 169.192 143.356 169.44C143.788 169.688 144.136 170.036 144.4 170.484L144.22 170.7V166.524H145.312V175.5H144.292V173.916L144.46 174.132C144.212 174.604 143.864 174.976 143.416 175.248C142.968 175.512 142.46 175.644 141.892 175.644ZM142.024 174.804C142.44 174.804 142.816 174.704 143.152 174.504C143.488 174.304 143.748 174.02 143.932 173.652C144.124 173.276 144.22 172.844 144.22 172.356C144.22 171.868 144.124 171.44 143.932 171.072C143.748 170.696 143.488 170.408 143.152 170.208C142.816 170.008 142.44 169.908 142.024 169.908C141.608 169.908 141.232 170.008 140.896 170.208C140.56 170.408 140.296 170.696 140.104 171.072C139.92 171.44 139.828 171.868 139.828 172.356C139.828 172.844 139.92 173.276 140.104 173.652C140.296 174.02 140.56 174.304 140.896 174.504C141.232 174.704 141.608 174.804 142.024 174.804ZM149.943 175.644C149.343 175.644 148.803 175.504 148.323 175.224C147.843 174.944 147.463 174.556 147.183 174.06C146.911 173.556 146.775 172.988 146.775 172.356C146.775 171.724 146.911 171.16 147.183 170.664C147.463 170.16 147.843 169.768 148.323 169.488C148.803 169.208 149.343 169.068 149.943 169.068C150.495 169.068 150.983 169.192 151.407 169.44C151.839 169.688 152.187 170.036 152.451 170.484L152.271 170.7V166.524H153.363V175.5H152.343V173.916L152.511 174.132C152.263 174.604 151.915 174.976 151.467 175.248C151.019 175.512 150.511 175.644 149.943 175.644ZM150.075 174.804C150.491 174.804 150.867 174.704 151.203 174.504C151.539 174.304 151.799 174.02 151.983 173.652C152.175 173.276 152.271 172.844 152.271 172.356C152.271 171.868 152.175 171.44 151.983 171.072C151.799 170.696 151.539 170.408 151.203 170.208C150.867 170.008 150.491 169.908 150.075 169.908C149.659 169.908 149.283 170.008 148.947 170.208C148.611 170.408 148.347 170.696 148.155 171.072C147.971 171.44 147.879 171.868 147.879 172.356C147.879 172.844 147.971 173.276 148.155 173.652C148.347 174.02 148.611 174.304 148.947 174.504C149.283 174.704 149.659 174.804 150.075 174.804ZM155.173 169.212H156.193V171.276L156.085 171.168C156.197 170.72 156.385 170.332 156.649 170.004C156.921 169.668 157.245 169.432 157.621 169.296C157.997 169.152 158.397 169.14 158.821 169.26L158.677 170.16C158.221 170.104 157.809 170.16 157.441 170.328C157.081 170.496 156.793 170.756 156.577 171.108C156.369 171.46 156.265 171.868 156.265 172.332V175.5H155.173V169.212ZM162.426 175.644C161.81 175.644 161.25 175.504 160.746 175.224C160.25 174.944 159.858 174.552 159.57 174.048C159.29 173.544 159.15 172.972 159.15 172.332C159.15 171.708 159.29 171.148 159.57 170.652C159.85 170.156 160.234 169.768 160.722 169.488C161.218 169.208 161.774 169.068 162.39 169.068C163.014 169.068 163.554 169.22 164.01 169.524C164.474 169.82 164.822 170.22 165.054 170.724C165.294 171.228 165.402 171.78 165.378 172.38H159.642V171.684H164.73L164.298 172.092C164.306 171.652 164.238 171.256 164.094 170.904C163.958 170.552 163.742 170.276 163.446 170.076C163.158 169.868 162.806 169.764 162.39 169.764C161.982 169.764 161.614 169.868 161.286 170.076C160.958 170.276 160.698 170.568 160.506 170.952C160.322 171.328 160.23 171.772 160.23 172.284C160.23 172.78 160.33 173.216 160.53 173.592C160.738 173.968 161.018 174.26 161.37 174.468C161.73 174.668 162.134 174.768 162.582 174.768C163.078 174.768 163.526 174.652 163.926 174.42C164.326 174.188 164.654 173.872 164.91 173.472L165.402 173.748C165.282 174.052 165.086 174.352 164.814 174.648C164.542 174.936 164.198 175.176 163.782 175.368C163.374 175.552 162.922 175.644 162.426 175.644ZM168.826 175.644C168.322 175.644 167.862 175.56 167.446 175.392C167.038 175.216 166.698 174.992 166.426 174.72L166.714 174.06C166.978 174.308 167.286 174.508 167.638 174.66C167.998 174.812 168.378 174.888 168.778 174.888C169.21 174.888 169.558 174.796 169.822 174.612C170.094 174.42 170.23 174.156 170.23 173.82C170.23 173.548 170.118 173.332 169.894 173.172C169.678 173.004 169.326 172.864 168.838 172.752L168.622 172.704C167.878 172.536 167.346 172.312 167.026 172.032C166.706 171.744 166.546 171.36 166.546 170.88C166.546 170.488 166.642 170.156 166.834 169.884C167.034 169.612 167.302 169.408 167.638 169.272C167.982 169.136 168.37 169.068 168.802 169.068C169.266 169.068 169.694 169.144 170.086 169.296C170.486 169.44 170.818 169.628 171.082 169.86L170.806 170.532C170.566 170.324 170.266 170.156 169.906 170.028C169.554 169.892 169.202 169.824 168.85 169.824C168.45 169.824 168.134 169.904 167.902 170.064C167.67 170.224 167.554 170.468 167.554 170.796C167.554 171.06 167.654 171.268 167.854 171.42C168.062 171.564 168.41 171.692 168.898 171.804L169.114 171.852C169.866 172.02 170.406 172.256 170.734 172.56C171.07 172.864 171.238 173.26 171.238 173.748C171.238 174.148 171.13 174.492 170.914 174.78C170.706 175.06 170.418 175.276 170.05 175.428C169.69 175.572 169.282 175.644 168.826 175.644ZM174.626 175.644C174.122 175.644 173.662 175.56 173.246 175.392C172.838 175.216 172.498 174.992 172.226 174.72L172.514 174.06C172.778 174.308 173.086 174.508 173.438 174.66C173.798 174.812 174.178 174.888 174.578 174.888C175.01 174.888 175.358 174.796 175.622 174.612C175.894 174.42 176.03 174.156 176.03 173.82C176.03 173.548 175.918 173.332 175.694 173.172C175.478 173.004 175.126 172.864 174.638 172.752L174.422 172.704C173.678 172.536 173.146 172.312 172.826 172.032C172.506 171.744 172.346 171.36 172.346 170.88C172.346 170.488 172.442 170.156 172.634 169.884C172.834 169.612 173.102 169.408 173.438 169.272C173.782 169.136 174.17 169.068 174.602 169.068C175.066 169.068 175.494 169.144 175.886 169.296C176.286 169.44 176.618 169.628 176.882 169.86L176.606 170.532C176.366 170.324 176.066 170.156 175.706 170.028C175.354 169.892 175.002 169.824 174.65 169.824C174.25 169.824 173.934 169.904 173.702 170.064C173.47 170.224 173.354 170.468 173.354 170.796C173.354 171.06 173.454 171.268 173.654 171.42C173.862 171.564 174.21 171.692 174.698 171.804L174.914 171.852C175.666 172.02 176.206 172.256 176.534 172.56C176.87 172.864 177.038 173.26 177.038 173.748C177.038 174.148 176.93 174.492 176.714 174.78C176.506 175.06 176.218 175.276 175.85 175.428C175.49 175.572 175.082 175.644 174.626 175.644Z" fill="white" fill-opacity="0.5"/>
<path d="M93.5 143.144C91.064 143.144 89.444 141.38 89.444 138.68C89.444 135.992 91.1 134.228 93.5 134.228C95.36 134.228 96.704 135.272 97.112 137.108H95.948C95.624 135.956 94.796 135.188 93.5 135.188C91.772 135.188 90.596 136.556 90.596 138.68C90.596 140.804 91.76 142.184 93.5 142.184C94.832 142.184 95.672 141.392 95.984 140.204H97.148C96.74 142.076 95.384 143.144 93.5 143.144ZM101.035 143.144C99.1633 143.144 97.9873 141.872 97.9873 139.94C97.9873 138.044 99.2473 136.724 101.035 136.724C102.907 136.724 104.083 137.996 104.083 139.928C104.083 141.824 102.823 143.144 101.035 143.144ZM101.035 142.244C102.103 142.244 102.979 141.464 102.979 139.928C102.979 138.404 102.103 137.624 101.035 137.624C99.9673 137.624 99.0913 138.404 99.0913 139.928C99.0913 141.464 99.9673 142.244 101.035 142.244ZM105.379 143V136.868H106.399V137.876C106.675 137.336 107.335 136.724 108.403 136.724C109.951 136.724 110.719 137.648 110.719 139.232V143H109.639V139.352C109.639 138.26 109.159 137.636 108.175 137.636C107.203 137.636 106.459 138.368 106.459 139.436V143H105.379ZM115.401 143H114.489C113.229 143 112.809 142.412 112.809 141.368V137.768H111.717V136.868H112.077C112.737 136.868 112.893 136.736 112.893 136.064V135.092H113.889V136.868H115.401V137.768H113.889V141.296C113.889 141.872 114.093 142.1 114.681 142.1H115.401V143ZM118.417 143.144C117.037 143.144 116.245 142.484 116.245 141.416C116.245 140.12 117.277 139.712 118.609 139.484L119.305 139.364C119.893 139.268 120.301 139.136 120.301 138.62C120.301 138.02 119.797 137.612 118.921 137.612C117.985 137.612 117.565 138.056 117.469 138.656H116.425C116.485 137.624 117.385 136.724 118.957 136.724C120.577 136.724 121.381 137.54 121.381 138.968V141.68C121.381 142.004 121.465 142.148 121.837 142.148H122.125V143.012C121.993 143.024 121.753 143.024 121.513 143.024C120.769 143.024 120.409 142.676 120.409 142.136C119.989 142.82 119.245 143.144 118.417 143.144ZM118.549 142.268C119.545 142.268 120.325 141.752 120.325 140.708V139.88C120.193 140 119.941 140.084 119.629 140.144L118.873 140.288C117.901 140.492 117.325 140.66 117.325 141.344C117.325 141.956 117.805 142.268 118.549 142.268ZM125.666 143.144C123.842 143.144 122.714 141.908 122.714 139.928C122.714 138.032 123.95 136.724 125.666 136.724C127.214 136.724 128.21 137.576 128.426 138.92H127.382C127.13 138.08 126.518 137.624 125.666 137.624C124.646 137.624 123.818 138.404 123.818 139.928C123.818 141.464 124.646 142.244 125.666 142.244C126.542 142.244 127.154 141.776 127.394 140.9H128.426C128.21 142.256 127.166 143.144 125.666 143.144ZM132.733 143H131.821C130.561 143 130.141 142.412 130.141 141.368V137.768H129.049V136.868H129.409C130.069 136.868 130.225 136.736 130.225 136.064V135.092H131.221V136.868H132.733V137.768H131.221V141.296C131.221 141.872 131.425 142.1 132.013 142.1H132.733V143ZM136.6 143V134.372H137.716V143H136.6ZM139.504 143V136.868H140.524V137.876C140.8 137.336 141.46 136.724 142.528 136.724C144.076 136.724 144.844 137.648 144.844 139.232V143H143.764V139.352C143.764 138.26 143.284 137.636 142.3 137.636C141.328 137.636 140.584 138.368 140.584 139.436V143H139.504ZM146.945 143V137.768H145.853V136.868H146.957V136.088C146.957 134.708 147.809 134.372 148.865 134.372H149.465V135.272H148.937C148.325 135.272 148.025 135.476 148.025 136.148V136.868H149.465V137.768H148.025V143H146.945ZM153.055 143.144C151.183 143.144 150.007 141.872 150.007 139.94C150.007 138.044 151.267 136.724 153.055 136.724C154.927 136.724 156.103 137.996 156.103 139.928C156.103 141.824 154.843 143.144 153.055 143.144ZM153.055 142.244C154.123 142.244 154.999 141.464 154.999 139.928C154.999 138.404 154.123 137.624 153.055 137.624C151.987 137.624 151.111 138.404 151.111 139.928C151.111 141.464 151.987 142.244 153.055 142.244Z" fill="white"/>
<rect x="196" y="183" width="72" height="21" rx="6" fill="#8F33EE"/>
<path d="M204.736 189.972H206.464V198H204.736V189.972ZM202.192 189.264H209.008V190.632H202.192V189.264ZM209.94 189.024H211.572V193.128L211.296 192.804C211.512 192.42 211.808 192.12 212.184 191.904C212.56 191.68 212.992 191.568 213.48 191.568C213.96 191.568 214.372 191.656 214.716 191.832C215.06 192.008 215.328 192.28 215.52 192.648C215.72 193.016 215.82 193.488 215.82 194.064V198H214.188V194.268C214.188 193.948 214.136 193.684 214.032 193.476C213.936 193.26 213.796 193.1 213.612 192.996C213.428 192.892 213.208 192.84 212.952 192.84C212.664 192.84 212.416 192.904 212.208 193.032C212 193.16 211.84 193.332 211.728 193.548C211.624 193.764 211.572 194.004 211.572 194.268V198H209.94V189.024ZM220.372 198.144C219.732 198.144 219.152 198.008 218.632 197.736C218.12 197.456 217.716 197.068 217.42 196.572C217.124 196.068 216.976 195.492 216.976 194.844C216.976 194.212 217.12 193.648 217.408 193.152C217.696 192.656 218.096 192.268 218.608 191.988C219.12 191.708 219.696 191.568 220.336 191.568C221.008 191.568 221.584 191.724 222.064 192.036C222.552 192.34 222.912 192.756 223.144 193.284C223.384 193.804 223.476 194.376 223.42 195H217.672V194.16H222.46L221.86 194.688C221.908 194.296 221.88 193.94 221.776 193.62C221.68 193.3 221.508 193.048 221.26 192.864C221.012 192.672 220.704 192.576 220.336 192.576C220.008 192.576 219.708 192.66 219.436 192.828C219.172 192.988 218.96 193.232 218.8 193.56C218.648 193.888 218.572 194.284 218.572 194.748C218.572 195.18 218.66 195.556 218.836 195.876C219.02 196.196 219.268 196.44 219.58 196.608C219.892 196.776 220.24 196.86 220.624 196.86C221.04 196.86 221.432 196.772 221.8 196.596C222.168 196.42 222.492 196.18 222.772 195.876L223.432 196.284C223.32 196.548 223.128 196.824 222.856 197.112C222.584 197.4 222.232 197.644 221.8 197.844C221.368 198.044 220.892 198.144 220.372 198.144ZM231.343 198.144C230.471 198.144 229.699 197.956 229.027 197.58C228.355 197.196 227.831 196.66 227.455 195.972C227.079 195.284 226.891 194.504 226.891 193.632C226.891 192.76 227.079 191.984 227.455 191.304C227.831 190.616 228.355 190.08 229.027 189.696C229.699 189.312 230.463 189.12 231.319 189.12C231.983 189.12 232.587 189.232 233.131 189.456C233.675 189.68 234.143 189.996 234.535 190.404C234.935 190.812 235.243 191.3 235.459 191.868L233.947 192.3C233.731 191.724 233.399 191.272 232.951 190.944C232.511 190.616 231.995 190.452 231.403 190.452C230.883 190.452 230.415 190.58 229.999 190.836C229.583 191.084 229.255 191.436 229.015 191.892C228.775 192.348 228.655 192.864 228.655 193.44C228.655 194.016 228.779 194.548 229.027 195.036C229.275 195.516 229.627 195.9 230.083 196.188C230.539 196.468 231.079 196.608 231.703 196.608C232.343 196.608 232.915 196.464 233.419 196.176C233.931 195.88 234.355 195.484 234.691 194.988L235.579 195.624C235.203 196.4 234.639 197.016 233.887 197.472C233.143 197.92 232.295 198.144 231.343 198.144ZM236.529 189.024H238.161V198H236.529V189.024ZM239.682 191.712H241.314V198H239.682V191.712ZM240.498 190.752C240.242 190.752 240.018 190.66 239.826 190.476C239.642 190.292 239.55 190.068 239.55 189.804C239.55 189.54 239.642 189.316 239.826 189.132C240.018 188.948 240.242 188.856 240.498 188.856C240.762 188.856 240.986 188.948 241.17 189.132C241.362 189.316 241.458 189.54 241.458 189.804C241.458 190.068 241.362 190.292 241.17 190.476C240.986 190.66 240.762 190.752 240.498 190.752ZM245.93 198.144C245.29 198.144 244.71 198.008 244.19 197.736C243.678 197.456 243.274 197.068 242.978 196.572C242.682 196.068 242.534 195.492 242.534 194.844C242.534 194.212 242.678 193.648 242.966 193.152C243.254 192.656 243.654 192.268 244.166 191.988C244.678 191.708 245.254 191.568 245.894 191.568C246.566 191.568 247.142 191.724 247.622 192.036C248.11 192.34 248.47 192.756 248.702 193.284C248.942 193.804 249.034 194.376 248.978 195H243.23V194.16H248.018L247.418 194.688C247.466 194.296 247.438 193.94 247.334 193.62C247.238 193.3 247.066 193.048 246.818 192.864C246.57 192.672 246.262 192.576 245.894 192.576C245.566 192.576 245.266 192.66 244.994 192.828C244.73 192.988 244.518 193.232 244.358 193.56C244.206 193.888 244.13 194.284 244.13 194.748C244.13 195.18 244.218 195.556 244.394 195.876C244.578 196.196 244.826 196.44 245.138 196.608C245.45 196.776 245.798 196.86 246.182 196.86C246.598 196.86 246.99 196.772 247.358 196.596C247.726 196.42 248.05 196.18 248.33 195.876L248.99 196.284C248.878 196.548 248.686 196.824 248.414 197.112C248.142 197.4 247.79 197.644 247.358 197.844C246.926 198.044 246.45 198.144 245.93 198.144ZM250.205 191.712H251.729V193.26L251.501 192.948C251.693 192.524 251.985 192.188 252.377 191.94C252.769 191.692 253.225 191.568 253.745 191.568C254.225 191.568 254.637 191.656 254.981 191.832C255.325 192.008 255.593 192.28 255.785 192.648C255.985 193.016 256.085 193.488 256.085 194.064V198H254.453V194.268C254.453 193.948 254.401 193.684 254.297 193.476C254.201 193.26 254.061 193.1 253.877 192.996C253.693 192.892 253.473 192.84 253.217 192.84C252.929 192.84 252.681 192.904 252.473 193.032C252.265 193.16 252.105 193.332 251.993 193.548C251.889 193.764 251.837 194.004 251.837 194.268V198H250.205V191.712ZM259.871 198.144C259.271 198.144 258.795 197.956 258.443 197.58C258.091 197.204 257.915 196.7 257.915 196.068V192.168L258.647 192.9H256.931V192.12L257.255 192.012C257.527 191.908 257.763 191.748 257.963 191.532C258.163 191.308 258.327 191.004 258.455 190.62L258.563 190.104H259.547V192.276L258.911 191.712H261.503V192.9H258.911L259.547 192.384V195.996C259.547 196.316 259.635 196.568 259.811 196.752C259.987 196.936 260.219 197.028 260.507 197.028C260.659 197.028 260.823 197.012 260.999 196.98C261.175 196.948 261.335 196.908 261.479 196.86L261.623 197.736C261.415 197.856 261.151 197.952 260.831 198.024C260.519 198.104 260.199 198.144 259.871 198.144Z" fill="white"/>
<path d="M199.5 178.599C199.498 178.81 199.429 179.016 199.302 179.184C199.175 179.353 198.997 179.477 198.794 179.537L198.782 179.54L193.907 180.905L192.542 185.78L192.538 185.793C192.478 185.995 192.355 186.173 192.186 186.3C192.017 186.427 191.812 186.497 191.601 186.498H191.582C191.375 186.5 191.172 186.437 191.003 186.317C190.834 186.198 190.707 186.028 190.64 185.832L186.562 174.838C186.561 174.835 186.56 174.832 186.559 174.828C186.498 174.652 186.488 174.461 186.53 174.279C186.572 174.096 186.665 173.929 186.797 173.797C186.929 173.664 187.096 173.571 187.278 173.529C187.46 173.487 187.651 173.496 187.828 173.557L187.838 173.56L198.833 177.638C199.032 177.707 199.204 177.836 199.324 178.009C199.444 178.182 199.506 178.389 199.5 178.599Z" fill="#8F33EE"/>
<rect x="80.5" y="70.5" width="396" height="41" rx="7.5" fill="#1B1B1D"/>
<rect x="80.5" y="70.5" width="396" height="41" rx="7.5" stroke="#2B2B30"/>
<path d="M96.9566 86.524H98.0486V90.436L97.8686 90.184C98.0926 89.84 98.3926 89.568 98.7686 89.368C99.1526 89.168 99.5926 89.068 100.089 89.068C100.537 89.068 100.937 89.152 101.289 89.32C101.641 89.488 101.921 89.76 102.129 90.136C102.345 90.512 102.453 90.996 102.453 91.588V95.5H101.361V91.708C101.361 91.308 101.301 90.976 101.181 90.712C101.061 90.448 100.885 90.252 100.653 90.124C100.429 89.996 100.153 89.932 99.8246 89.932C99.4406 89.932 99.1166 90.016 98.8526 90.184C98.5886 90.344 98.3886 90.56 98.2526 90.832C98.1166 91.096 98.0486 91.388 98.0486 91.708V95.5H96.9566V86.524ZM106.289 95.644C105.729 95.644 105.285 95.472 104.957 95.128C104.637 94.784 104.477 94.324 104.477 93.748V89.536L104.969 90.028H103.445V89.476L103.841 89.404C104.105 89.356 104.305 89.256 104.441 89.104C104.577 88.944 104.669 88.696 104.717 88.36L104.825 87.604H105.569V89.584L105.077 89.212H107.669V90.028H105.077L105.569 89.656V93.7C105.569 94.068 105.665 94.356 105.857 94.564C106.057 94.764 106.329 94.864 106.673 94.864C106.841 94.864 107.013 94.844 107.189 94.804C107.365 94.764 107.533 94.712 107.693 94.648L107.789 95.272C107.605 95.384 107.377 95.472 107.105 95.536C106.841 95.608 106.569 95.644 106.289 95.644ZM110.777 95.644C110.217 95.644 109.773 95.472 109.445 95.128C109.125 94.784 108.965 94.324 108.965 93.748V89.536L109.457 90.028H107.933V89.476L108.329 89.404C108.593 89.356 108.793 89.256 108.929 89.104C109.065 88.944 109.157 88.696 109.205 88.36L109.313 87.604H110.057V89.584L109.565 89.212H112.157V90.028H109.565L110.057 89.656V93.7C110.057 94.068 110.153 94.356 110.345 94.564C110.545 94.764 110.817 94.864 111.161 94.864C111.329 94.864 111.501 94.844 111.677 94.804C111.853 94.764 112.021 94.712 112.181 94.648L112.277 95.272C112.093 95.384 111.865 95.472 111.593 95.536C111.329 95.608 111.057 95.644 110.777 95.644ZM113.375 89.212H114.407V90.784L114.239 90.58C114.487 90.1 114.831 89.728 115.271 89.464C115.719 89.2 116.227 89.068 116.795 89.068C117.395 89.068 117.935 89.208 118.415 89.488C118.895 89.768 119.271 90.16 119.543 90.664C119.823 91.16 119.963 91.724 119.963 92.356C119.963 92.988 119.823 93.556 119.543 94.06C119.271 94.556 118.895 94.944 118.415 95.224C117.935 95.504 117.395 95.644 116.795 95.644C116.243 95.644 115.751 95.52 115.319 95.272C114.895 95.024 114.551 94.676 114.287 94.228L114.467 94.012V97.996H113.375V89.212ZM116.663 94.804C117.079 94.804 117.455 94.704 117.791 94.504C118.127 94.304 118.387 94.02 118.571 93.652C118.763 93.276 118.859 92.844 118.859 92.356C118.859 91.868 118.763 91.44 118.571 91.072C118.387 90.696 118.127 90.408 117.791 90.208C117.455 90.008 117.079 89.908 116.663 89.908C116.247 89.908 115.871 90.008 115.535 90.208C115.199 90.408 114.935 90.696 114.743 91.072C114.559 91.44 114.467 91.868 114.467 92.356C114.467 92.844 114.559 93.276 114.743 93.652C114.935 94.02 115.199 94.304 115.535 94.504C115.871 94.704 116.247 94.804 116.663 94.804ZM123.406 95.644C122.902 95.644 122.442 95.56 122.026 95.392C121.618 95.216 121.278 94.992 121.006 94.72L121.294 94.06C121.558 94.308 121.866 94.508 122.218 94.66C122.578 94.812 122.958 94.888 123.358 94.888C123.79 94.888 124.138 94.796 124.402 94.612C124.674 94.42 124.81 94.156 124.81 93.82C124.81 93.548 124.698 93.332 124.474 93.172C124.258 93.004 123.906 92.864 123.418 92.752L123.202 92.704C122.458 92.536 121.926 92.312 121.606 92.032C121.286 91.744 121.126 91.36 121.126 90.88C121.126 90.488 121.222 90.156 121.414 89.884C121.614 89.612 121.882 89.408 122.218 89.272C122.562 89.136 122.95 89.068 123.382 89.068C123.846 89.068 124.274 89.144 124.666 89.296C125.066 89.44 125.398 89.628 125.662 89.86L125.386 90.532C125.146 90.324 124.846 90.156 124.486 90.028C124.134 89.892 123.782 89.824 123.43 89.824C123.03 89.824 122.714 89.904 122.482 90.064C122.25 90.224 122.134 90.468 122.134 90.796C122.134 91.06 122.234 91.268 122.434 91.42C122.642 91.564 122.99 91.692 123.478 91.804L123.694 91.852C124.446 92.02 124.986 92.256 125.314 92.56C125.65 92.864 125.818 93.26 125.818 93.748C125.818 94.148 125.71 94.492 125.494 94.78C125.286 95.06 124.998 95.276 124.63 95.428C124.27 95.572 123.862 95.644 123.406 95.644ZM127.802 95.62C127.61 95.62 127.446 95.552 127.31 95.416C127.174 95.28 127.106 95.116 127.106 94.924C127.106 94.74 127.174 94.58 127.31 94.444C127.446 94.3 127.61 94.228 127.802 94.228C127.994 94.228 128.158 94.3 128.294 94.444C128.43 94.58 128.498 94.74 128.498 94.924C128.498 95.116 128.43 95.28 128.294 95.416C128.158 95.552 127.994 95.62 127.802 95.62ZM127.802 91.012C127.61 91.012 127.446 90.944 127.31 90.808C127.174 90.672 127.106 90.508 127.106 90.316C127.106 90.132 127.174 89.972 127.31 89.836C127.446 89.692 127.61 89.62 127.802 89.62C127.994 89.62 128.158 89.692 128.294 89.836C128.43 89.972 128.498 90.132 128.498 90.316C128.498 90.508 128.43 90.672 128.294 90.808C128.158 90.944 127.994 91.012 127.802 91.012ZM133.072 86.284H133.948L130.48 96.268H129.604L133.072 86.284ZM136.353 86.284H137.229L133.761 96.268H132.885L136.353 86.284Z" fill="white" fill-opacity="0.5"/>
<path d="M137.817 89.212H138.933L140.613 94.54H140.325L141.957 89.212H142.689L144.285 94.6H143.997L145.689 89.212H146.649L144.537 95.5H143.697L142.113 90.244H142.401L140.793 95.5H139.929L137.817 89.212ZM147.204 89.212H148.32L150 94.54H149.712L151.344 89.212H152.076L153.672 94.6H153.384L155.076 89.212H156.036L153.924 95.5H153.084L151.5 90.244H151.788L150.18 95.5H149.316L147.204 89.212ZM156.59 89.212H157.706L159.386 94.54H159.098L160.73 89.212H161.462L163.058 94.6H162.77L164.462 89.212H165.422L163.31 95.5H162.47L160.886 90.244H161.174L159.566 95.5H158.702L156.59 89.212ZM166.4 95.62C166.208 95.62 166.044 95.552 165.908 95.416C165.772 95.28 165.704 95.116 165.704 94.924C165.704 94.74 165.772 94.58 165.908 94.444C166.044 94.3 166.208 94.228 166.4 94.228C166.592 94.228 166.756 94.3 166.892 94.444C167.028 94.58 167.096 94.74 167.096 94.924C167.096 95.116 167.028 95.28 166.892 95.416C166.756 95.552 166.592 95.62 166.4 95.62ZM171.249 95.644C170.649 95.644 170.109 95.504 169.629 95.224C169.149 94.944 168.769 94.556 168.489 94.06C168.217 93.556 168.081 92.988 168.081 92.356C168.081 91.724 168.217 91.16 168.489 90.664C168.769 90.16 169.149 89.768 169.629 89.488C170.109 89.208 170.649 89.068 171.249 89.068C171.801 89.068 172.289 89.192 172.713 89.44C173.145 89.688 173.493 90.036 173.757 90.484L173.577 90.7V86.524H174.669V95.5H173.649V93.916L173.817 94.132C173.569 94.604 173.221 94.976 172.773 95.248C172.325 95.512 171.817 95.644 171.249 95.644ZM171.381 94.804C171.797 94.804 172.173 94.704 172.509 94.504C172.845 94.304 173.105 94.02 173.289 93.652C173.481 93.276 173.577 92.844 173.577 92.356C173.577 91.868 173.481 91.44 173.289 91.072C173.105 90.696 172.845 90.408 172.509 90.208C172.173 90.008 171.797 89.908 171.381 89.908C170.965 89.908 170.589 90.008 170.253 90.208C169.917 90.408 169.653 90.696 169.461 91.072C169.277 91.44 169.185 91.868 169.185 92.356C169.185 92.844 169.277 93.276 169.461 93.652C169.653 94.02 169.917 94.304 170.253 94.504C170.589 94.704 170.965 94.804 171.381 94.804ZM176.48 89.212H177.5V91.276L177.392 91.168C177.504 90.72 177.692 90.332 177.956 90.004C178.228 89.668 178.552 89.432 178.928 89.296C179.304 89.152 179.704 89.14 180.128 89.26L179.984 90.16C179.528 90.104 179.116 90.16 178.748 90.328C178.388 90.496 178.1 90.756 177.884 91.108C177.676 91.46 177.572 91.868 177.572 92.332V95.5H176.48V89.212ZM183.78 95.644C183.14 95.644 182.564 95.504 182.052 95.224C181.548 94.944 181.152 94.556 180.864 94.06C180.584 93.556 180.444 92.988 180.444 92.356C180.444 91.724 180.584 91.16 180.864 90.664C181.152 90.16 181.548 89.768 182.052 89.488C182.564 89.208 183.14 89.068 183.78 89.068C184.42 89.068 184.992 89.208 185.496 89.488C186 89.768 186.396 90.16 186.684 90.664C186.972 91.16 187.116 91.724 187.116 92.356C187.116 92.988 186.972 93.556 186.684 94.06C186.396 94.556 186 94.944 185.496 95.224C184.992 95.504 184.42 95.644 183.78 95.644ZM183.78 94.828C184.212 94.828 184.596 94.724 184.932 94.516C185.276 94.3 185.54 94.004 185.724 93.628C185.916 93.252 186.012 92.828 186.012 92.356C186.012 91.884 185.916 91.46 185.724 91.084C185.54 90.708 185.276 90.416 184.932 90.208C184.596 89.992 184.212 89.884 183.78 89.884C183.348 89.884 182.96 89.992 182.616 90.208C182.28 90.416 182.016 90.708 181.824 91.084C181.64 91.46 181.548 91.884 181.548 92.356C181.548 92.828 181.64 93.252 181.824 93.628C182.016 94.004 182.28 94.3 182.616 94.516C182.96 94.724 183.348 94.828 183.78 94.828ZM188.562 89.212H189.594V90.784L189.426 90.58C189.674 90.1 190.018 89.728 190.458 89.464C190.906 89.2 191.414 89.068 191.982 89.068C192.582 89.068 193.122 89.208 193.602 89.488C194.082 89.768 194.458 90.16 194.73 90.664C195.01 91.16 195.15 91.724 195.15 92.356C195.15 92.988 195.01 93.556 194.73 94.06C194.458 94.556 194.082 94.944 193.602 95.224C193.122 95.504 192.582 95.644 191.982 95.644C191.43 95.644 190.938 95.52 190.506 95.272C190.082 95.024 189.738 94.676 189.474 94.228L189.654 94.012V97.996H188.562V89.212ZM191.85 94.804C192.266 94.804 192.642 94.704 192.978 94.504C193.314 94.304 193.574 94.02 193.758 93.652C193.95 93.276 194.046 92.844 194.046 92.356C194.046 91.868 193.95 91.44 193.758 91.072C193.574 90.696 193.314 90.408 192.978 90.208C192.642 90.008 192.266 89.908 191.85 89.908C191.434 89.908 191.058 90.008 190.722 90.208C190.386 90.408 190.122 90.696 189.93 91.072C189.746 91.44 189.654 91.868 189.654 92.356C189.654 92.844 189.746 93.276 189.93 93.652C190.122 94.02 190.386 94.304 190.722 94.504C191.058 94.704 191.434 94.804 191.85 94.804ZM199.904 95.644C199.336 95.644 198.828 95.512 198.38 95.248C197.94 94.984 197.596 94.612 197.348 94.132L197.516 93.928V95.5H196.484V86.524H197.576V90.7L197.396 90.484C197.66 90.036 198.004 89.688 198.428 89.44C198.86 89.192 199.352 89.068 199.904 89.068C200.504 89.068 201.044 89.208 201.524 89.488C202.004 89.768 202.38 90.16 202.652 90.664C202.932 91.16 203.072 91.724 203.072 92.356C203.072 92.988 202.932 93.556 202.652 94.06C202.38 94.556 202.004 94.944 201.524 95.224C201.044 95.504 200.504 95.644 199.904 95.644ZM199.772 94.804C200.188 94.804 200.564 94.704 200.9 94.504C201.236 94.304 201.496 94.02 201.68 93.652C201.872 93.276 201.968 92.844 201.968 92.356C201.968 91.868 201.872 91.44 201.68 91.072C201.496 90.696 201.236 90.408 200.9 90.208C200.564 90.008 200.188 89.908 199.772 89.908C199.356 89.908 198.98 90.008 198.644 90.208C198.308 90.408 198.044 90.696 197.852 91.072C197.668 91.44 197.576 91.868 197.576 92.356C197.576 92.844 197.668 93.276 197.852 93.652C198.044 94.02 198.308 94.304 198.644 94.504C198.98 94.704 199.356 94.804 199.772 94.804ZM207.499 95.644C206.859 95.644 206.283 95.504 205.771 95.224C205.267 94.944 204.871 94.556 204.583 94.06C204.303 93.556 204.163 92.988 204.163 92.356C204.163 91.724 204.303 91.16 204.583 90.664C204.871 90.16 205.267 89.768 205.771 89.488C206.283 89.208 206.859 89.068 207.499 89.068C208.139 89.068 208.711 89.208 209.215 89.488C209.719 89.768 210.115 90.16 210.403 90.664C210.691 91.16 210.835 91.724 210.835 92.356C210.835 92.988 210.691 93.556 210.403 94.06C210.115 94.556 209.719 94.944 209.215 95.224C208.711 95.504 208.139 95.644 207.499 95.644ZM207.499 94.828C207.931 94.828 208.315 94.724 208.651 94.516C208.995 94.3 209.259 94.004 209.443 93.628C209.635 93.252 209.731 92.828 209.731 92.356C209.731 91.884 209.635 91.46 209.443 91.084C209.259 90.708 208.995 90.416 208.651 90.208C208.315 89.992 207.931 89.884 207.499 89.884C207.067 89.884 206.679 89.992 206.335 90.208C205.999 90.416 205.735 90.708 205.543 91.084C205.359 91.46 205.267 91.884 205.267 92.356C205.267 92.828 205.359 93.252 205.543 93.628C205.735 94.004 205.999 94.3 206.335 94.516C206.679 94.724 207.067 94.828 207.499 94.828ZM213.644 91.948H214.124L215.876 89.212H216.884L214.784 92.476L214.208 92.632L212.324 95.5H211.316L213.644 91.948ZM213.92 92.572L213.56 92.548L211.388 89.212H212.588L214.388 91.972L214.712 91.948L217.064 95.5H215.864L213.92 92.572ZM218.607 95.62C218.415 95.62 218.251 95.552 218.115 95.416C217.979 95.28 217.911 95.116 217.911 94.924C217.911 94.74 217.979 94.58 218.115 94.444C218.251 94.3 218.415 94.228 218.607 94.228C218.799 94.228 218.963 94.3 219.099 94.444C219.235 94.58 219.303 94.74 219.303 94.924C219.303 95.116 219.235 95.28 219.099 95.416C218.963 95.552 218.799 95.62 218.607 95.62ZM223.516 95.644C222.908 95.644 222.356 95.504 221.86 95.224C221.372 94.936 220.984 94.544 220.696 94.048C220.416 93.544 220.276 92.98 220.276 92.356C220.276 91.724 220.416 91.16 220.696 90.664C220.984 90.16 221.376 89.768 221.872 89.488C222.376 89.208 222.94 89.068 223.564 89.068C224.036 89.068 224.472 89.148 224.872 89.308C225.272 89.468 225.616 89.704 225.904 90.016C226.192 90.32 226.408 90.688 226.552 91.12L225.652 91.396C225.468 90.924 225.196 90.56 224.836 90.304C224.476 90.04 224.06 89.908 223.588 89.908C223.164 89.908 222.784 90.008 222.448 90.208C222.112 90.408 221.848 90.688 221.656 91.048C221.464 91.408 221.368 91.816 221.368 92.272C221.368 92.736 221.464 93.156 221.656 93.532C221.856 93.908 222.132 94.204 222.484 94.42C222.844 94.628 223.256 94.732 223.72 94.732C224.208 94.732 224.664 94.612 225.088 94.372C225.52 94.132 225.86 93.808 226.108 93.4L226.6 93.7C226.472 94.028 226.264 94.34 225.976 94.636C225.688 94.932 225.332 95.176 224.908 95.368C224.484 95.552 224.02 95.644 223.516 95.644ZM230.89 95.644C230.25 95.644 229.674 95.504 229.162 95.224C228.658 94.944 228.262 94.556 227.974 94.06C227.694 93.556 227.554 92.988 227.554 92.356C227.554 91.724 227.694 91.16 227.974 90.664C228.262 90.16 228.658 89.768 229.162 89.488C229.674 89.208 230.25 89.068 230.89 89.068C231.53 89.068 232.102 89.208 232.606 89.488C233.11 89.768 233.506 90.16 233.794 90.664C234.082 91.16 234.226 91.724 234.226 92.356C234.226 92.988 234.082 93.556 233.794 94.06C233.506 94.556 233.11 94.944 232.606 95.224C232.102 95.504 231.53 95.644 230.89 95.644ZM230.89 94.828C231.322 94.828 231.706 94.724 232.042 94.516C232.386 94.3 232.65 94.004 232.834 93.628C233.026 93.252 233.122 92.828 233.122 92.356C233.122 91.884 233.026 91.46 232.834 91.084C232.65 90.708 232.386 90.416 232.042 90.208C231.706 89.992 231.322 89.884 230.89 89.884C230.458 89.884 230.07 89.992 229.726 90.208C229.39 90.416 229.126 90.708 228.934 91.084C228.75 91.46 228.658 91.884 228.658 92.356C228.658 92.828 228.75 93.252 228.934 93.628C229.126 94.004 229.39 94.3 229.726 94.516C230.07 94.724 230.458 94.828 230.89 94.828ZM235.671 89.212H236.703V90.508L236.535 90.256C236.759 89.896 237.059 89.608 237.435 89.392C237.819 89.176 238.263 89.068 238.767 89.068C239.287 89.068 239.735 89.188 240.111 89.428C240.495 89.668 240.767 90.04 240.927 90.544L240.639 90.448C240.783 90.176 240.967 89.936 241.191 89.728C241.423 89.52 241.695 89.36 242.007 89.248C242.327 89.128 242.679 89.068 243.063 89.068C243.503 89.068 243.895 89.156 244.239 89.332C244.583 89.5 244.855 89.776 245.055 90.16C245.263 90.536 245.367 91.02 245.367 91.612V95.5H244.275V91.732C244.275 91.332 244.219 91 244.107 90.736C243.995 90.464 243.827 90.264 243.603 90.136C243.387 90 243.119 89.932 242.799 89.932C242.431 89.932 242.115 90.016 241.851 90.184C241.595 90.352 241.399 90.572 241.263 90.844C241.135 91.116 241.071 91.412 241.071 91.732V95.5H239.979V91.732C239.979 91.332 239.923 91 239.811 90.736C239.699 90.464 239.531 90.264 239.307 90.136C239.091 90 238.823 89.932 238.503 89.932C238.135 89.932 237.819 90.016 237.555 90.184C237.291 90.352 237.091 90.572 236.955 90.844C236.827 91.116 236.763 91.412 236.763 91.732V95.5H235.671V89.212ZM250.013 86.284H250.889L247.421 96.268H246.545L250.013 86.284ZM250.877 97.372C251.285 97.308 251.589 97.152 251.789 96.904C251.997 96.656 252.101 96.296 252.101 95.824V89.212H253.193V95.632C253.193 96.392 253.001 96.964 252.617 97.348C252.241 97.74 251.661 97.956 250.877 97.996V97.372ZM252.653 87.964C252.461 87.964 252.297 87.9 252.161 87.772C252.033 87.636 251.969 87.472 251.969 87.28C251.969 87.088 252.033 86.928 252.161 86.8C252.297 86.664 252.461 86.596 252.653 86.596C252.845 86.596 253.005 86.664 253.133 86.8C253.269 86.928 253.337 87.088 253.337 87.28C253.337 87.472 253.269 87.636 253.133 87.772C253.005 87.9 252.845 87.964 252.653 87.964ZM258.007 95.644C257.399 95.644 256.843 95.54 256.339 95.332C255.843 95.124 255.447 94.828 255.151 94.444C254.863 94.052 254.719 93.604 254.719 93.1C254.719 92.596 254.863 92.156 255.151 91.78C255.447 91.404 255.843 91.116 256.339 90.916C256.843 90.716 257.399 90.616 258.007 90.616C258.615 90.616 259.171 90.716 259.675 90.916C260.179 91.116 260.575 91.404 260.863 91.78C261.159 92.156 261.307 92.596 261.307 93.1C261.307 93.604 261.159 94.052 260.863 94.444C260.575 94.828 260.179 95.124 259.675 95.332C259.179 95.54 258.623 95.644 258.007 95.644ZM258.007 94.816C258.407 94.816 258.771 94.748 259.099 94.612C259.427 94.468 259.687 94.264 259.879 94C260.071 93.728 260.167 93.416 260.167 93.064C260.167 92.712 260.071 92.404 259.879 92.14C259.687 91.868 259.427 91.66 259.099 91.516C258.771 91.372 258.407 91.3 258.007 91.3C257.607 91.3 257.243 91.372 256.915 91.516C256.587 91.66 256.327 91.864 256.135 92.128C255.951 92.392 255.859 92.704 255.859 93.064C255.859 93.416 255.951 93.728 256.135 94C256.327 94.264 256.587 94.468 256.915 94.612C257.243 94.748 257.607 94.816 258.007 94.816ZM258.019 91.072C257.451 91.072 256.947 90.98 256.507 90.796C256.067 90.612 255.723 90.356 255.475 90.028C255.235 89.692 255.115 89.308 255.115 88.876C255.115 88.428 255.239 88.036 255.487 87.7C255.735 87.356 256.075 87.092 256.507 86.908C256.947 86.716 257.447 86.62 258.007 86.62C258.567 86.62 259.067 86.716 259.507 86.908C259.947 87.092 260.291 87.356 260.539 87.7C260.787 88.036 260.911 88.428 260.911 88.876C260.911 89.308 260.787 89.692 260.539 90.028C260.299 90.356 259.959 90.612 259.519 90.796C259.079 90.98 258.579 91.072 258.019 91.072ZM258.007 90.508C258.359 90.508 258.675 90.444 258.955 90.316C259.235 90.188 259.455 90.008 259.615 89.776C259.775 89.544 259.855 89.28 259.855 88.984C259.855 88.52 259.683 88.148 259.339 87.868C258.995 87.588 258.551 87.448 258.007 87.448C257.655 87.448 257.339 87.512 257.059 87.64C256.779 87.76 256.559 87.936 256.399 88.168C256.247 88.4 256.171 88.672 256.171 88.984C256.171 89.28 256.251 89.544 256.411 89.776C256.571 90.008 256.787 90.188 257.059 90.316C257.339 90.444 257.655 90.508 258.007 90.508ZM262.824 89.212H263.856V90.784L263.688 90.58C263.936 90.1 264.28 89.728 264.72 89.464C265.168 89.2 265.676 89.068 266.244 89.068C266.844 89.068 267.384 89.208 267.864 89.488C268.344 89.768 268.72 90.16 268.992 90.664C269.272 91.16 269.412 91.724 269.412 92.356C269.412 92.988 269.272 93.556 268.992 94.06C268.72 94.556 268.344 94.944 267.864 95.224C267.384 95.504 266.844 95.644 266.244 95.644C265.692 95.644 265.2 95.52 264.768 95.272C264.344 95.024 264 94.676 263.736 94.228L263.916 94.012V97.996H262.824V89.212ZM266.112 94.804C266.528 94.804 266.904 94.704 267.24 94.504C267.576 94.304 267.836 94.02 268.02 93.652C268.212 93.276 268.308 92.844 268.308 92.356C268.308 91.868 268.212 91.44 268.02 91.072C267.836 90.696 267.576 90.408 267.24 90.208C266.904 90.008 266.528 89.908 266.112 89.908C265.696 89.908 265.32 90.008 264.984 90.208C264.648 90.408 264.384 90.696 264.192 91.072C264.008 91.44 263.916 91.868 263.916 92.356C263.916 92.844 264.008 93.276 264.192 93.652C264.384 94.02 264.648 94.304 264.984 94.504C265.32 94.704 265.696 94.804 266.112 94.804ZM274.523 87.292L274.955 87.388L271.055 92.8L270.887 92.512H277.019V93.424H270.239V92.632L274.403 86.764H275.639V95.5H274.523V87.292ZM280.62 95.644C279.892 95.644 279.284 95.468 278.796 95.116C278.308 94.764 277.976 94.252 277.8 93.58L278.508 93.448C278.676 93.872 278.932 94.2 279.276 94.432C279.628 94.656 280.04 94.768 280.512 94.768C280.896 94.768 281.248 94.692 281.568 94.54C281.896 94.38 282.156 94.152 282.348 93.856C282.54 93.552 282.636 93.2 282.636 92.8C282.636 92.448 282.556 92.128 282.396 91.84C282.236 91.552 281.996 91.324 281.676 91.156C281.356 90.988 280.968 90.904 280.512 90.904C280.256 90.904 280.028 90.924 279.828 90.964L279.456 90.448L282.384 87.256L282.408 87.676H278.112V86.764H283.476V87.232L280.488 90.484L279.864 90.184C279.968 90.16 280.116 90.14 280.308 90.124C280.508 90.108 280.692 90.1 280.86 90.1C281.468 90.1 281.992 90.22 282.432 90.46C282.872 90.7 283.204 91.024 283.428 91.432C283.652 91.832 283.764 92.284 283.764 92.788C283.764 93.364 283.62 93.868 283.332 94.3C283.052 94.732 282.672 95.064 282.192 95.296C281.72 95.528 281.196 95.644 280.62 95.644ZM288.65 95.644C288.082 95.644 287.574 95.512 287.126 95.248C286.686 94.984 286.342 94.612 286.094 94.132L286.262 93.928V95.5H285.23V86.524H286.322V90.7L286.142 90.484C286.406 90.036 286.75 89.688 287.174 89.44C287.606 89.192 288.098 89.068 288.65 89.068C289.25 89.068 289.79 89.208 290.27 89.488C290.75 89.768 291.126 90.16 291.398 90.664C291.678 91.16 291.818 91.724 291.818 92.356C291.818 92.988 291.678 93.556 291.398 94.06C291.126 94.556 290.75 94.944 290.27 95.224C289.79 95.504 289.25 95.644 288.65 95.644ZM288.518 94.804C288.934 94.804 289.31 94.704 289.646 94.504C289.982 94.304 290.242 94.02 290.426 93.652C290.618 93.276 290.714 92.844 290.714 92.356C290.714 91.868 290.618 91.44 290.426 91.072C290.242 90.696 289.982 90.408 289.646 90.208C289.31 90.008 288.934 89.908 288.518 89.908C288.102 89.908 287.726 90.008 287.39 90.208C287.054 90.408 286.79 90.696 286.598 91.072C286.414 91.44 286.322 91.868 286.322 92.356C286.322 92.844 286.414 93.276 286.598 93.652C286.79 94.02 287.054 94.304 287.39 94.504C287.726 94.704 288.102 94.804 288.518 94.804ZM294.469 87.532L295.285 87.712L292.777 88.948L292.537 88.372L294.829 86.764H295.597V95.5H294.469V87.532ZM300.427 86.284H301.303L297.835 96.268H296.959L300.427 86.284ZM304.432 98.14C303.832 98.14 303.324 98.064 302.908 97.912C302.492 97.768 302.18 97.568 301.972 97.312C301.772 97.064 301.672 96.78 301.672 96.46C301.672 96.124 301.772 95.828 301.972 95.572C302.18 95.316 302.48 95.112 302.872 94.96L303.388 95.188C303.124 95.324 302.928 95.472 302.8 95.632C302.68 95.8 302.62 96.004 302.62 96.244C302.62 96.46 302.688 96.652 302.824 96.82C302.968 96.996 303.18 97.136 303.46 97.24C303.74 97.344 304.08 97.396 304.48 97.396C304.952 97.396 305.356 97.336 305.692 97.216C306.028 97.104 306.28 96.948 306.448 96.748C306.624 96.556 306.712 96.332 306.712 96.076C306.712 95.796 306.604 95.58 306.388 95.428C306.172 95.268 305.856 95.188 305.44 95.188H303.388C302.972 95.188 302.652 95.096 302.428 94.912C302.212 94.728 302.104 94.492 302.104 94.204C302.104 93.98 302.192 93.768 302.368 93.568C302.544 93.368 302.808 93.168 303.16 92.968L303.244 92.92L303.784 93.232C303.488 93.384 303.284 93.512 303.172 93.616C303.068 93.712 303.016 93.816 303.016 93.928C303.016 94.056 303.056 94.152 303.136 94.216C303.224 94.272 303.364 94.3 303.556 94.3H305.692C306.364 94.3 306.884 94.452 307.252 94.756C307.628 95.052 307.816 95.452 307.816 95.956C307.816 96.372 307.684 96.744 307.42 97.072C307.156 97.408 306.768 97.668 306.256 97.852C305.752 98.044 305.144 98.14 304.432 98.14ZM304.48 93.46C303.976 93.46 303.524 93.368 303.124 93.184C302.732 92.992 302.424 92.732 302.2 92.404C301.976 92.068 301.864 91.688 301.864 91.264C301.864 90.84 301.976 90.46 302.2 90.124C302.424 89.788 302.732 89.528 303.124 89.344C303.524 89.16 303.976 89.068 304.48 89.068C304.984 89.068 305.432 89.16 305.824 89.344C306.224 89.528 306.536 89.788 306.76 90.124C306.984 90.46 307.096 90.84 307.096 91.264C307.096 91.688 306.984 92.068 306.76 92.404C306.544 92.732 306.236 92.992 305.836 93.184C305.444 93.368 304.992 93.46 304.48 93.46ZM304.48 92.716C304.8 92.716 305.08 92.656 305.32 92.536C305.56 92.416 305.744 92.248 305.872 92.032C306.008 91.808 306.076 91.552 306.076 91.264C306.076 90.832 305.928 90.484 305.632 90.22C305.344 89.948 304.96 89.812 304.48 89.812C304.16 89.812 303.88 89.872 303.64 89.992C303.4 90.112 303.212 90.284 303.076 90.508C302.948 90.724 302.884 90.976 302.884 91.264C302.884 91.696 303.028 92.048 303.316 92.32C303.612 92.584 304 92.716 304.48 92.716ZM305.704 89.44C305.952 89.36 306.272 89.292 306.664 89.236C307.056 89.172 307.424 89.14 307.768 89.14V90.028H305.8L305.704 89.44ZM309.043 89.212H310.063V91.276L309.955 91.168C310.067 90.72 310.255 90.332 310.519 90.004C310.791 89.668 311.115 89.432 311.491 89.296C311.867 89.152 312.267 89.14 312.691 89.26L312.547 90.16C312.091 90.104 311.679 90.16 311.311 90.328C310.951 90.496 310.663 90.756 310.447 91.108C310.239 91.46 310.135 91.868 310.135 92.332V95.5H309.043V89.212ZM315.225 95.644C314.569 95.644 314.045 95.488 313.653 95.176C313.269 94.856 313.077 94.42 313.077 93.868C313.077 93.452 313.189 93.1 313.413 92.812C313.645 92.524 313.957 92.308 314.349 92.164C314.749 92.02 315.201 91.948 315.705 91.948H317.709V92.644H315.849C315.249 92.644 314.805 92.74 314.517 92.932C314.229 93.124 314.085 93.408 314.085 93.784C314.085 94.144 314.209 94.428 314.457 94.636C314.705 94.844 315.041 94.948 315.465 94.948C315.833 94.948 316.161 94.872 316.449 94.72C316.745 94.568 316.973 94.364 317.133 94.108C317.301 93.852 317.385 93.576 317.385 93.28V91.624C317.385 91.064 317.241 90.644 316.953 90.364C316.673 90.076 316.281 89.932 315.777 89.932C315.345 89.932 314.961 90.028 314.625 90.22C314.297 90.412 314.013 90.684 313.773 91.036L313.305 90.676C313.521 90.196 313.861 89.808 314.325 89.512C314.789 89.216 315.333 89.068 315.957 89.068C316.477 89.068 316.921 89.164 317.289 89.356C317.665 89.548 317.953 89.836 318.153 90.22C318.353 90.596 318.453 91.056 318.453 91.6V95.5H317.445V94.168L317.601 94.432C317.385 94.8 317.073 95.096 316.665 95.32C316.265 95.536 315.785 95.644 315.225 95.644ZM320.199 89.212H321.231V90.508L321.063 90.256C321.287 89.888 321.591 89.6 321.975 89.392C322.359 89.176 322.811 89.068 323.331 89.068C323.779 89.068 324.179 89.152 324.531 89.32C324.883 89.488 325.163 89.76 325.371 90.136C325.587 90.512 325.695 90.996 325.695 91.588V95.5H324.603V91.708C324.603 91.308 324.543 90.976 324.423 90.712C324.303 90.448 324.127 90.252 323.895 90.124C323.671 89.996 323.395 89.932 323.067 89.932C322.683 89.932 322.359 90.016 322.095 90.184C321.831 90.344 321.631 90.56 321.495 90.832C321.359 91.096 321.291 91.388 321.291 91.708V95.5H320.199V89.212ZM329.531 95.644C328.971 95.644 328.527 95.472 328.199 95.128C327.879 94.784 327.719 94.324 327.719 93.748V89.536L328.211 90.028H326.687V89.476L327.083 89.404C327.347 89.356 327.547 89.256 327.683 89.104C327.819 88.944 327.911 88.696 327.959 88.36L328.067 87.604H328.811V89.584L328.319 89.212H330.911V90.028H328.319L328.811 89.656V93.7C328.811 94.068 328.907 94.356 329.099 94.564C329.299 94.764 329.571 94.864 329.915 94.864C330.083 94.864 330.255 94.844 330.431 94.804C330.607 94.764 330.775 94.712 330.935 94.648L331.031 95.272C330.847 95.384 330.619 95.472 330.347 95.536C330.083 95.608 329.811 95.644 329.531 95.644ZM335.549 95.644C334.981 95.644 334.473 95.512 334.025 95.248C333.585 94.984 333.241 94.612 332.993 94.132L333.161 93.928V95.5H332.129V86.524H333.221V90.7L333.041 90.484C333.305 90.036 333.649 89.688 334.073 89.44C334.505 89.192 334.997 89.068 335.549 89.068C336.149 89.068 336.689 89.208 337.169 89.488C337.649 89.768 338.025 90.16 338.297 90.664C338.577 91.16 338.717 91.724 338.717 92.356C338.717 92.988 338.577 93.556 338.297 94.06C338.025 94.556 337.649 94.944 337.169 95.224C336.689 95.504 336.149 95.644 335.549 95.644ZM335.417 94.804C335.833 94.804 336.209 94.704 336.545 94.504C336.881 94.304 337.141 94.02 337.325 93.652C337.517 93.276 337.613 92.844 337.613 92.356C337.613 91.868 337.517 91.44 337.325 91.072C337.141 90.696 336.881 90.408 336.545 90.208C336.209 90.008 335.833 89.908 335.417 89.908C335.001 89.908 334.625 90.008 334.289 90.208C333.953 90.408 333.689 90.696 333.497 91.072C333.313 91.44 333.221 91.868 333.221 92.356C333.221 92.844 333.313 93.276 333.497 93.652C333.689 94.02 333.953 94.304 334.289 94.504C334.625 94.704 335.001 94.804 335.417 94.804ZM343.144 95.644C342.504 95.644 341.928 95.504 341.416 95.224C340.912 94.944 340.516 94.556 340.228 94.06C339.948 93.556 339.808 92.988 339.808 92.356C339.808 91.724 339.948 91.16 340.228 90.664C340.516 90.16 340.912 89.768 341.416 89.488C341.928 89.208 342.504 89.068 343.144 89.068C343.784 89.068 344.356 89.208 344.86 89.488C345.364 89.768 345.76 90.16 346.048 90.664C346.336 91.16 346.48 91.724 346.48 92.356C346.48 92.988 346.336 93.556 346.048 94.06C345.76 94.556 345.364 94.944 344.86 95.224C344.356 95.504 343.784 95.644 343.144 95.644ZM343.144 94.828C343.576 94.828 343.96 94.724 344.296 94.516C344.64 94.3 344.904 94.004 345.088 93.628C345.28 93.252 345.376 92.828 345.376 92.356C345.376 91.884 345.28 91.46 345.088 91.084C344.904 90.708 344.64 90.416 344.296 90.208C343.96 89.992 343.576 89.884 343.144 89.884C342.712 89.884 342.324 89.992 341.98 90.208C341.644 90.416 341.38 90.708 341.188 91.084C341.004 91.46 340.912 91.884 340.912 92.356C340.912 92.828 341.004 93.252 341.188 93.628C341.38 94.004 341.644 94.3 341.98 94.516C342.324 94.724 342.712 94.828 343.144 94.828ZM349.992 95.644C349.432 95.644 348.988 95.472 348.66 95.128C348.34 94.784 348.18 94.324 348.18 93.748V89.536L348.672 90.028H347.148V89.476L347.544 89.404C347.808 89.356 348.008 89.256 348.144 89.104C348.28 88.944 348.372 88.696 348.42 88.36L348.528 87.604H349.272V89.584L348.78 89.212H351.372V90.028H348.78L349.272 89.656V93.7C349.272 94.068 349.368 94.356 349.56 94.564C349.76 94.764 350.032 94.864 350.376 94.864C350.544 94.864 350.716 94.844 350.892 94.804C351.068 94.764 351.236 94.712 351.396 94.648L351.492 95.272C351.308 95.384 351.08 95.472 350.808 95.536C350.544 95.608 350.272 95.644 349.992 95.644ZM352.447 91.54H355.603V92.38H352.447V91.54ZM360.756 95.644C360.188 95.644 359.68 95.512 359.232 95.248C358.792 94.984 358.448 94.612 358.2 94.132L358.368 93.928V95.5H357.336V86.524H358.428V90.7L358.248 90.484C358.512 90.036 358.856 89.688 359.28 89.44C359.712 89.192 360.204 89.068 360.756 89.068C361.356 89.068 361.896 89.208 362.376 89.488C362.856 89.768 363.232 90.16 363.504 90.664C363.784 91.16 363.924 91.724 363.924 92.356C363.924 92.988 363.784 93.556 363.504 94.06C363.232 94.556 362.856 94.944 362.376 95.224C361.896 95.504 361.356 95.644 360.756 95.644ZM360.624 94.804C361.04 94.804 361.416 94.704 361.752 94.504C362.088 94.304 362.348 94.02 362.532 93.652C362.724 93.276 362.82 92.844 362.82 92.356C362.82 91.868 362.724 91.44 362.532 91.072C362.348 90.696 362.088 90.408 361.752 90.208C361.416 90.008 361.04 89.908 360.624 89.908C360.208 89.908 359.832 90.008 359.496 90.208C359.16 90.408 358.896 90.696 358.704 91.072C358.52 91.44 358.428 91.868 358.428 92.356C358.428 92.844 358.52 93.276 358.704 93.652C358.896 94.02 359.16 94.304 359.496 94.504C359.832 94.704 360.208 94.804 360.624 94.804ZM365.375 89.212H366.395V91.276L366.287 91.168C366.399 90.72 366.587 90.332 366.851 90.004C367.123 89.668 367.447 89.432 367.823 89.296C368.199 89.152 368.599 89.14 369.023 89.26L368.879 90.16C368.423 90.104 368.011 90.16 367.643 90.328C367.283 90.496 366.995 90.756 366.779 91.108C366.571 91.46 366.467 91.868 366.467 92.332V95.5H365.375V89.212ZM371.557 95.644C370.901 95.644 370.377 95.488 369.985 95.176C369.601 94.856 369.409 94.42 369.409 93.868C369.409 93.452 369.521 93.1 369.745 92.812C369.977 92.524 370.289 92.308 370.681 92.164C371.081 92.02 371.533 91.948 372.037 91.948H374.041V92.644H372.181C371.581 92.644 371.137 92.74 370.849 92.932C370.561 93.124 370.417 93.408 370.417 93.784C370.417 94.144 370.541 94.428 370.789 94.636C371.037 94.844 371.373 94.948 371.797 94.948C372.165 94.948 372.493 94.872 372.781 94.72C373.077 94.568 373.305 94.364 373.465 94.108C373.633 93.852 373.717 93.576 373.717 93.28V91.624C373.717 91.064 373.573 90.644 373.285 90.364C373.005 90.076 372.613 89.932 372.109 89.932C371.677 89.932 371.293 90.028 370.957 90.22C370.629 90.412 370.345 90.684 370.105 91.036L369.637 90.676C369.853 90.196 370.193 89.808 370.657 89.512C371.121 89.216 371.665 89.068 372.289 89.068C372.809 89.068 373.253 89.164 373.621 89.356C373.997 89.548 374.285 89.836 374.485 90.22C374.685 90.596 374.785 91.056 374.785 91.6V95.5H373.777V94.168L373.933 94.432C373.717 94.8 373.405 95.096 372.997 95.32C372.597 95.536 372.117 95.644 371.557 95.644ZM376.531 89.212H377.563V90.508L377.395 90.256C377.619 89.888 377.923 89.6 378.307 89.392C378.691 89.176 379.143 89.068 379.663 89.068C380.111 89.068 380.511 89.152 380.863 89.32C381.215 89.488 381.495 89.76 381.703 90.136C381.919 90.512 382.027 90.996 382.027 91.588V95.5H380.935V91.708C380.935 91.308 380.875 90.976 380.755 90.712C380.635 90.448 380.459 90.252 380.227 90.124C380.003 89.996 379.727 89.932 379.399 89.932C379.015 89.932 378.691 90.016 378.427 90.184C378.163 90.344 377.963 90.56 377.827 90.832C377.691 91.096 377.623 91.388 377.623 91.708V95.5H376.531V89.212ZM386.581 95.644C385.981 95.644 385.441 95.504 384.961 95.224C384.481 94.944 384.101 94.556 383.821 94.06C383.549 93.556 383.413 92.988 383.413 92.356C383.413 91.724 383.549 91.16 383.821 90.664C384.101 90.16 384.481 89.768 384.961 89.488C385.441 89.208 385.981 89.068 386.581 89.068C387.133 89.068 387.621 89.192 388.045 89.44C388.477 89.688 388.825 90.036 389.089 90.484L388.909 90.7V86.524H390.001V95.5H388.981V93.916L389.149 94.132C388.901 94.604 388.553 94.976 388.105 95.248C387.657 95.512 387.149 95.644 386.581 95.644ZM386.713 94.804C387.129 94.804 387.505 94.704 387.841 94.504C388.177 94.304 388.437 94.02 388.621 93.652C388.813 93.276 388.909 92.844 388.909 92.356C388.909 91.868 388.813 91.44 388.621 91.072C388.437 90.696 388.177 90.408 387.841 90.208C387.505 90.008 387.129 89.908 386.713 89.908C386.297 89.908 385.921 90.008 385.585 90.208C385.249 90.408 384.985 90.696 384.793 91.072C384.609 91.44 384.517 91.868 384.517 92.356C384.517 92.844 384.609 93.276 384.793 93.652C384.985 94.02 385.249 94.304 385.585 94.504C385.921 94.704 386.297 94.804 386.713 94.804ZM391.74 91.54H394.896V92.38H391.74V91.54ZM398.264 95.644C397.608 95.644 397.084 95.488 396.692 95.176C396.308 94.856 396.116 94.42 396.116 93.868C396.116 93.452 396.228 93.1 396.452 92.812C396.684 92.524 396.996 92.308 397.388 92.164C397.788 92.02 398.24 91.948 398.744 91.948H400.748V92.644H398.888C398.288 92.644 397.844 92.74 397.556 92.932C397.268 93.124 397.124 93.408 397.124 93.784C397.124 94.144 397.248 94.428 397.496 94.636C397.744 94.844 398.08 94.948 398.504 94.948C398.872 94.948 399.2 94.872 399.488 94.72C399.784 94.568 400.012 94.364 400.172 94.108C400.34 93.852 400.424 93.576 400.424 93.28V91.624C400.424 91.064 400.28 90.644 399.992 90.364C399.712 90.076 399.32 89.932 398.816 89.932C398.384 89.932 398 90.028 397.664 90.22C397.336 90.412 397.052 90.684 396.812 91.036L396.344 90.676C396.56 90.196 396.9 89.808 397.364 89.512C397.828 89.216 398.372 89.068 398.996 89.068C399.516 89.068 399.96 89.164 400.328 89.356C400.704 89.548 400.992 89.836 401.192 90.22C401.392 90.596 401.492 91.056 401.492 91.6V95.5H400.484V94.168L400.64 94.432C400.424 94.8 400.112 95.096 399.704 95.32C399.304 95.536 398.824 95.644 398.264 95.644ZM405.113 95.644C404.609 95.644 404.149 95.56 403.733 95.392C403.325 95.216 402.985 94.992 402.713 94.72L403.001 94.06C403.265 94.308 403.573 94.508 403.925 94.66C404.285 94.812 404.665 94.888 405.065 94.888C405.497 94.888 405.845 94.796 406.109 94.612C406.381 94.42 406.517 94.156 406.517 93.82C406.517 93.548 406.405 93.332 406.181 93.172C405.965 93.004 405.613 92.864 405.125 92.752L404.909 92.704C404.165 92.536 403.633 92.312 403.313 92.032C402.993 91.744 402.833 91.36 402.833 90.88C402.833 90.488 402.929 90.156 403.121 89.884C403.321 89.612 403.589 89.408 403.925 89.272C404.269 89.136 404.657 89.068 405.089 89.068C405.553 89.068 405.981 89.144 406.373 89.296C406.773 89.44 407.105 89.628 407.369 89.86L407.093 90.532C406.853 90.324 406.553 90.156 406.193 90.028C405.841 89.892 405.489 89.824 405.137 89.824C404.737 89.824 404.421 89.904 404.189 90.064C403.957 90.224 403.841 90.468 403.841 90.796C403.841 91.06 403.941 91.268 404.141 91.42C404.349 91.564 404.697 91.692 405.185 91.804L405.401 91.852C406.153 92.02 406.693 92.256 407.021 92.56C407.357 92.864 407.525 93.26 407.525 93.748C407.525 94.148 407.417 94.492 407.201 94.78C406.993 95.06 406.705 95.276 406.337 95.428C405.977 95.572 405.569 95.644 405.113 95.644ZM410.913 95.644C410.409 95.644 409.949 95.56 409.533 95.392C409.125 95.216 408.785 94.992 408.513 94.72L408.801 94.06C409.065 94.308 409.373 94.508 409.725 94.66C410.085 94.812 410.465 94.888 410.865 94.888C411.297 94.888 411.645 94.796 411.909 94.612C412.181 94.42 412.317 94.156 412.317 93.82C412.317 93.548 412.205 93.332 411.981 93.172C411.765 93.004 411.413 92.864 410.925 92.752L410.709 92.704C409.965 92.536 409.433 92.312 409.113 92.032C408.793 91.744 408.633 91.36 408.633 90.88C408.633 90.488 408.729 90.156 408.921 89.884C409.121 89.612 409.389 89.408 409.725 89.272C410.069 89.136 410.457 89.068 410.889 89.068C411.353 89.068 411.781 89.144 412.173 89.296C412.573 89.44 412.905 89.628 413.169 89.86L412.893 90.532C412.653 90.324 412.353 90.156 411.993 90.028C411.641 89.892 411.289 89.824 410.937 89.824C410.537 89.824 410.221 89.904 409.989 90.064C409.757 90.224 409.641 90.468 409.641 90.796C409.641 91.06 409.741 91.268 409.941 91.42C410.149 91.564 410.497 91.692 410.985 91.804L411.201 91.852C411.953 92.02 412.493 92.256 412.821 92.56C413.157 92.864 413.325 93.26 413.325 93.748C413.325 94.148 413.217 94.492 413.001 94.78C412.793 95.06 412.505 95.276 412.137 95.428C411.777 95.572 411.369 95.644 410.913 95.644ZM417.674 95.644C417.058 95.644 416.498 95.504 415.994 95.224C415.498 94.944 415.106 94.552 414.818 94.048C414.538 93.544 414.398 92.972 414.398 92.332C414.398 91.708 414.538 91.148 414.818 90.652C415.098 90.156 415.482 89.768 415.97 89.488C416.466 89.208 417.022 89.068 417.638 89.068C418.262 89.068 418.802 89.22 419.258 89.524C419.722 89.82 420.07 90.22 420.302 90.724C420.542 91.228 420.65 91.78 420.626 92.38H414.89V91.684H419.978L419.546 92.092C419.554 91.652 419.486 91.256 419.342 90.904C419.206 90.552 418.99 90.276 418.694 90.076C418.406 89.868 418.054 89.764 417.638 89.764C417.23 89.764 416.862 89.868 416.534 90.076C416.206 90.276 415.946 90.568 415.754 90.952C415.57 91.328 415.478 91.772 415.478 92.284C415.478 92.78 415.578 93.216 415.778 93.592C415.986 93.968 416.266 94.26 416.618 94.468C416.978 94.668 417.382 94.768 417.83 94.768C418.326 94.768 418.774 94.652 419.174 94.42C419.574 94.188 419.902 93.872 420.158 93.472L420.65 93.748C420.53 94.052 420.334 94.352 420.062 94.648C419.79 94.936 419.446 95.176 419.03 95.368C418.622 95.552 418.17 95.644 417.674 95.644ZM424.183 95.644C423.623 95.644 423.179 95.472 422.851 95.128C422.531 94.784 422.371 94.324 422.371 93.748V89.536L422.863 90.028H421.339V89.476L421.735 89.404C421.999 89.356 422.199 89.256 422.335 89.104C422.471 88.944 422.563 88.696 422.611 88.36L422.719 87.604H423.463V89.584L422.971 89.212H425.563V90.028H422.971L423.463 89.656V93.7C423.463 94.068 423.559 94.356 423.751 94.564C423.951 94.764 424.223 94.864 424.567 94.864C424.735 94.864 424.907 94.844 425.083 94.804C425.259 94.764 425.427 94.712 425.587 94.648L425.683 95.272C425.499 95.384 425.271 95.472 424.999 95.536C424.735 95.608 424.463 95.644 424.183 95.644ZM428.656 95.644C428.152 95.644 427.692 95.56 427.276 95.392C426.868 95.216 426.528 94.992 426.256 94.72L426.544 94.06C426.808 94.308 427.116 94.508 427.468 94.66C427.828 94.812 428.208 94.888 428.608 94.888C429.04 94.888 429.388 94.796 429.652 94.612C429.924 94.42 430.06 94.156 430.06 93.82C430.06 93.548 429.948 93.332 429.724 93.172C429.508 93.004 429.156 92.864 428.668 92.752L428.452 92.704C427.708 92.536 427.176 92.312 426.856 92.032C426.536 91.744 426.376 91.36 426.376 90.88C426.376 90.488 426.472 90.156 426.664 89.884C426.864 89.612 427.132 89.408 427.468 89.272C427.812 89.136 428.2 89.068 428.632 89.068C429.096 89.068 429.524 89.144 429.916 89.296C430.316 89.44 430.648 89.628 430.912 89.86L430.636 90.532C430.396 90.324 430.096 90.156 429.736 90.028C429.384 89.892 429.032 89.824 428.68 89.824C428.28 89.824 427.964 89.904 427.732 90.064C427.5 90.224 427.384 90.468 427.384 90.796C427.384 91.06 427.484 91.268 427.684 91.42C427.892 91.564 428.24 91.692 428.728 91.804L428.944 91.852C429.696 92.02 430.236 92.256 430.564 92.56C430.9 92.864 431.068 93.26 431.068 93.748C431.068 94.148 430.96 94.492 430.744 94.78C430.536 95.06 430.248 95.276 429.88 95.428C429.52 95.572 429.112 95.644 428.656 95.644ZM432.92 95.62C432.728 95.62 432.564 95.552 432.428 95.416C432.292 95.28 432.224 95.116 432.224 94.924C432.224 94.74 432.292 94.58 432.428 94.444C432.564 94.3 432.728 94.228 432.92 94.228C433.112 94.228 433.276 94.3 433.412 94.444C433.548 94.58 433.616 94.74 433.616 94.924C433.616 95.116 433.548 95.28 433.412 95.416C433.276 95.552 433.112 95.62 432.92 95.62ZM435.148 89.212H436.18V90.784L436.012 90.58C436.26 90.1 436.604 89.728 437.044 89.464C437.492 89.2 438 89.068 438.568 89.068C439.168 89.068 439.708 89.208 440.188 89.488C440.668 89.768 441.044 90.16 441.316 90.664C441.596 91.16 441.736 91.724 441.736 92.356C441.736 92.988 441.596 93.556 441.316 94.06C441.044 94.556 440.668 94.944 440.188 95.224C439.708 95.504 439.168 95.644 438.568 95.644C438.016 95.644 437.524 95.52 437.092 95.272C436.668 95.024 436.324 94.676 436.06 94.228L436.24 94.012V97.996H435.148V89.212ZM438.436 94.804C438.852 94.804 439.228 94.704 439.564 94.504C439.9 94.304 440.16 94.02 440.344 93.652C440.536 93.276 440.632 92.844 440.632 92.356C440.632 91.868 440.536 91.44 440.344 91.072C440.16 90.696 439.9 90.408 439.564 90.208C439.228 90.008 438.852 89.908 438.436 89.908C438.02 89.908 437.644 90.008 437.308 90.208C436.972 90.408 436.708 90.696 436.516 91.072C436.332 91.44 436.24 91.868 436.24 92.356C436.24 92.844 436.332 93.276 436.516 93.652C436.708 94.02 436.972 94.304 437.308 94.504C437.644 94.704 438.02 94.804 438.436 94.804ZM446.007 95.644C445.407 95.644 444.867 95.504 444.387 95.224C443.907 94.944 443.527 94.556 443.247 94.06C442.975 93.556 442.839 92.988 442.839 92.356C442.839 91.724 442.975 91.16 443.247 90.664C443.527 90.16 443.907 89.768 444.387 89.488C444.867 89.208 445.407 89.068 446.007 89.068C446.559 89.068 447.047 89.192 447.471 89.44C447.903 89.688 448.251 90.036 448.515 90.484L448.335 90.7V86.524H449.427V95.5H448.407V93.916L448.575 94.132C448.327 94.604 447.979 94.976 447.531 95.248C447.083 95.512 446.575 95.644 446.007 95.644ZM446.139 94.804C446.555 94.804 446.931 94.704 447.267 94.504C447.603 94.304 447.863 94.02 448.047 93.652C448.239 93.276 448.335 92.844 448.335 92.356C448.335 91.868 448.239 91.44 448.047 91.072C447.863 90.696 447.603 90.408 447.267 90.208C446.931 90.008 446.555 89.908 446.139 89.908C445.723 89.908 445.347 90.008 445.011 90.208C444.675 90.408 444.411 90.696 444.219 91.072C444.035 91.44 443.943 91.868 443.943 92.356C443.943 92.844 444.035 93.276 444.219 93.652C444.411 94.02 444.675 94.304 445.011 94.504C445.347 94.704 445.723 94.804 446.139 94.804ZM451.682 88.456C451.682 87.8 451.858 87.292 452.21 86.932C452.57 86.564 453.07 86.38 453.71 86.38C453.966 86.38 454.214 86.412 454.454 86.476C454.702 86.532 454.922 86.608 455.114 86.704L455.018 87.316C454.61 87.196 454.27 87.136 453.998 87.136C453.614 87.136 453.314 87.248 453.098 87.472C452.882 87.696 452.774 88.008 452.774 88.408V95.5H451.682V88.456ZM450.65 89.212H454.85V90.028H450.65V89.212Z" fill="white"/>
<path d="M89.948 63V54.372H93.404C95.144 54.372 96.116 55.308 96.116 56.64C96.116 57.672 95.468 58.272 94.628 58.524C95.696 58.776 96.368 59.484 96.368 60.588C96.368 62.1 95.132 63 93.476 63H89.948ZM91.064 58.104H93.332C94.352 58.104 94.964 57.6 94.964 56.7C94.964 55.836 94.4 55.32 93.332 55.32H91.064V58.104ZM91.064 62.052H93.452C94.568 62.052 95.216 61.5 95.216 60.54C95.216 59.604 94.568 59.052 93.452 59.052H91.064V62.052ZM97.6213 63V56.868H98.6413V58.248C98.8933 57.384 99.5533 56.868 100.645 56.868H100.825V57.936H100.465C99.2533 57.936 98.7013 58.572 98.7013 59.796V63H97.6213ZM103.581 63.144C102.201 63.144 101.409 62.484 101.409 61.416C101.409 60.12 102.441 59.712 103.773 59.484L104.469 59.364C105.057 59.268 105.465 59.136 105.465 58.62C105.465 58.02 104.961 57.612 104.085 57.612C103.149 57.612 102.729 58.056 102.633 58.656H101.589C101.649 57.624 102.549 56.724 104.121 56.724C105.741 56.724 106.545 57.54 106.545 58.968V61.68C106.545 62.004 106.629 62.148 107.001 62.148H107.289V63.012C107.157 63.024 106.917 63.024 106.677 63.024C105.933 63.024 105.573 62.676 105.573 62.136C105.153 62.82 104.409 63.144 103.581 63.144ZM103.713 62.268C104.709 62.268 105.489 61.752 105.489 60.708V59.88C105.357 60 105.105 60.084 104.793 60.144L104.037 60.288C103.065 60.492 102.489 60.66 102.489 61.344C102.489 61.956 102.969 62.268 103.713 62.268ZM108.297 63V56.868H109.317V57.876C109.593 57.336 110.253 56.724 111.321 56.724C112.869 56.724 113.637 57.648 113.637 59.232V63H112.557V59.352C112.557 58.26 112.077 57.636 111.093 57.636C110.121 57.636 109.377 58.368 109.377 59.436V63H108.297ZM117.67 63.144C116.014 63.144 114.874 61.884 114.874 59.94C114.874 58.032 116.098 56.724 117.694 56.724C118.678 56.724 119.398 57.12 119.782 57.804V54.372H120.862V63H119.842V61.716C119.518 62.556 118.678 63.144 117.67 63.144ZM117.814 62.244C118.93 62.244 119.782 61.428 119.782 59.892C119.782 58.356 118.966 57.624 117.814 57.624C116.806 57.624 115.978 58.404 115.978 59.928C115.978 61.464 116.794 62.244 117.814 62.244ZM124.287 63L127.659 54.372H128.979L132.339 63H131.139L130.179 60.456H126.411L125.451 63H124.287ZM126.771 59.496H129.795L128.283 55.512L126.771 59.496ZM135.454 63.144C133.906 63.144 132.922 62.436 132.814 61.14H133.858C133.93 61.884 134.554 62.256 135.454 62.256C136.45 62.256 136.93 61.908 136.93 61.308C136.93 60.768 136.546 60.588 135.766 60.468L135.034 60.36C133.642 60.156 132.994 59.628 132.994 58.608C132.994 57.504 133.966 56.724 135.442 56.724C136.882 56.724 137.83 57.48 137.89 58.644H136.846C136.762 57.984 136.198 57.612 135.406 57.612C134.53 57.612 134.05 57.984 134.05 58.5C134.05 59.028 134.422 59.256 135.262 59.388L136.006 59.508C137.35 59.712 137.998 60.18 137.998 61.224C137.998 62.4 137.014 63.144 135.454 63.144ZM141.443 63.144C139.895 63.144 138.911 62.436 138.803 61.14H139.847C139.919 61.884 140.543 62.256 141.443 62.256C142.439 62.256 142.919 61.908 142.919 61.308C142.919 60.768 142.535 60.588 141.755 60.468L141.023 60.36C139.631 60.156 138.983 59.628 138.983 58.608C138.983 57.504 139.955 56.724 141.431 56.724C142.871 56.724 143.819 57.48 143.879 58.644H142.835C142.751 57.984 142.187 57.612 141.395 57.612C140.519 57.612 140.039 57.984 140.039 58.5C140.039 59.028 140.411 59.256 141.251 59.388L141.995 59.508C143.339 59.712 143.987 60.18 143.987 61.224C143.987 62.4 143.003 63.144 141.443 63.144ZM147.839 63.144C146.039 63.144 144.851 61.968 144.851 59.94C144.851 58.176 145.955 56.724 147.779 56.724C149.651 56.724 150.647 58.008 150.647 59.82C150.647 59.916 150.647 60.036 150.635 60.156H145.931C145.967 61.632 146.891 62.256 147.851 62.256C148.715 62.256 149.303 61.92 149.543 61.14H150.575C150.251 62.46 149.183 63.144 147.839 63.144ZM147.803 57.612C146.879 57.612 146.159 58.188 145.979 59.304H149.519C149.423 58.176 148.739 57.612 147.803 57.612ZM154.975 63H154.063C152.803 63 152.383 62.412 152.383 61.368V57.768H151.291V56.868H151.651C152.311 56.868 152.467 56.736 152.467 56.064V55.092H153.463V56.868H154.975V57.768H153.463V61.296C153.463 61.872 153.667 62.1 154.255 62.1H154.975V63ZM158.4 63.144C156.852 63.144 155.868 62.436 155.76 61.14H156.804C156.876 61.884 157.5 62.256 158.4 62.256C159.396 62.256 159.876 61.908 159.876 61.308C159.876 60.768 159.492 60.588 158.712 60.468L157.98 60.36C156.588 60.156 155.94 59.628 155.94 58.608C155.94 57.504 156.912 56.724 158.388 56.724C159.828 56.724 160.776 57.48 160.836 58.644H159.792C159.708 57.984 159.144 57.612 158.352 57.612C157.476 57.612 156.996 57.984 156.996 58.5C156.996 59.028 157.368 59.256 158.208 59.388L158.952 59.508C160.296 59.712 160.944 60.18 160.944 61.224C160.944 62.4 159.96 63.144 158.4 63.144Z" fill="white"/>
</g>
<defs>
<clipPath id="clip0_86_1563">
<rect width="558" height="240" fill="white"/>
</clipPath>
</defs>
</svg>
