<svg width="558" height="240" viewBox="0 0 558 240" fill="none" xmlns="http://www.w3.org/2000/svg">
<g clip-path="url(#clip0_86_1519)">
<rect width="558" height="240" fill="black"/>
<line x1="-15" y1="51.5" x2="572" y2="51.5" stroke="#5E5E67" stroke-dasharray="4 4"/>
<line x1="-15" y1="188.5" x2="572" y2="188.5" stroke="#5E5E67" stroke-dasharray="4 4"/>
<line x1="80.5" y1="-63" x2="80.5" y2="337" stroke="#5E5E67" stroke-dasharray="4 4"/>
<line x1="477.5" y1="-63" x2="477.5" y2="337" stroke="#5E5E67" stroke-dasharray="4 4"/>
<rect x="81" y="52" width="396" height="136" rx="4" fill="#1B1B1D"/>
<mask id="path-6-inside-1_86_1519" fill="white">
<path d="M91 62H467V94H91V62Z"/>
</mask>
<path d="M467 94V93H91V94V95H467V94Z" fill="#2B2B30" mask="url(#path-6-inside-1_86_1519)"/>
<path d="M97.75 84.216C94.096 84.216 91.666 81.57 91.666 77.52C91.666 73.488 94.15 70.842 97.75 70.842C100.54 70.842 102.556 72.408 103.168 75.162H101.422C100.936 73.434 99.694 72.282 97.75 72.282C95.158 72.282 93.394 74.334 93.394 77.52C93.394 80.706 95.14 82.776 97.75 82.776C99.748 82.776 101.008 81.588 101.476 79.806H103.222C102.61 82.614 100.576 84.216 97.75 84.216ZM109.053 84.216C106.245 84.216 104.481 82.308 104.481 79.41C104.481 76.566 106.371 74.586 109.053 74.586C111.861 74.586 113.625 76.494 113.625 79.392C113.625 82.236 111.735 84.216 109.053 84.216ZM109.053 82.866C110.655 82.866 111.969 81.696 111.969 79.392C111.969 77.106 110.655 75.936 109.053 75.936C107.451 75.936 106.137 77.106 106.137 79.392C106.137 81.696 107.451 82.866 109.053 82.866ZM115.569 84V74.802H117.099V76.314C117.513 75.504 118.503 74.586 120.105 74.586C122.427 74.586 123.579 75.972 123.579 78.348V84H121.959V78.528C121.959 76.89 121.239 75.954 119.763 75.954C118.305 75.954 117.189 77.052 117.189 78.654V84H115.569ZM130.601 84H129.233C127.343 84 126.713 83.118 126.713 81.552V76.152H125.075V74.802H125.615C126.605 74.802 126.839 74.604 126.839 73.596V72.138H128.333V74.802H130.601V76.152H128.333V81.444C128.333 82.308 128.639 82.65 129.521 82.65H130.601V84ZM132.479 84V74.802H134.009V76.872C134.387 75.576 135.377 74.802 137.015 74.802H137.285V76.404H136.745C134.927 76.404 134.099 77.358 134.099 79.194V84H132.479ZM141.419 84.216C139.349 84.216 138.161 83.226 138.161 81.624C138.161 79.68 139.709 79.068 141.707 78.726L142.751 78.546C143.633 78.402 144.245 78.204 144.245 77.43C144.245 76.53 143.489 75.918 142.175 75.918C140.771 75.918 140.141 76.584 139.997 77.484H138.431C138.521 75.936 139.871 74.586 142.229 74.586C144.659 74.586 145.865 75.81 145.865 77.952V82.02C145.865 82.506 145.991 82.722 146.549 82.722H146.981V84.018C146.783 84.036 146.423 84.036 146.063 84.036C144.947 84.036 144.407 83.514 144.407 82.704C143.777 83.73 142.661 84.216 141.419 84.216ZM141.617 82.902C143.111 82.902 144.281 82.128 144.281 80.562V79.32C144.083 79.5 143.705 79.626 143.237 79.716L142.103 79.932C140.645 80.238 139.781 80.49 139.781 81.516C139.781 82.434 140.501 82.902 141.617 82.902ZM152.292 84.216C149.556 84.216 147.864 82.362 147.864 79.392C147.864 76.548 149.718 74.586 152.292 74.586C154.614 74.586 156.108 75.864 156.432 77.88H154.866C154.488 76.62 153.57 75.936 152.292 75.936C150.762 75.936 149.52 77.106 149.52 79.392C149.52 81.696 150.762 82.866 152.292 82.866C153.606 82.866 154.524 82.164 154.884 80.85H156.432C156.108 82.884 154.542 84.216 152.292 84.216ZM162.892 84H161.524C159.634 84 159.004 83.118 159.004 81.552V76.152H157.366V74.802H157.906C158.896 74.802 159.13 74.604 159.13 73.596V72.138H160.624V74.802H162.892V76.152H160.624V81.444C160.624 82.308 160.93 82.65 161.812 82.65H162.892V84ZM172.797 84.216C169.629 84.216 167.991 82.65 167.793 80.184H169.521C169.665 81.822 170.709 82.776 172.779 82.776C174.705 82.776 175.911 81.858 175.911 80.454C175.911 79.122 174.957 78.636 173.643 78.384L171.897 78.06C169.431 77.61 168.171 76.458 168.171 74.568C168.171 72.372 169.827 70.842 172.725 70.842C175.515 70.842 177.207 72.372 177.405 74.568H175.695C175.443 73.128 174.399 72.282 172.707 72.282C170.871 72.282 169.863 73.128 169.863 74.442C169.863 75.684 170.709 76.224 172.149 76.494L173.895 76.818C176.325 77.268 177.603 78.384 177.603 80.31C177.603 82.722 175.785 84.216 172.797 84.216ZM184.092 84H182.724C180.833 84 180.204 83.118 180.204 81.552V76.152H178.566V74.802H179.106C180.096 74.802 180.33 74.604 180.33 73.596V72.138H181.824V74.802H184.092V76.152H181.824V81.444C181.824 82.308 182.13 82.65 183.012 82.65H184.092V84ZM188.616 84.216C186.546 84.216 185.358 83.226 185.358 81.624C185.358 79.68 186.906 79.068 188.904 78.726L189.948 78.546C190.83 78.402 191.442 78.204 191.442 77.43C191.442 76.53 190.686 75.918 189.372 75.918C187.968 75.918 187.338 76.584 187.194 77.484H185.628C185.718 75.936 187.068 74.586 189.426 74.586C191.856 74.586 193.062 75.81 193.062 77.952V82.02C193.062 82.506 193.188 82.722 193.746 82.722H194.178V84.018C193.98 84.036 193.62 84.036 193.26 84.036C192.144 84.036 191.604 83.514 191.604 82.704C190.974 83.73 189.858 84.216 188.616 84.216ZM188.814 82.902C190.308 82.902 191.478 82.128 191.478 80.562V79.32C191.28 79.5 190.902 79.626 190.434 79.716L189.3 79.932C187.842 80.238 186.978 80.49 186.978 81.516C186.978 82.434 187.698 82.902 188.814 82.902ZM200.193 84H198.825C196.935 84 196.305 83.118 196.305 81.552V76.152H194.667V74.802H195.207C196.197 74.802 196.431 74.604 196.431 73.596V72.138H197.925V74.802H200.193V76.152H197.925V81.444C197.925 82.308 198.231 82.65 199.113 82.65H200.193V84ZM205.383 84.216C203.223 84.216 201.981 82.848 201.981 80.472V74.802H203.601V80.274C203.601 81.912 204.303 82.848 205.761 82.848C207.183 82.848 208.263 81.75 208.263 80.166V74.802H209.883V84H208.353V82.506C207.939 83.352 206.949 84.216 205.383 84.216ZM215.718 84.216C213.396 84.216 211.92 83.154 211.758 81.21H213.324C213.432 82.326 214.368 82.884 215.718 82.884C217.212 82.884 217.932 82.362 217.932 81.462C217.932 80.652 217.356 80.382 216.186 80.202L215.088 80.04C213 79.734 212.028 78.942 212.028 77.412C212.028 75.756 213.486 74.586 215.7 74.586C217.86 74.586 219.282 75.72 219.372 77.466H217.806C217.68 76.476 216.834 75.918 215.646 75.918C214.332 75.918 213.612 76.476 213.612 77.25C213.612 78.042 214.17 78.384 215.43 78.582L216.546 78.762C218.562 79.068 219.534 79.77 219.534 81.336C219.534 83.1 218.058 84.216 215.718 84.216Z" fill="white"/>
<path d="M450 72L457.794 81H442.206L450 72Z" fill="#B175EF"/>
<path d="M121.929 126.216C118.275 126.216 115.845 123.57 115.845 119.52C115.845 115.488 118.329 112.842 121.929 112.842C124.719 112.842 126.735 114.408 127.347 117.162H125.601C125.115 115.434 123.873 114.282 121.929 114.282C119.337 114.282 117.573 116.334 117.573 119.52C117.573 122.706 119.319 124.776 121.929 124.776C123.927 124.776 125.187 123.588 125.655 121.806H127.401C126.789 124.614 124.755 126.216 121.929 126.216ZM129.236 126V113.058H130.856V126H129.236ZM137.38 126.216C134.572 126.216 132.808 124.308 132.808 121.41C132.808 118.566 134.698 116.586 137.38 116.586C140.188 116.586 141.952 118.494 141.952 121.392C141.952 124.236 140.062 126.216 137.38 126.216ZM137.38 124.866C138.982 124.866 140.296 123.696 140.296 121.392C140.296 119.106 138.982 117.936 137.38 117.936C135.778 117.936 134.464 119.106 134.464 121.392C134.464 123.696 135.778 124.866 137.38 124.866ZM147.208 126.216C144.886 126.216 143.41 125.154 143.248 123.21H144.814C144.922 124.326 145.858 124.884 147.208 124.884C148.702 124.884 149.422 124.362 149.422 123.462C149.422 122.652 148.846 122.382 147.676 122.202L146.578 122.04C144.49 121.734 143.518 120.942 143.518 119.412C143.518 117.756 144.976 116.586 147.19 116.586C149.35 116.586 150.772 117.72 150.862 119.466H149.296C149.17 118.476 148.324 117.918 147.136 117.918C145.822 117.918 145.102 118.476 145.102 119.25C145.102 120.042 145.66 120.384 146.92 120.582L148.036 120.762C150.052 121.068 151.024 121.77 151.024 123.336C151.024 125.1 149.548 126.216 147.208 126.216ZM156.802 126.216C154.102 126.216 152.32 124.452 152.32 121.41C152.32 118.764 153.976 116.586 156.712 116.586C159.52 116.586 161.014 118.512 161.014 121.23C161.014 121.374 161.014 121.554 160.996 121.734H153.94C153.994 123.948 155.38 124.884 156.82 124.884C158.116 124.884 158.998 124.38 159.358 123.21H160.906C160.42 125.19 158.818 126.216 156.802 126.216ZM156.748 117.918C155.362 117.918 154.282 118.782 154.012 120.456H159.322C159.178 118.764 158.152 117.918 156.748 117.918ZM166.568 126.216C164.084 126.216 162.374 124.326 162.374 121.41C162.374 118.548 164.21 116.586 166.604 116.586C168.08 116.586 169.16 117.18 169.736 118.206V113.058H171.356V126H169.826V124.074C169.34 125.334 168.08 126.216 166.568 126.216ZM166.784 124.866C168.458 124.866 169.736 123.642 169.736 121.338C169.736 119.034 168.512 117.936 166.784 117.936C165.272 117.936 164.03 119.106 164.03 121.392C164.03 123.696 165.254 124.866 166.784 124.866ZM180.346 126.216C178.276 126.216 177.088 125.226 177.088 123.624C177.088 121.68 178.636 121.068 180.634 120.726L181.678 120.546C182.56 120.402 183.172 120.204 183.172 119.43C183.172 118.53 182.416 117.918 181.102 117.918C179.698 117.918 179.068 118.584 178.924 119.484H177.358C177.448 117.936 178.798 116.586 181.156 116.586C183.586 116.586 184.792 117.81 184.792 119.952V124.02C184.792 124.506 184.918 124.722 185.476 124.722H185.908V126.018C185.71 126.036 185.35 126.036 184.99 126.036C183.874 126.036 183.334 125.514 183.334 124.704C182.704 125.73 181.588 126.216 180.346 126.216ZM180.544 124.902C182.038 124.902 183.208 124.128 183.208 122.562V121.32C183.01 121.5 182.632 121.626 182.164 121.716L181.03 121.932C179.572 122.238 178.708 122.49 178.708 123.516C178.708 124.434 179.428 124.902 180.544 124.902ZM187.419 126V116.802H188.949V118.314C189.363 117.504 190.353 116.586 191.955 116.586C194.277 116.586 195.429 117.972 195.429 120.348V126H193.809V120.528C193.809 118.89 193.089 117.954 191.613 117.954C190.155 117.954 189.039 119.052 189.039 120.654V126H187.419ZM201.479 126.216C198.995 126.216 197.285 124.326 197.285 121.41C197.285 118.548 199.121 116.586 201.515 116.586C202.991 116.586 204.071 117.18 204.647 118.206V113.058H206.267V126H204.737V124.074C204.251 125.334 202.991 126.216 201.479 126.216ZM201.695 124.866C203.369 124.866 204.647 123.642 204.647 121.338C204.647 119.034 203.423 117.936 201.695 117.936C200.183 117.936 198.941 119.106 198.941 121.392C198.941 123.696 200.165 124.866 201.695 124.866ZM212.718 126V113.058H214.392V124.56H220.854V126H212.718ZM226.132 126.216C223.324 126.216 221.56 124.308 221.56 121.41C221.56 118.566 223.45 116.586 226.132 116.586C228.94 116.586 230.704 118.494 230.704 121.392C230.704 124.236 228.814 126.216 226.132 126.216ZM226.132 124.866C227.734 124.866 229.048 123.696 229.048 121.392C229.048 119.106 227.734 117.936 226.132 117.936C224.53 117.936 223.216 119.106 223.216 121.392C223.216 123.696 224.53 124.866 226.132 124.866ZM235.96 126.216C233.638 126.216 232.162 125.154 232 123.21H233.566C233.674 124.326 234.61 124.884 235.96 124.884C237.454 124.884 238.174 124.362 238.174 123.462C238.174 122.652 237.598 122.382 236.428 122.202L235.33 122.04C233.242 121.734 232.27 120.942 232.27 119.412C232.27 117.756 233.728 116.586 235.942 116.586C238.102 116.586 239.524 117.72 239.614 119.466H238.048C237.922 118.476 237.076 117.918 235.888 117.918C234.574 117.918 233.854 118.476 233.854 119.25C233.854 120.042 234.412 120.384 235.672 120.582L236.788 120.762C238.804 121.068 239.776 121.77 239.776 123.336C239.776 125.1 238.3 126.216 235.96 126.216ZM246.204 126H244.836C242.946 126 242.316 125.118 242.316 123.552V118.152H240.678V116.802H241.218C242.208 116.802 242.442 116.604 242.442 115.596V114.138H243.936V116.802H246.204V118.152H243.936V123.444C243.936 124.308 244.242 124.65 245.124 124.65H246.204V126Z" fill="#5E5E67"/>
<rect x="91" y="146" width="376" height="32" rx="4" fill="#B175EF" fill-opacity="0.2"/>
<path d="M121.76 168.216C118.106 168.216 115.676 165.57 115.676 161.52C115.676 157.488 118.16 154.842 121.76 154.842C124.55 154.842 126.566 156.408 127.178 159.162H125.432C124.946 157.434 123.704 156.282 121.76 156.282C119.168 156.282 117.404 158.334 117.404 161.52C117.404 164.706 119.15 166.776 121.76 166.776C123.758 166.776 125.018 165.588 125.486 163.806H127.232C126.62 166.614 124.586 168.216 121.76 168.216ZM129.067 168V155.058H130.687V168H129.067ZM137.211 168.216C134.403 168.216 132.639 166.308 132.639 163.41C132.639 160.566 134.529 158.586 137.211 158.586C140.019 158.586 141.783 160.494 141.783 163.392C141.783 166.236 139.893 168.216 137.211 168.216ZM137.211 166.866C138.813 166.866 140.127 165.696 140.127 163.392C140.127 161.106 138.813 159.936 137.211 159.936C135.609 159.936 134.295 161.106 134.295 163.392C134.295 165.696 135.609 166.866 137.211 166.866ZM147.039 168.216C144.717 168.216 143.241 167.154 143.079 165.21H144.645C144.753 166.326 145.689 166.884 147.039 166.884C148.533 166.884 149.253 166.362 149.253 165.462C149.253 164.652 148.677 164.382 147.507 164.202L146.409 164.04C144.321 163.734 143.349 162.942 143.349 161.412C143.349 159.756 144.807 158.586 147.021 158.586C149.181 158.586 150.603 159.72 150.693 161.466H149.127C149.001 160.476 148.155 159.918 146.967 159.918C145.653 159.918 144.933 160.476 144.933 161.25C144.933 162.042 145.491 162.384 146.751 162.582L147.867 162.762C149.883 163.068 150.855 163.77 150.855 165.336C150.855 167.1 149.379 168.216 147.039 168.216ZM156.633 168.216C153.933 168.216 152.151 166.452 152.151 163.41C152.151 160.764 153.807 158.586 156.543 158.586C159.351 158.586 160.845 160.512 160.845 163.23C160.845 163.374 160.845 163.554 160.827 163.734H153.771C153.825 165.948 155.211 166.884 156.651 166.884C157.947 166.884 158.829 166.38 159.189 165.21H160.737C160.251 167.19 158.649 168.216 156.633 168.216ZM156.579 159.918C155.193 159.918 154.113 160.782 153.843 162.456H159.153C159.009 160.764 157.983 159.918 156.579 159.918ZM166.399 168.216C163.915 168.216 162.205 166.326 162.205 163.41C162.205 160.548 164.041 158.586 166.435 158.586C167.911 158.586 168.991 159.18 169.567 160.206V155.058H171.187V168H169.657V166.074C169.171 167.334 167.911 168.216 166.399 168.216ZM166.615 166.866C168.289 166.866 169.567 165.642 169.567 163.338C169.567 161.034 168.343 159.936 166.615 159.936C165.103 159.936 163.861 161.106 163.861 163.392C163.861 165.696 165.085 166.866 166.615 166.866ZM180.177 168.216C178.107 168.216 176.919 167.226 176.919 165.624C176.919 163.68 178.467 163.068 180.465 162.726L181.509 162.546C182.391 162.402 183.003 162.204 183.003 161.43C183.003 160.53 182.247 159.918 180.933 159.918C179.529 159.918 178.899 160.584 178.755 161.484H177.189C177.279 159.936 178.629 158.586 180.987 158.586C183.417 158.586 184.623 159.81 184.623 161.952V166.02C184.623 166.506 184.749 166.722 185.307 166.722H185.739V168.018C185.541 168.036 185.181 168.036 184.821 168.036C183.705 168.036 183.165 167.514 183.165 166.704C182.535 167.73 181.419 168.216 180.177 168.216ZM180.375 166.902C181.869 166.902 183.039 166.128 183.039 164.562V163.32C182.841 163.5 182.463 163.626 181.995 163.716L180.861 163.932C179.403 164.238 178.539 164.49 178.539 165.516C178.539 166.434 179.259 166.902 180.375 166.902ZM187.25 168V158.802H188.78V160.314C189.194 159.504 190.184 158.586 191.786 158.586C194.108 158.586 195.26 159.972 195.26 162.348V168H193.64V162.528C193.64 160.89 192.92 159.954 191.444 159.954C189.986 159.954 188.87 161.052 188.87 162.654V168H187.25ZM201.31 168.216C198.826 168.216 197.116 166.326 197.116 163.41C197.116 160.548 198.952 158.586 201.346 158.586C202.822 158.586 203.902 159.18 204.478 160.206V155.058H206.098V168H204.568V166.074C204.082 167.334 202.822 168.216 201.31 168.216ZM201.526 166.866C203.2 166.866 204.478 165.642 204.478 163.338C204.478 161.034 203.254 159.936 201.526 159.936C200.014 159.936 198.772 161.106 198.772 163.392C198.772 165.696 199.996 166.866 201.526 166.866ZM215.033 168L211.505 155.058H213.251L216.059 165.984L218.993 155.058H221.009L223.961 165.984L226.733 155.058H228.443L224.969 168H222.971L220.001 157.164L216.977 168H215.033ZM233.293 168.216C230.485 168.216 228.721 166.308 228.721 163.41C228.721 160.566 230.611 158.586 233.293 158.586C236.101 158.586 237.865 160.494 237.865 163.392C237.865 166.236 235.975 168.216 233.293 168.216ZM233.293 166.866C234.895 166.866 236.209 165.696 236.209 163.392C236.209 161.106 234.895 159.936 233.293 159.936C231.691 159.936 230.377 161.106 230.377 163.392C230.377 165.696 231.691 166.866 233.293 166.866ZM239.809 168V158.802H241.339V160.314C241.753 159.504 242.743 158.586 244.345 158.586C246.667 158.586 247.819 159.972 247.819 162.348V168H246.199V162.528C246.199 160.89 245.479 159.954 244.003 159.954C242.545 159.954 241.429 161.052 241.429 162.654V168H239.809Z" fill="#B175EF"/>
<rect x="306" y="143" width="201" height="60" rx="6" fill="#3A3A40"/>
<path d="M306 149C306 145.686 308.686 143 312 143H366V203H312C308.686 203 306 200.314 306 197V149Z" fill="white"/>
<g clip-path="url(#clip1_86_1519)">
<path d="M344.253 180.672C343.533 184.486 339.976 187 335.696 187C331.416 187 327.799 184.784 327.121 180.672H330.675C331.331 182.428 333.03 183.988 335.696 183.988C338.362 183.988 340.011 182.428 340.699 180.672H344.253Z" fill="black"/>
<path d="M342.617 165.762H339.18L341.602 164.805C341.602 164.805 341.593 164.795 341.587 164.789L343.159 164.168V159L339.672 160.281V163.695C338.483 163.204 337.129 162.947 335.696 162.947C330.893 162.947 327 165.959 327 170.733C327 175.777 330.893 178.519 335.696 178.519C340.499 178.519 344.392 175.352 344.392 170.733C344.392 168.711 343.733 167.034 342.617 165.762ZM335.696 175.508C332.199 175.508 330.364 173.371 330.364 170.733C330.364 168.096 332.221 165.959 335.696 165.959C339.171 165.959 341.029 168.096 341.029 170.733C341.029 173.371 339.05 175.508 335.696 175.508Z" fill="black"/>
</g>
<path d="M378.964 160.708H380.116V169H378.964V160.708ZM376.216 160.264H382.864V161.188H376.216V160.264ZM382.724 162.712H383.744V164.776L383.636 164.668C383.748 164.22 383.936 163.832 384.2 163.504C384.472 163.168 384.796 162.932 385.172 162.796C385.548 162.652 385.948 162.64 386.372 162.76L386.228 163.66C385.772 163.604 385.36 163.66 384.992 163.828C384.632 163.996 384.344 164.256 384.128 164.608C383.92 164.96 383.816 165.368 383.816 165.832V169H382.724V162.712ZM387.412 162.712H388.504V169H387.412V162.712ZM387.964 161.464C387.772 161.464 387.608 161.4 387.472 161.272C387.344 161.136 387.28 160.972 387.28 160.78C387.28 160.588 387.344 160.428 387.472 160.3C387.608 160.164 387.772 160.096 387.964 160.096C388.156 160.096 388.316 160.164 388.444 160.3C388.58 160.428 388.648 160.588 388.648 160.78C388.648 160.972 388.58 161.136 388.444 161.272C388.316 161.4 388.156 161.464 387.964 161.464ZM392.457 171.64C391.857 171.64 391.349 171.564 390.933 171.412C390.517 171.268 390.205 171.068 389.997 170.812C389.797 170.564 389.697 170.28 389.697 169.96C389.697 169.624 389.797 169.328 389.997 169.072C390.205 168.816 390.505 168.612 390.897 168.46L391.413 168.688C391.149 168.824 390.953 168.972 390.825 169.132C390.705 169.3 390.645 169.504 390.645 169.744C390.645 169.96 390.713 170.152 390.849 170.32C390.993 170.496 391.205 170.636 391.485 170.74C391.765 170.844 392.105 170.896 392.505 170.896C392.977 170.896 393.381 170.836 393.717 170.716C394.053 170.604 394.305 170.448 394.473 170.248C394.649 170.056 394.737 169.832 394.737 169.576C394.737 169.296 394.629 169.08 394.413 168.928C394.197 168.768 393.881 168.688 393.465 168.688H391.413C390.997 168.688 390.677 168.596 390.453 168.412C390.237 168.228 390.129 167.992 390.129 167.704C390.129 167.48 390.217 167.268 390.393 167.068C390.569 166.868 390.833 166.668 391.185 166.468L391.269 166.42L391.809 166.732C391.513 166.884 391.309 167.012 391.197 167.116C391.093 167.212 391.041 167.316 391.041 167.428C391.041 167.556 391.081 167.652 391.161 167.716C391.249 167.772 391.389 167.8 391.581 167.8H393.717C394.389 167.8 394.909 167.952 395.277 168.256C395.653 168.552 395.841 168.952 395.841 169.456C395.841 169.872 395.709 170.244 395.445 170.572C395.181 170.908 394.793 171.168 394.281 171.352C393.777 171.544 393.169 171.64 392.457 171.64ZM392.505 166.96C392.001 166.96 391.549 166.868 391.149 166.684C390.757 166.492 390.449 166.232 390.225 165.904C390.001 165.568 389.889 165.188 389.889 164.764C389.889 164.34 390.001 163.96 390.225 163.624C390.449 163.288 390.757 163.028 391.149 162.844C391.549 162.66 392.001 162.568 392.505 162.568C393.009 162.568 393.457 162.66 393.849 162.844C394.249 163.028 394.561 163.288 394.785 163.624C395.009 163.96 395.121 164.34 395.121 164.764C395.121 165.188 395.009 165.568 394.785 165.904C394.569 166.232 394.261 166.492 393.861 166.684C393.469 166.868 393.017 166.96 392.505 166.96ZM392.505 166.216C392.825 166.216 393.105 166.156 393.345 166.036C393.585 165.916 393.769 165.748 393.897 165.532C394.033 165.308 394.101 165.052 394.101 164.764C394.101 164.332 393.953 163.984 393.657 163.72C393.369 163.448 392.985 163.312 392.505 163.312C392.185 163.312 391.905 163.372 391.665 163.492C391.425 163.612 391.237 163.784 391.101 164.008C390.973 164.224 390.909 164.476 390.909 164.764C390.909 165.196 391.053 165.548 391.341 165.82C391.637 166.084 392.025 166.216 392.505 166.216ZM393.729 162.94C393.977 162.86 394.297 162.792 394.689 162.736C395.081 162.672 395.449 162.64 395.793 162.64V163.528H393.825L393.729 162.94ZM399.266 171.64C398.666 171.64 398.158 171.564 397.742 171.412C397.326 171.268 397.014 171.068 396.806 170.812C396.606 170.564 396.506 170.28 396.506 169.96C396.506 169.624 396.606 169.328 396.806 169.072C397.014 168.816 397.314 168.612 397.706 168.46L398.222 168.688C397.958 168.824 397.762 168.972 397.634 169.132C397.514 169.3 397.454 169.504 397.454 169.744C397.454 169.96 397.522 170.152 397.658 170.32C397.802 170.496 398.014 170.636 398.294 170.74C398.574 170.844 398.914 170.896 399.314 170.896C399.786 170.896 400.19 170.836 400.526 170.716C400.862 170.604 401.114 170.448 401.282 170.248C401.458 170.056 401.546 169.832 401.546 169.576C401.546 169.296 401.438 169.08 401.222 168.928C401.006 168.768 400.69 168.688 400.274 168.688H398.222C397.806 168.688 397.486 168.596 397.262 168.412C397.046 168.228 396.938 167.992 396.938 167.704C396.938 167.48 397.026 167.268 397.202 167.068C397.378 166.868 397.642 166.668 397.994 166.468L398.078 166.42L398.618 166.732C398.322 166.884 398.118 167.012 398.006 167.116C397.902 167.212 397.85 167.316 397.85 167.428C397.85 167.556 397.89 167.652 397.97 167.716C398.058 167.772 398.198 167.8 398.39 167.8H400.526C401.198 167.8 401.718 167.952 402.086 168.256C402.462 168.552 402.65 168.952 402.65 169.456C402.65 169.872 402.518 170.244 402.254 170.572C401.99 170.908 401.602 171.168 401.09 171.352C400.586 171.544 399.978 171.64 399.266 171.64ZM399.314 166.96C398.81 166.96 398.358 166.868 397.958 166.684C397.566 166.492 397.258 166.232 397.034 165.904C396.81 165.568 396.698 165.188 396.698 164.764C396.698 164.34 396.81 163.96 397.034 163.624C397.258 163.288 397.566 163.028 397.958 162.844C398.358 162.66 398.81 162.568 399.314 162.568C399.818 162.568 400.266 162.66 400.658 162.844C401.058 163.028 401.37 163.288 401.594 163.624C401.818 163.96 401.93 164.34 401.93 164.764C401.93 165.188 401.818 165.568 401.594 165.904C401.378 166.232 401.07 166.492 400.67 166.684C400.278 166.868 399.826 166.96 399.314 166.96ZM399.314 166.216C399.634 166.216 399.914 166.156 400.154 166.036C400.394 165.916 400.578 165.748 400.706 165.532C400.842 165.308 400.91 165.052 400.91 164.764C400.91 164.332 400.762 163.984 400.466 163.72C400.178 163.448 399.794 163.312 399.314 163.312C398.994 163.312 398.714 163.372 398.474 163.492C398.234 163.612 398.046 163.784 397.91 164.008C397.782 164.224 397.718 164.476 397.718 164.764C397.718 165.196 397.862 165.548 398.15 165.82C398.446 166.084 398.834 166.216 399.314 166.216ZM400.538 162.94C400.786 162.86 401.106 162.792 401.498 162.736C401.89 162.672 402.258 162.64 402.602 162.64V163.528H400.634L400.538 162.94ZM406.605 169.144C405.989 169.144 405.429 169.004 404.925 168.724C404.429 168.444 404.037 168.052 403.749 167.548C403.469 167.044 403.329 166.472 403.329 165.832C403.329 165.208 403.469 164.648 403.749 164.152C404.029 163.656 404.413 163.268 404.901 162.988C405.397 162.708 405.953 162.568 406.569 162.568C407.193 162.568 407.733 162.72 408.189 163.024C408.653 163.32 409.001 163.72 409.233 164.224C409.473 164.728 409.581 165.28 409.557 165.88H403.821V165.184H408.909L408.477 165.592C408.485 165.152 408.417 164.756 408.273 164.404C408.137 164.052 407.921 163.776 407.625 163.576C407.337 163.368 406.985 163.264 406.569 163.264C406.161 163.264 405.793 163.368 405.465 163.576C405.137 163.776 404.877 164.068 404.685 164.452C404.501 164.828 404.409 165.272 404.409 165.784C404.409 166.28 404.509 166.716 404.709 167.092C404.917 167.468 405.197 167.76 405.549 167.968C405.909 168.168 406.313 168.268 406.761 168.268C407.257 168.268 407.705 168.152 408.105 167.92C408.505 167.688 408.833 167.372 409.089 166.972L409.581 167.248C409.461 167.552 409.265 167.852 408.993 168.148C408.721 168.436 408.377 168.676 407.961 168.868C407.553 169.052 407.101 169.144 406.605 169.144ZM411.013 162.712H412.033V164.776L411.925 164.668C412.037 164.22 412.225 163.832 412.489 163.504C412.761 163.168 413.085 162.932 413.461 162.796C413.837 162.652 414.237 162.64 414.661 162.76L414.517 163.66C414.061 163.604 413.649 163.66 413.281 163.828C412.921 163.996 412.633 164.256 412.417 164.608C412.209 164.96 412.105 165.368 412.105 165.832V169H411.013V162.712ZM418.266 169.144C417.65 169.144 417.09 169.004 416.586 168.724C416.09 168.444 415.698 168.052 415.41 167.548C415.13 167.044 414.99 166.472 414.99 165.832C414.99 165.208 415.13 164.648 415.41 164.152C415.69 163.656 416.074 163.268 416.562 162.988C417.058 162.708 417.614 162.568 418.23 162.568C418.854 162.568 419.394 162.72 419.85 163.024C420.314 163.32 420.662 163.72 420.894 164.224C421.134 164.728 421.242 165.28 421.217 165.88H415.482V165.184H420.57L420.138 165.592C420.146 165.152 420.078 164.756 419.934 164.404C419.798 164.052 419.582 163.776 419.286 163.576C418.998 163.368 418.646 163.264 418.23 163.264C417.822 163.264 417.454 163.368 417.126 163.576C416.798 163.776 416.538 164.068 416.346 164.452C416.162 164.828 416.07 165.272 416.07 165.784C416.07 166.28 416.17 166.716 416.37 167.092C416.578 167.468 416.858 167.76 417.21 167.968C417.57 168.168 417.974 168.268 418.422 168.268C418.918 168.268 419.366 168.152 419.766 167.92C420.166 167.688 420.494 167.372 420.75 166.972L421.242 167.248C421.122 167.552 420.926 167.852 420.654 168.148C420.382 168.436 420.038 168.676 419.622 168.868C419.214 169.052 418.762 169.144 418.266 169.144ZM425.493 169.144C424.893 169.144 424.353 169.004 423.873 168.724C423.393 168.444 423.013 168.056 422.733 167.56C422.461 167.056 422.325 166.488 422.325 165.856C422.325 165.224 422.461 164.66 422.733 164.164C423.013 163.66 423.393 163.268 423.873 162.988C424.353 162.708 424.893 162.568 425.493 162.568C426.045 162.568 426.533 162.692 426.957 162.94C427.389 163.188 427.737 163.536 428.001 163.984L427.821 164.2V160.024H428.913V169H427.893V167.416L428.061 167.632C427.813 168.104 427.465 168.476 427.017 168.748C426.569 169.012 426.061 169.144 425.493 169.144ZM425.625 168.304C426.041 168.304 426.417 168.204 426.753 168.004C427.089 167.804 427.349 167.52 427.533 167.152C427.725 166.776 427.821 166.344 427.821 165.856C427.821 165.368 427.725 164.94 427.533 164.572C427.349 164.196 427.089 163.908 426.753 163.708C426.417 163.508 426.041 163.408 425.625 163.408C425.209 163.408 424.833 163.508 424.497 163.708C424.161 163.908 423.897 164.196 423.705 164.572C423.521 164.94 423.429 165.368 423.429 165.856C423.429 166.344 423.521 166.776 423.705 167.152C423.897 167.52 424.161 167.804 424.497 168.004C424.833 168.204 425.209 168.304 425.625 168.304Z" fill="#42FFF6"/>
<path d="M381.964 186.168C380.919 186.168 379.985 185.944 379.164 185.496C378.352 185.048 377.717 184.427 377.26 183.634C376.803 182.841 376.574 181.931 376.574 180.904C376.574 179.877 376.803 178.967 377.26 178.174C377.717 177.381 378.352 176.76 379.164 176.312C379.985 175.864 380.919 175.64 381.964 175.64C383 175.64 383.929 175.864 384.75 176.312C385.571 176.76 386.211 177.381 386.668 178.174C387.125 178.967 387.354 179.877 387.354 180.904C387.354 181.931 387.125 182.841 386.668 183.634C386.211 184.427 385.571 185.048 384.75 185.496C383.929 185.944 383 186.168 381.964 186.168ZM381.964 184.572C382.589 184.572 383.149 184.413 383.644 184.096C384.139 183.779 384.521 183.345 384.792 182.794C385.072 182.234 385.212 181.604 385.212 180.904C385.212 180.204 385.072 179.579 384.792 179.028C384.521 178.468 384.139 178.029 383.644 177.712C383.149 177.395 382.589 177.236 381.964 177.236C381.329 177.236 380.765 177.395 380.27 177.712C379.775 178.029 379.393 178.468 379.122 179.028C378.851 179.579 378.716 180.204 378.716 180.904C378.716 181.604 378.851 182.234 379.122 182.794C379.393 183.345 379.775 183.779 380.27 184.096C380.765 184.413 381.329 184.572 381.964 184.572ZM388.763 178.664H390.541V180.47L390.275 180.106C390.499 179.611 390.84 179.219 391.297 178.93C391.754 178.641 392.286 178.496 392.893 178.496C393.453 178.496 393.934 178.599 394.335 178.804C394.736 179.009 395.049 179.327 395.273 179.756C395.506 180.185 395.623 180.736 395.623 181.408V186H393.719V181.646C393.719 181.273 393.658 180.965 393.537 180.722C393.425 180.47 393.262 180.283 393.047 180.162C392.832 180.041 392.576 179.98 392.277 179.98C391.941 179.98 391.652 180.055 391.409 180.204C391.166 180.353 390.98 180.554 390.849 180.806C390.728 181.058 390.667 181.338 390.667 181.646V186H388.763V178.664ZM401.717 186.168C401.045 186.168 400.462 186.014 399.967 185.706C399.473 185.389 399.09 184.945 398.819 184.376L399.099 184.012V186H397.321V175.528H399.225V180.498L398.917 180.106C399.197 179.593 399.575 179.196 400.051 178.916C400.527 178.636 401.083 178.496 401.717 178.496C402.417 178.496 403.043 178.659 403.593 178.986C404.153 179.313 404.592 179.765 404.909 180.344C405.227 180.923 405.385 181.585 405.385 182.332C405.385 183.079 405.227 183.741 404.909 184.32C404.592 184.899 404.153 185.351 403.593 185.678C403.043 186.005 402.417 186.168 401.717 186.168ZM401.339 184.74C401.75 184.74 402.114 184.642 402.431 184.446C402.758 184.25 403.01 183.97 403.187 183.606C403.374 183.233 403.467 182.808 403.467 182.332C403.467 181.856 403.374 181.436 403.187 181.072C403.01 180.699 402.758 180.414 402.431 180.218C402.114 180.022 401.75 179.924 401.339 179.924C400.938 179.924 400.574 180.022 400.247 180.218C399.921 180.414 399.669 180.699 399.491 181.072C399.314 181.436 399.225 181.856 399.225 182.332C399.225 182.808 399.314 183.233 399.491 183.606C399.669 183.97 399.921 184.25 400.247 184.446C400.574 184.642 400.938 184.74 401.339 184.74ZM410.506 186.168C409.713 186.168 409.008 186.005 408.392 185.678C407.776 185.351 407.295 184.899 406.95 184.32C406.605 183.741 406.432 183.079 406.432 182.332C406.432 181.585 406.605 180.923 406.95 180.344C407.295 179.765 407.776 179.313 408.392 178.986C409.008 178.659 409.713 178.496 410.506 178.496C411.299 178.496 412.004 178.659 412.62 178.986C413.236 179.313 413.717 179.765 414.062 180.344C414.417 180.923 414.594 181.585 414.594 182.332C414.594 183.079 414.417 183.741 414.062 184.32C413.717 184.899 413.236 185.351 412.62 185.678C412.004 186.005 411.299 186.168 410.506 186.168ZM410.506 184.782C410.926 184.782 411.299 184.679 411.626 184.474C411.962 184.259 412.219 183.965 412.396 183.592C412.573 183.219 412.662 182.799 412.662 182.332C412.662 181.865 412.573 181.445 412.396 181.072C412.219 180.699 411.962 180.409 411.626 180.204C411.299 179.989 410.926 179.882 410.506 179.882C410.095 179.882 409.722 179.989 409.386 180.204C409.059 180.409 408.803 180.699 408.616 181.072C408.439 181.445 408.35 181.865 408.35 182.332C408.35 182.799 408.439 183.219 408.616 183.592C408.803 183.965 409.059 184.259 409.386 184.474C409.722 184.679 410.095 184.782 410.506 184.782ZM418.043 186.168C417.287 186.168 416.685 185.981 416.237 185.608C415.798 185.235 415.579 184.726 415.579 184.082C415.579 183.559 415.723 183.13 416.013 182.794C416.302 182.449 416.68 182.201 417.147 182.052C417.613 181.903 418.122 181.828 418.673 181.828H420.871V182.822H418.939C418.397 182.822 417.991 182.915 417.721 183.102C417.45 183.289 417.315 183.559 417.315 183.914C417.315 184.25 417.431 184.516 417.665 184.712C417.898 184.908 418.206 185.006 418.589 185.006C418.925 185.006 419.223 184.941 419.485 184.81C419.755 184.67 419.97 184.483 420.129 184.25C420.287 184.017 420.367 183.76 420.367 183.48V181.562C420.367 181.03 420.217 180.633 419.919 180.372C419.629 180.111 419.237 179.98 418.743 179.98C418.313 179.98 417.917 180.069 417.553 180.246C417.189 180.423 416.862 180.68 416.573 181.016L415.831 180.4C416.092 179.84 416.507 179.383 417.077 179.028C417.655 178.673 418.327 178.496 419.093 178.496C419.737 178.496 420.292 178.613 420.759 178.846C421.225 179.07 421.585 179.411 421.837 179.868C422.089 180.316 422.215 180.867 422.215 181.52V186H420.479V184.236L420.745 184.684C420.511 185.132 420.161 185.491 419.695 185.762C419.237 186.033 418.687 186.168 418.043 186.168ZM423.913 178.664H425.677V181.184L425.523 181.002C425.654 180.433 425.878 179.947 426.195 179.546C426.522 179.135 426.909 178.855 427.357 178.706C427.815 178.557 428.291 178.571 428.785 178.748L428.519 180.316C428.006 180.241 427.544 180.283 427.133 180.442C426.732 180.591 426.41 180.848 426.167 181.212C425.934 181.567 425.817 182.005 425.817 182.528V186H423.913V178.664ZM432.727 186.168C432.027 186.168 431.397 186.005 430.837 185.678C430.287 185.351 429.853 184.899 429.535 184.32C429.218 183.741 429.059 183.079 429.059 182.332C429.059 181.585 429.218 180.923 429.535 180.344C429.853 179.765 430.287 179.313 430.837 178.986C431.397 178.659 432.027 178.496 432.727 178.496C433.362 178.496 433.917 178.636 434.393 178.916C434.869 179.196 435.247 179.593 435.527 180.106L435.219 180.498V175.528H437.109V186H435.345V184.012L435.625 184.376C435.364 184.936 434.981 185.375 434.477 185.692C433.973 186.009 433.39 186.168 432.727 186.168ZM433.105 184.74C433.507 184.74 433.866 184.642 434.183 184.446C434.51 184.25 434.762 183.97 434.939 183.606C435.126 183.233 435.219 182.808 435.219 182.332C435.219 181.856 435.126 181.436 434.939 181.072C434.762 180.699 434.51 180.414 434.183 180.218C433.866 180.022 433.507 179.924 433.105 179.924C432.695 179.924 432.326 180.022 431.999 180.218C431.682 180.414 431.43 180.699 431.243 181.072C431.066 181.436 430.977 181.856 430.977 182.332C430.977 182.808 431.066 183.233 431.243 183.606C431.43 183.97 431.682 184.25 431.999 184.446C432.326 184.642 432.695 184.74 433.105 184.74ZM438.898 178.664H440.802V186H438.898V178.664ZM439.85 177.544C439.551 177.544 439.29 177.437 439.066 177.222C438.851 177.007 438.744 176.746 438.744 176.438C438.744 176.13 438.851 175.869 439.066 175.654C439.29 175.439 439.551 175.332 439.85 175.332C440.158 175.332 440.419 175.439 440.634 175.654C440.858 175.869 440.97 176.13 440.97 176.438C440.97 176.746 440.858 177.007 440.634 177.222C440.419 177.437 440.158 177.544 439.85 177.544ZM442.575 178.664H444.353V180.47L444.087 180.106C444.311 179.611 444.652 179.219 445.109 178.93C445.567 178.641 446.099 178.496 446.705 178.496C447.265 178.496 447.746 178.599 448.147 178.804C448.549 179.009 448.861 179.327 449.085 179.756C449.319 180.185 449.435 180.736 449.435 181.408V186H447.531V181.646C447.531 181.273 447.471 180.965 447.349 180.722C447.237 180.47 447.074 180.283 446.859 180.162C446.645 180.041 446.388 179.98 446.089 179.98C445.753 179.98 445.464 180.055 445.221 180.204C444.979 180.353 444.792 180.554 444.661 180.806C444.54 181.058 444.479 181.338 444.479 181.646V186H442.575V178.664ZM453.948 189.08C453.201 189.08 452.576 188.996 452.072 188.828C451.568 188.669 451.195 188.45 450.952 188.17C450.719 187.899 450.602 187.582 450.602 187.218C450.602 186.854 450.723 186.527 450.966 186.238C451.209 185.949 451.545 185.734 451.974 185.594L452.856 185.888C452.641 186.009 452.478 186.145 452.366 186.294C452.263 186.453 452.212 186.635 452.212 186.84C452.212 187.073 452.282 187.269 452.422 187.428C452.562 187.596 452.767 187.727 453.038 187.82C453.318 187.913 453.659 187.96 454.06 187.96C454.536 187.96 454.942 187.904 455.278 187.792C455.614 187.689 455.866 187.545 456.034 187.358C456.202 187.171 456.286 186.957 456.286 186.714C456.286 186.453 456.188 186.247 455.992 186.098C455.796 185.958 455.511 185.888 455.138 185.888H452.856C452.277 185.888 451.839 185.776 451.54 185.552C451.251 185.328 451.106 185.025 451.106 184.642C451.106 184.334 451.218 184.049 451.442 183.788C451.666 183.517 452.007 183.242 452.464 182.962L452.576 182.892L453.514 183.382C453.178 183.559 452.949 183.699 452.828 183.802C452.716 183.905 452.66 184.012 452.66 184.124C452.66 184.245 452.697 184.339 452.772 184.404C452.856 184.46 452.987 184.488 453.164 184.488H455.628C456.459 184.488 457.093 184.665 457.532 185.02C457.971 185.365 458.19 185.837 458.19 186.434C458.19 186.938 458.027 187.391 457.7 187.792C457.373 188.193 456.893 188.506 456.258 188.73C455.623 188.963 454.853 189.08 453.948 189.08ZM454.102 183.676C453.467 183.676 452.903 183.569 452.408 183.354C451.913 183.13 451.526 182.827 451.246 182.444C450.966 182.052 450.826 181.604 450.826 181.1C450.826 180.596 450.966 180.148 451.246 179.756C451.526 179.355 451.913 179.047 452.408 178.832C452.903 178.608 453.467 178.496 454.102 178.496C454.727 178.496 455.287 178.608 455.782 178.832C456.277 179.047 456.659 179.355 456.93 179.756C457.21 180.148 457.35 180.596 457.35 181.1C457.35 181.604 457.215 182.052 456.944 182.444C456.673 182.827 456.291 183.13 455.796 183.354C455.311 183.569 454.746 183.676 454.102 183.676ZM454.102 182.5C454.401 182.5 454.662 182.444 454.886 182.332C455.11 182.211 455.283 182.047 455.404 181.842C455.535 181.637 455.6 181.394 455.6 181.114C455.6 180.703 455.46 180.372 455.18 180.12C454.909 179.868 454.55 179.742 454.102 179.742C453.803 179.742 453.537 179.803 453.304 179.924C453.08 180.036 452.903 180.195 452.772 180.4C452.651 180.605 452.59 180.843 452.59 181.114C452.59 181.525 452.725 181.861 452.996 182.122C453.276 182.374 453.645 182.5 454.102 182.5ZM455.782 179.042C456.015 178.93 456.365 178.823 456.832 178.72C457.299 178.608 457.742 178.552 458.162 178.552V180.05H455.838L455.782 179.042ZM462.457 175.808L469.233 175.808V177.418L463.745 177.418L464.473 176.774V186H462.457V175.808ZM463.339 180.288L468.799 180.288V181.828L463.339 181.828V180.288ZM470.439 175.528H472.343V186H470.439V175.528ZM477.826 186.168C477.033 186.168 476.328 186.005 475.712 185.678C475.096 185.351 474.616 184.899 474.27 184.32C473.925 183.741 473.752 183.079 473.752 182.332C473.752 181.585 473.925 180.923 474.27 180.344C474.616 179.765 475.096 179.313 475.712 178.986C476.328 178.659 477.033 178.496 477.826 178.496C478.62 178.496 479.324 178.659 479.94 178.986C480.556 179.313 481.037 179.765 481.382 180.344C481.737 180.923 481.914 181.585 481.914 182.332C481.914 183.079 481.737 183.741 481.382 184.32C481.037 184.899 480.556 185.351 479.94 185.678C479.324 186.005 478.62 186.168 477.826 186.168ZM477.826 184.782C478.246 184.782 478.62 184.679 478.946 184.474C479.282 184.259 479.539 183.965 479.716 183.592C479.894 183.219 479.982 182.799 479.982 182.332C479.982 181.865 479.894 181.445 479.716 181.072C479.539 180.699 479.282 180.409 478.946 180.204C478.62 179.989 478.246 179.882 477.826 179.882C477.416 179.882 477.042 179.989 476.706 180.204C476.38 180.409 476.123 180.699 475.936 181.072C475.759 181.445 475.67 181.865 475.67 182.332C475.67 182.799 475.759 183.219 475.936 183.592C476.123 183.965 476.38 184.259 476.706 184.474C477.042 184.679 477.416 184.782 477.826 184.782ZM482.358 178.664H484.318L486.082 184.376H485.592L487.314 178.664H488.56L490.254 184.418H489.764L491.528 178.664H493.152L490.66 186H489.232L487.552 180.344H488.028L486.32 186H484.85L482.358 178.664Z" fill="white"/>
</g>
<defs>
<clipPath id="clip0_86_1519">
<rect width="558" height="240" fill="white"/>
</clipPath>
<clipPath id="clip1_86_1519">
<rect width="17.6101" height="28.2688" fill="white" transform="translate(327 159)"/>
</clipPath>
</defs>
</svg>
