<svg width="558" height="240" viewBox="0 0 558 240" fill="none" xmlns="http://www.w3.org/2000/svg">
<g clip-path="url(#clip0_86_1621)">
<rect width="558" height="240" fill="black"/>
<line x1="-15" y1="34.5" x2="572" y2="34.5" stroke="#5E5E67" stroke-dasharray="4 4"/>
<line x1="-15" y1="202.5" x2="572" y2="202.5" stroke="#5E5E67" stroke-dasharray="4 4"/>
<line x1="80.5" y1="-63" x2="80.5" y2="337" stroke="#5E5E67" stroke-dasharray="4 4"/>
<line x1="477.5" y1="-63" x2="477.5" y2="337" stroke="#5E5E67" stroke-dasharray="4 4"/>
<rect x="81" y="35" width="396" height="52" rx="4" fill="#1B1B1D"/>
<path d="M95.608 65.644C93.136 65.644 91.444 63.832 91.444 61.18C91.444 58.552 93.148 56.728 95.608 56.728C98.068 56.728 99.772 58.552 99.772 61.18C99.772 63.832 98.08 65.644 95.608 65.644ZM95.608 64.684C97.396 64.684 98.62 63.256 98.62 61.18C98.62 59.104 97.396 57.688 95.608 57.688C93.82 57.688 92.596 59.104 92.596 61.18C92.596 63.256 93.82 64.684 95.608 64.684ZM102.647 65.5L100.259 59.368H101.435L103.307 64.444L105.179 59.368H106.295L103.907 65.5H102.647ZM109.714 65.644C107.914 65.644 106.726 64.468 106.726 62.44C106.726 60.676 107.83 59.224 109.654 59.224C111.526 59.224 112.522 60.508 112.522 62.32C112.522 62.416 112.522 62.536 112.51 62.656H107.806C107.842 64.132 108.766 64.756 109.726 64.756C110.59 64.756 111.178 64.42 111.418 63.64H112.45C112.126 64.96 111.058 65.644 109.714 65.644ZM109.678 60.112C108.754 60.112 108.034 60.688 107.854 61.804H111.394C111.298 60.676 110.614 60.112 109.678 60.112ZM113.813 65.5V59.368H114.833V60.748C115.085 59.884 115.745 59.368 116.837 59.368H117.017V60.436H116.657C115.445 60.436 114.893 61.072 114.893 62.296V65.5H113.813ZM120.361 65.644C118.705 65.644 117.565 64.384 117.565 62.44C117.565 60.532 118.789 59.224 120.385 59.224C121.369 59.224 122.089 59.62 122.473 60.304V56.872H123.553V65.5H122.533V64.216C122.209 65.056 121.369 65.644 120.361 65.644ZM120.505 64.744C121.621 64.744 122.473 63.928 122.473 62.392C122.473 60.856 121.657 60.124 120.505 60.124C119.497 60.124 118.669 60.904 118.669 62.428C118.669 63.964 119.485 64.744 120.505 64.744ZM127.446 65.644C126.006 65.644 125.178 64.732 125.178 63.148V59.368H126.258V63.016C126.258 64.108 126.726 64.732 127.698 64.732C128.646 64.732 129.366 64 129.366 62.944V59.368H130.446V65.5H129.426V64.504C129.15 65.068 128.49 65.644 127.446 65.644ZM134.733 65.644C132.933 65.644 131.745 64.468 131.745 62.44C131.745 60.676 132.849 59.224 134.673 59.224C136.545 59.224 137.541 60.508 137.541 62.32C137.541 62.416 137.541 62.536 137.529 62.656H132.825C132.861 64.132 133.785 64.756 134.745 64.756C135.609 64.756 136.197 64.42 136.437 63.64H137.469C137.145 64.96 136.077 65.644 134.733 65.644ZM134.697 60.112C133.773 60.112 133.053 60.688 132.873 61.804H136.413C136.317 60.676 135.633 60.112 134.697 60.112ZM143.44 65.5V57.832H140.692V56.872H147.304V57.832H144.556V65.5H143.44ZM149.046 65.644C147.666 65.644 146.874 64.984 146.874 63.916C146.874 62.62 147.906 62.212 149.238 61.984L149.934 61.864C150.522 61.768 150.93 61.636 150.93 61.12C150.93 60.52 150.426 60.112 149.55 60.112C148.614 60.112 148.194 60.556 148.098 61.156H147.054C147.114 60.124 148.014 59.224 149.586 59.224C151.206 59.224 152.01 60.04 152.01 61.468V64.18C152.01 64.504 152.094 64.648 152.466 64.648H152.754V65.512C152.622 65.524 152.382 65.524 152.142 65.524C151.398 65.524 151.038 65.176 151.038 64.636C150.618 65.32 149.874 65.644 149.046 65.644ZM149.178 64.768C150.174 64.768 150.954 64.252 150.954 63.208V62.38C150.822 62.5 150.57 62.584 150.258 62.644L149.502 62.788C148.53 62.992 147.954 63.16 147.954 63.844C147.954 64.456 148.434 64.768 149.178 64.768ZM155.97 65.644C154.422 65.644 153.438 64.936 153.33 63.64H154.374C154.446 64.384 155.07 64.756 155.97 64.756C156.966 64.756 157.446 64.408 157.446 63.808C157.446 63.268 157.062 63.088 156.282 62.968L155.55 62.86C154.158 62.656 153.51 62.128 153.51 61.108C153.51 60.004 154.482 59.224 155.958 59.224C157.398 59.224 158.346 59.98 158.406 61.144H157.362C157.278 60.484 156.714 60.112 155.922 60.112C155.046 60.112 154.566 60.484 154.566 61C154.566 61.528 154.938 61.756 155.778 61.888L156.522 62.008C157.866 62.212 158.514 62.68 158.514 63.724C158.514 64.9 157.53 65.644 155.97 65.644ZM159.762 65.5V56.872H160.842V62.104L163.83 59.368H165.246L162.45 61.936L165.318 65.5H163.974L161.658 62.608L160.842 63.34V65.5H159.762ZM168.368 65.644C166.82 65.644 165.836 64.936 165.728 63.64H166.772C166.844 64.384 167.468 64.756 168.368 64.756C169.364 64.756 169.844 64.408 169.844 63.808C169.844 63.268 169.46 63.088 168.68 62.968L167.948 62.86C166.556 62.656 165.908 62.128 165.908 61.108C165.908 60.004 166.88 59.224 168.356 59.224C169.796 59.224 170.744 59.98 170.804 61.144H169.76C169.676 60.484 169.112 60.112 168.32 60.112C167.444 60.112 166.964 60.484 166.964 61C166.964 61.528 167.336 61.756 168.176 61.888L168.92 62.008C170.264 62.212 170.912 62.68 170.912 63.724C170.912 64.9 169.928 65.644 168.368 65.644Z" fill="white"/>
<rect x="435" y="45" width="32" height="32" rx="16" fill="#FF4A4A"/>
<path d="M450.92 68.74C447.9 68.74 446.06 67.06 445.82 64.52H448.42C448.68 65.78 449.5 66.56 450.92 66.56C452.48 66.56 453.6 65.46 453.6 63.72C453.6 62.06 452.54 61.02 451 61.02C449.72 61.02 448.88 61.66 448.44 62.42L446.04 62.3L446.66 54.12H455.68V56.4H448.8L448.5 60C449.14 59.42 450.2 58.94 451.52 58.94C454.22 58.94 456.28 60.72 456.28 63.64C456.28 66.5 454.16 68.74 450.92 68.74Z" fill="white"/>
<rect x="81" y="95" width="171" height="107" rx="4" fill="#1B1B1D"/>
<path d="M93.604 120L91.252 111.372H92.416L94.288 118.656L96.244 111.372H97.588L99.556 118.656L101.404 111.372H102.544L100.228 120H98.896L96.916 112.776L94.9 120H93.604ZM105.777 120.144C103.905 120.144 102.729 118.872 102.729 116.94C102.729 115.044 103.989 113.724 105.777 113.724C107.649 113.724 108.825 114.996 108.825 116.928C108.825 118.824 107.565 120.144 105.777 120.144ZM105.777 119.244C106.845 119.244 107.721 118.464 107.721 116.928C107.721 115.404 106.845 114.624 105.777 114.624C104.709 114.624 103.833 115.404 103.833 116.928C103.833 118.464 104.709 119.244 105.777 119.244ZM110.121 120V113.868H111.141V115.248C111.393 114.384 112.053 113.868 113.145 113.868H113.325V114.936H112.965C111.753 114.936 111.201 115.572 111.201 116.796V120H110.121ZM114.34 120V111.372H115.42V116.604L118.408 113.868H119.824L117.028 116.436L119.896 120H118.552L116.236 117.108L115.42 117.84V120H114.34ZM120.797 120V111.372H121.877V120H120.797ZM126.227 120.144C124.355 120.144 123.179 118.872 123.179 116.94C123.179 115.044 124.439 113.724 126.227 113.724C128.099 113.724 129.275 114.996 129.275 116.928C129.275 118.824 128.015 120.144 126.227 120.144ZM126.227 119.244C127.295 119.244 128.171 118.464 128.171 116.928C128.171 115.404 127.295 114.624 126.227 114.624C125.159 114.624 124.283 115.404 124.283 116.928C124.283 118.464 125.159 119.244 126.227 119.244ZM132.37 120.144C130.99 120.144 130.198 119.484 130.198 118.416C130.198 117.12 131.23 116.712 132.562 116.484L133.258 116.364C133.846 116.268 134.254 116.136 134.254 115.62C134.254 115.02 133.75 114.612 132.874 114.612C131.938 114.612 131.518 115.056 131.422 115.656H130.378C130.438 114.624 131.338 113.724 132.91 113.724C134.53 113.724 135.334 114.54 135.334 115.968V118.68C135.334 119.004 135.418 119.148 135.79 119.148H136.078V120.012C135.946 120.024 135.706 120.024 135.466 120.024C134.722 120.024 134.362 119.676 134.362 119.136C133.942 119.82 133.198 120.144 132.37 120.144ZM132.502 119.268C133.498 119.268 134.278 118.752 134.278 117.708V116.88C134.146 117 133.894 117.084 133.582 117.144L132.826 117.288C131.854 117.492 131.278 117.66 131.278 118.344C131.278 118.956 131.758 119.268 132.502 119.268ZM139.463 120.144C137.807 120.144 136.667 118.884 136.667 116.94C136.667 115.032 137.891 113.724 139.487 113.724C140.471 113.724 141.191 114.12 141.575 114.804V111.372H142.655V120H141.635V118.716C141.311 119.556 140.471 120.144 139.463 120.144ZM139.607 119.244C140.723 119.244 141.575 118.428 141.575 116.892C141.575 115.356 140.759 114.624 139.607 114.624C138.599 114.624 137.771 115.404 137.771 116.928C137.771 118.464 138.587 119.244 139.607 119.244Z" fill="white"/>
<rect x="91" y="136" width="24" height="24" rx="12" fill="#8F33EE"/>
<path d="M97.73 152V144.81H100.34C102.06 144.81 103.06 145.74 103.06 147.2C103.06 148.75 101.98 149.63 100.23 149.63H99.04V152H97.73ZM99.04 148.51H100.19C101.22 148.51 101.71 148.03 101.71 147.23C101.71 146.4 101.25 145.93 100.21 145.93H99.04V148.51ZM106.508 152.12C104.688 152.12 103.768 151.27 103.588 149.82H104.938C105.028 150.57 105.518 151.04 106.538 151.04C107.448 151.04 107.998 150.62 107.998 149.98C107.998 149.38 107.568 149.15 106.888 149.03L105.998 148.87C104.548 148.63 103.788 148.01 103.788 146.86C103.788 145.55 104.788 144.69 106.468 144.69C108.078 144.69 109.078 145.52 109.218 146.83H107.868C107.748 146.17 107.258 145.77 106.448 145.77C105.608 145.77 105.128 146.16 105.128 146.76C105.128 147.33 105.538 147.57 106.238 147.7L107.138 147.85C108.538 148.09 109.318 148.68 109.318 149.86C109.318 151.27 108.258 152.12 106.508 152.12Z" fill="white"/>
<path d="M125 148C125 146.343 126.343 145 128 145H239C240.657 145 242 146.343 242 148C242 149.657 240.657 151 239 151H128C126.343 151 125 149.657 125 148Z" fill="#2B2B30"/>
<path d="M125 148C125 146.343 126.343 145 128 145H217C218.657 145 220 146.343 220 148C220 149.657 218.657 151 217 151H128C126.343 151 125 149.657 125 148Z" fill="#42FFF6"/>
<rect x="91" y="170" width="24" height="24" rx="12" fill="#B175EF"/>
<path d="M98.75 186.12C96.79 186.12 95.34 184.82 95.34 182.41C95.34 180.2 96.85 178.69 98.91 178.69C100.69 178.69 101.85 179.66 102.15 181.14H100.77C100.54 180.28 99.86 179.81 98.88 179.81C97.63 179.81 96.71 180.8 96.71 182.42C96.71 184.11 97.59 185.01 98.91 185.01C100.12 185.01 100.8 184.22 100.9 183.28H99.06V182.24H102.23V186H101.14L101.1 184.84C100.62 185.65 99.79 186.12 98.75 186.12ZM103.591 186V178.81H104.901V181.78H108.341V178.81H109.651V186H108.341V182.9H104.901V186H103.591Z" fill="white"/>
<path d="M125 182C125 180.343 126.343 179 128 179H239C240.657 179 242 180.343 242 182C242 183.657 240.657 185 239 185H128C126.343 185 125 183.657 125 182Z" fill="#2B2B30"/>
<path d="M125 182C125 180.343 126.343 179 128 179H171C172.657 179 174 180.343 174 182C174 183.657 172.657 185 171 185H128C126.343 185 125 183.657 125 182Z" fill="#42FFF6"/>
<rect x="258" y="95" width="219" height="107" rx="4" fill="#1B1B1D"/>
<path d="M272.308 120.144C269.884 120.144 268.84 118.824 268.84 116.52V111.372H269.956V116.52C269.956 118.236 270.712 119.184 272.32 119.184C273.88 119.184 274.684 118.236 274.684 116.52V111.372H275.8V116.52C275.8 118.752 274.684 120.144 272.308 120.144ZM277.477 120V113.868H278.497V114.876C278.773 114.336 279.433 113.724 280.501 113.724C282.049 113.724 282.817 114.648 282.817 116.232V120H281.737V116.352C281.737 115.26 281.257 114.636 280.273 114.636C279.301 114.636 278.557 115.368 278.557 116.436V120H277.477ZM286.238 120.144C284.858 120.144 284.066 119.484 284.066 118.416C284.066 117.12 285.098 116.712 286.43 116.484L287.126 116.364C287.714 116.268 288.122 116.136 288.122 115.62C288.122 115.02 287.618 114.612 286.742 114.612C285.806 114.612 285.386 115.056 285.29 115.656H284.246C284.306 114.624 285.206 113.724 286.778 113.724C288.398 113.724 289.202 114.54 289.202 115.968V118.68C289.202 119.004 289.286 119.148 289.658 119.148H289.946V120.012C289.814 120.024 289.574 120.024 289.334 120.024C288.59 120.024 288.23 119.676 288.23 119.136C287.81 119.82 287.066 120.144 286.238 120.144ZM286.37 119.268C287.366 119.268 288.146 118.752 288.146 117.708V116.88C288.014 117 287.762 117.084 287.45 117.144L286.694 117.288C285.722 117.492 285.146 117.66 285.146 118.344C285.146 118.956 285.626 119.268 286.37 119.268ZM293.161 120.144C291.613 120.144 290.629 119.436 290.521 118.14H291.565C291.637 118.884 292.261 119.256 293.161 119.256C294.157 119.256 294.637 118.908 294.637 118.308C294.637 117.768 294.253 117.588 293.473 117.468L292.741 117.36C291.349 117.156 290.701 116.628 290.701 115.608C290.701 114.504 291.673 113.724 293.149 113.724C294.589 113.724 295.537 114.48 295.597 115.644H294.553C294.469 114.984 293.905 114.612 293.113 114.612C292.237 114.612 291.757 114.984 291.757 115.5C291.757 116.028 292.129 116.256 292.969 116.388L293.713 116.508C295.057 116.712 295.705 117.18 295.705 118.224C295.705 119.4 294.721 120.144 293.161 120.144ZM299.15 120.144C297.602 120.144 296.618 119.436 296.51 118.14H297.554C297.626 118.884 298.25 119.256 299.15 119.256C300.146 119.256 300.626 118.908 300.626 118.308C300.626 117.768 300.242 117.588 299.462 117.468L298.73 117.36C297.338 117.156 296.69 116.628 296.69 115.608C296.69 114.504 297.662 113.724 299.138 113.724C300.578 113.724 301.526 114.48 301.586 115.644H300.542C300.458 114.984 299.894 114.612 299.102 114.612C298.226 114.612 297.746 114.984 297.746 115.5C297.746 116.028 298.118 116.256 298.958 116.388L299.702 116.508C301.046 116.712 301.694 117.18 301.694 118.224C301.694 119.4 300.71 120.144 299.15 120.144ZM303.482 112.668C303.086 112.668 302.786 112.368 302.786 111.972C302.786 111.576 303.086 111.276 303.482 111.276C303.878 111.276 304.178 111.576 304.178 111.972C304.178 112.368 303.878 112.668 303.482 112.668ZM302.942 120V113.868H304.022V120H302.942ZM308.263 122.472C306.607 122.472 305.587 121.692 305.527 120.408H306.571C306.667 121.152 307.207 121.572 308.299 121.572C309.535 121.572 310.195 121.044 310.195 119.76V118.596C309.859 119.316 309.067 119.796 308.083 119.796C306.487 119.796 305.323 118.572 305.323 116.808C305.323 115.02 306.547 113.724 308.179 113.724C309.103 113.724 309.859 114.18 310.243 114.9V113.868H311.263V119.724C311.263 121.548 310.135 122.472 308.263 122.472ZM308.251 118.896C309.379 118.896 310.183 118.14 310.183 116.796C310.183 115.464 309.367 114.624 308.251 114.624C307.159 114.624 306.427 115.476 306.427 116.796C306.427 118.068 307.171 118.896 308.251 118.896ZM312.938 120V113.868H313.958V114.876C314.234 114.336 314.894 113.724 315.962 113.724C317.51 113.724 318.278 114.648 318.278 116.232V120H317.198V116.352C317.198 115.26 316.718 114.636 315.734 114.636C314.762 114.636 314.018 115.368 314.018 116.436V120H312.938ZM322.503 120.144C320.703 120.144 319.515 118.968 319.515 116.94C319.515 115.176 320.619 113.724 322.443 113.724C324.315 113.724 325.311 115.008 325.311 116.82C325.311 116.916 325.311 117.036 325.299 117.156H320.595C320.631 118.632 321.555 119.256 322.515 119.256C323.379 119.256 323.967 118.92 324.207 118.14H325.239C324.915 119.46 323.847 120.144 322.503 120.144ZM322.467 114.612C321.543 114.612 320.823 115.188 320.643 116.304H324.183C324.087 115.176 323.403 114.612 322.467 114.612ZM329.014 120.144C327.358 120.144 326.218 118.884 326.218 116.94C326.218 115.032 327.442 113.724 329.038 113.724C330.022 113.724 330.742 114.12 331.126 114.804V111.372H332.206V120H331.186V118.716C330.862 119.556 330.022 120.144 329.014 120.144ZM329.158 119.244C330.274 119.244 331.126 118.428 331.126 116.892C331.126 115.356 330.31 114.624 329.158 114.624C328.15 114.624 327.322 115.404 327.322 116.928C327.322 118.464 328.138 119.244 329.158 119.244Z" fill="white"/>
<path d="M268.432 145V144.076L271.036 141.796C272.488 140.512 273.148 139.696 273.148 138.772C273.148 137.776 272.5 137.176 271.456 137.176C270.376 137.176 269.68 137.884 269.608 139.036H268.48C268.588 137.272 269.752 136.228 271.504 136.228C273.208 136.228 274.288 137.224 274.288 138.724C274.288 140.044 273.328 141.04 271.684 142.48L269.944 144.016H274.432V145H268.432ZM279.118 145V143.044H275.026V142.132L278.734 136.372H279.886L276.214 142.096H279.118V139.648H280.186V142.096H281.662V143.044H280.186V145H279.118Z" fill="white"/>
<path d="M268.632 157V151.248H269.448L272.544 155.84V151.248H273.264V157H272.504L269.352 152.336V157H268.632ZM276.234 157.096C274.986 157.096 274.202 156.248 274.202 154.96C274.202 153.696 275.042 152.816 276.234 152.816C277.482 152.816 278.266 153.664 278.266 154.952C278.266 156.216 277.426 157.096 276.234 157.096ZM276.234 156.496C276.946 156.496 277.53 155.976 277.53 154.952C277.53 153.936 276.946 153.416 276.234 153.416C275.522 153.416 274.938 153.936 274.938 154.952C274.938 155.976 275.522 156.496 276.234 156.496ZM281.147 157H280.539C279.699 157 279.419 156.608 279.419 155.912V153.512H278.691V152.912H278.931C279.371 152.912 279.475 152.824 279.475 152.376V151.728H280.139V152.912H281.147V153.512H280.139V155.864C280.139 156.248 280.275 156.4 280.667 156.4H281.147V157ZM283.726 157V151.248H285.726C287.374 151.248 288.574 152.248 288.574 154.088C288.574 155.944 287.446 157 285.638 157H283.726ZM284.47 156.36H285.606C286.966 156.36 287.806 155.512 287.806 154.128C287.806 152.736 286.998 151.888 285.686 151.888H284.47V156.36ZM291.242 157.096C289.994 157.096 289.21 156.248 289.21 154.96C289.21 153.696 290.05 152.816 291.242 152.816C292.49 152.816 293.274 153.664 293.274 154.952C293.274 156.216 292.434 157.096 291.242 157.096ZM291.242 156.496C291.954 156.496 292.538 155.976 292.538 154.952C292.538 153.936 291.954 153.416 291.242 153.416C290.53 153.416 289.946 153.936 289.946 154.952C289.946 155.976 290.53 156.496 291.242 156.496ZM294.138 157V152.912H294.818V153.584C295.002 153.224 295.442 152.816 296.154 152.816C297.186 152.816 297.698 153.432 297.698 154.488V157H296.978V154.568C296.978 153.84 296.658 153.424 296.002 153.424C295.354 153.424 294.858 153.912 294.858 154.624V157H294.138ZM300.515 157.096C299.315 157.096 298.523 156.312 298.523 154.96C298.523 153.784 299.259 152.816 300.475 152.816C301.723 152.816 302.387 153.672 302.387 154.88C302.387 154.944 302.387 155.024 302.379 155.104H299.243C299.267 156.088 299.883 156.504 300.523 156.504C301.099 156.504 301.491 156.28 301.651 155.76H302.339C302.123 156.64 301.411 157.096 300.515 157.096ZM300.491 153.408C299.875 153.408 299.395 153.792 299.275 154.536H301.635C301.571 153.784 301.115 153.408 300.491 153.408Z" fill="white"/>
<path d="M313 146.5C313 144.843 314.343 143.5 316 143.5H427C428.657 143.5 430 144.843 430 146.5C430 148.157 428.657 149.5 427 149.5H316C314.343 149.5 313 148.157 313 146.5Z" fill="#2B2B30"/>
<path d="M313 146.5C313 144.843 314.343 143.5 316 143.5H405C406.657 143.5 408 144.843 408 146.5C408 148.157 406.657 149.5 405 149.5H316C314.343 149.5 313 148.157 313 146.5Z" fill="#42FFF6"/>
<path d="M271.516 178.144C269.692 178.144 268.516 177.22 268.42 175.528H269.548C269.68 176.668 270.328 177.196 271.516 177.196C272.704 177.196 273.46 176.572 273.46 175.6C273.46 174.676 272.764 174.088 271.468 174.088H270.46V173.128H271.504C272.5 173.128 273.244 172.66 273.244 171.64C273.244 170.764 272.572 170.176 271.516 170.176C270.304 170.176 269.716 170.848 269.62 171.784H268.492C268.6 170.32 269.68 169.228 271.54 169.228C273.352 169.228 274.384 170.248 274.384 171.592C274.384 172.588 273.832 173.284 273.004 173.584C274.024 173.836 274.6 174.58 274.6 175.624C274.6 177.028 273.484 178.144 271.516 178.144ZM275.592 178V177.076L278.196 174.796C279.648 173.512 280.308 172.696 280.308 171.772C280.308 170.776 279.66 170.176 278.616 170.176C277.536 170.176 276.84 170.884 276.768 172.036H275.64C275.748 170.272 276.912 169.228 278.664 169.228C280.368 169.228 281.448 170.224 281.448 171.724C281.448 173.044 280.488 174.04 278.844 175.48L277.104 177.016H281.592V178H275.592Z" fill="white"/>
<path d="M268.632 190V184.248H270.632C272.28 184.248 273.48 185.248 273.48 187.088C273.48 188.944 272.352 190 270.544 190H268.632ZM269.376 189.36H270.512C271.872 189.36 272.712 188.512 272.712 187.128C272.712 185.736 271.904 184.888 270.592 184.888H269.376V189.36ZM276.149 190.096C274.901 190.096 274.117 189.248 274.117 187.96C274.117 186.696 274.957 185.816 276.149 185.816C277.397 185.816 278.181 186.664 278.181 187.952C278.181 189.216 277.341 190.096 276.149 190.096ZM276.149 189.496C276.861 189.496 277.445 188.976 277.445 187.952C277.445 186.936 276.861 186.416 276.149 186.416C275.437 186.416 274.853 186.936 274.853 187.952C274.853 188.976 275.437 189.496 276.149 189.496ZM279.404 185.112C279.14 185.112 278.94 184.912 278.94 184.648C278.94 184.384 279.14 184.184 279.404 184.184C279.668 184.184 279.868 184.384 279.868 184.648C279.868 184.912 279.668 185.112 279.404 185.112ZM279.044 190V185.912H279.764V190H279.044ZM280.888 190V185.912H281.568V186.584C281.752 186.224 282.192 185.816 282.904 185.816C283.936 185.816 284.448 186.432 284.448 187.488V190H283.728V187.568C283.728 186.84 283.408 186.424 282.752 186.424C282.104 186.424 281.608 186.912 281.608 187.624V190H280.888ZM287.233 191.648C286.129 191.648 285.449 191.128 285.409 190.272H286.105C286.169 190.768 286.529 191.048 287.257 191.048C288.081 191.048 288.521 190.696 288.521 189.84V189.064C288.297 189.544 287.769 189.864 287.113 189.864C286.049 189.864 285.273 189.048 285.273 187.872C285.273 186.68 286.089 185.816 287.177 185.816C287.793 185.816 288.297 186.12 288.553 186.6V185.912H289.233V189.816C289.233 191.032 288.481 191.648 287.233 191.648ZM287.225 189.264C287.977 189.264 288.513 188.76 288.513 187.864C288.513 186.976 287.969 186.416 287.225 186.416C286.497 186.416 286.009 186.984 286.009 187.864C286.009 188.712 286.505 189.264 287.225 189.264Z" fill="white"/>
<path d="M300 179.5C300 177.567 301.567 176 303.5 176H413.5C415.433 176 417 177.567 417 179.5C417 181.433 415.433 183 413.5 183H303.5C301.567 183 300 181.433 300 179.5Z" fill="#2B2B30"/>
<path d="M300 179.5C300 177.567 301.567 176 303.5 176H354.5C356.433 176 358 177.567 358 179.5C358 181.433 356.433 183 354.5 183H303.5C301.567 183 300 181.433 300 179.5Z" fill="#8F33EE"/>
<path d="M300 179.5C300 177.567 301.567 176 303.5 176H342.5C344.433 176 346 177.567 346 179.5C346 181.433 344.433 183 342.5 183H303.5C301.567 183 300 181.433 300 179.5Z" fill="#B175EF"/>
<path d="M300 179.5C300 177.567 301.567 176 303.5 176H329.5C331.433 176 333 177.567 333 179.5C333 181.433 331.433 183 329.5 183H303.5C301.567 183 300 181.433 300 179.5Z" fill="#42FFF6"/>
<rect x="288" y="110" width="201" height="60" rx="6" fill="#3A3A40"/>
<path d="M288 116C288 112.686 290.686 110 294 110H348V170H294C290.686 170 288 167.314 288 164V116Z" fill="white"/>
<g clip-path="url(#clip1_86_1621)">
<path d="M326.646 147.176C325.927 150.99 322.37 153.504 318.09 153.504C313.81 153.504 310.193 151.288 309.514 147.176H313.068C313.724 148.932 315.424 150.492 318.09 150.492C320.756 150.492 322.405 148.932 323.093 147.176H326.646Z" fill="black"/>
<path d="M325.01 132.266H321.574L323.996 131.308C323.996 131.308 323.986 131.299 323.98 131.293L325.553 130.671V125.504L322.065 126.784V130.199C320.876 129.707 319.523 129.451 318.09 129.451C313.287 129.451 309.394 132.462 309.394 137.237C309.394 142.281 313.287 145.023 318.09 145.023C322.893 145.023 326.786 141.856 326.786 137.237C326.786 135.214 326.126 133.537 325.01 132.266ZM318.09 142.011C314.593 142.011 312.757 139.875 312.757 137.237C312.757 134.599 314.615 132.462 318.09 132.462C321.564 132.462 323.422 134.599 323.422 137.237C323.422 139.875 321.444 142.011 318.09 142.011Z" fill="black"/>
</g>
<path d="M363.076 136.144C362.212 136.144 361.44 135.952 360.76 135.568C360.08 135.184 359.548 134.652 359.164 133.972C358.78 133.284 358.588 132.504 358.588 131.632C358.588 130.76 358.78 129.984 359.164 129.304C359.548 128.616 360.08 128.08 360.76 127.696C361.44 127.312 362.212 127.12 363.076 127.12C363.932 127.12 364.7 127.312 365.38 127.696C366.068 128.08 366.604 128.616 366.988 129.304C367.372 129.984 367.564 130.76 367.564 131.632C367.564 132.504 367.372 133.284 366.988 133.972C366.604 134.652 366.068 135.184 365.38 135.568C364.7 135.952 363.932 136.144 363.076 136.144ZM363.076 135.22C363.7 135.22 364.26 135.068 364.756 134.764C365.252 134.452 365.64 134.024 365.92 133.48C366.2 132.936 366.34 132.32 366.34 131.632C366.34 130.944 366.2 130.328 365.92 129.784C365.64 129.24 365.252 128.816 364.756 128.512C364.26 128.2 363.7 128.044 363.076 128.044C362.444 128.044 361.88 128.2 361.384 128.512C360.888 128.816 360.5 129.24 360.22 129.784C359.948 130.328 359.812 130.944 359.812 131.632C359.812 132.32 359.948 132.936 360.22 133.48C360.5 134.024 360.888 134.452 361.384 134.764C361.88 135.068 362.444 135.22 363.076 135.22ZM368.307 129.712H369.471L371.727 135.58H371.103L373.359 129.712H374.319L371.787 136H370.839L368.307 129.712ZM378.164 136.144C377.548 136.144 376.988 136.004 376.484 135.724C375.988 135.444 375.596 135.052 375.308 134.548C375.028 134.044 374.888 133.472 374.888 132.832C374.888 132.208 375.028 131.648 375.308 131.152C375.588 130.656 375.972 130.268 376.46 129.988C376.956 129.708 377.512 129.568 378.128 129.568C378.752 129.568 379.292 129.72 379.748 130.024C380.212 130.32 380.56 130.72 380.792 131.224C381.032 131.728 381.14 132.28 381.116 132.88H375.38V132.184H380.468L380.036 132.592C380.044 132.152 379.976 131.756 379.832 131.404C379.696 131.052 379.48 130.776 379.184 130.576C378.896 130.368 378.544 130.264 378.128 130.264C377.72 130.264 377.352 130.368 377.024 130.576C376.696 130.776 376.436 131.068 376.244 131.452C376.06 131.828 375.968 132.272 375.968 132.784C375.968 133.28 376.068 133.716 376.268 134.092C376.476 134.468 376.756 134.76 377.108 134.968C377.468 135.168 377.872 135.268 378.32 135.268C378.816 135.268 379.264 135.152 379.664 134.92C380.064 134.688 380.392 134.372 380.648 133.972L381.14 134.248C381.02 134.552 380.824 134.852 380.552 135.148C380.28 135.436 379.936 135.676 379.52 135.868C379.112 136.052 378.66 136.144 378.164 136.144ZM382.572 129.712H383.592V131.776L383.484 131.668C383.596 131.22 383.784 130.832 384.048 130.504C384.32 130.168 384.644 129.932 385.02 129.796C385.396 129.652 385.796 129.64 386.22 129.76L386.076 130.66C385.62 130.604 385.208 130.66 384.84 130.828C384.48 130.996 384.192 131.256 383.976 131.608C383.768 131.96 383.664 132.368 383.664 132.832V136H382.572V129.712ZM389.704 136.144C389.104 136.144 388.564 136.004 388.084 135.724C387.604 135.444 387.224 135.056 386.944 134.56C386.672 134.056 386.536 133.488 386.536 132.856C386.536 132.224 386.672 131.66 386.944 131.164C387.224 130.66 387.604 130.268 388.084 129.988C388.564 129.708 389.104 129.568 389.704 129.568C390.256 129.568 390.744 129.692 391.168 129.94C391.6 130.188 391.948 130.536 392.212 130.984L392.032 131.2V127.024H393.124V136H392.104V134.416L392.272 134.632C392.024 135.104 391.676 135.476 391.228 135.748C390.78 136.012 390.272 136.144 389.704 136.144ZM389.836 135.304C390.252 135.304 390.628 135.204 390.964 135.004C391.3 134.804 391.56 134.52 391.744 134.152C391.936 133.776 392.032 133.344 392.032 132.856C392.032 132.368 391.936 131.94 391.744 131.572C391.56 131.196 391.3 130.908 390.964 130.708C390.628 130.508 390.252 130.408 389.836 130.408C389.42 130.408 389.044 130.508 388.708 130.708C388.372 130.908 388.108 131.196 387.916 131.572C387.732 131.94 387.64 132.368 387.64 132.856C387.64 133.344 387.732 133.776 387.916 134.152C388.108 134.52 388.372 134.804 388.708 135.004C389.044 135.204 389.42 135.304 389.836 135.304ZM397.087 136.144C396.639 136.144 396.239 136.06 395.887 135.892C395.535 135.724 395.251 135.452 395.035 135.076C394.827 134.7 394.723 134.216 394.723 133.624V129.712H395.815V133.504C395.815 133.904 395.875 134.236 395.995 134.5C396.115 134.764 396.287 134.96 396.511 135.088C396.743 135.216 397.023 135.28 397.351 135.28C397.735 135.28 398.059 135.2 398.323 135.04C398.587 134.872 398.787 134.656 398.923 134.392C399.059 134.12 399.127 133.824 399.127 133.504V129.712H400.219V136H399.187V134.704L399.355 134.956C399.131 135.324 398.827 135.616 398.443 135.832C398.059 136.04 397.607 136.144 397.087 136.144ZM404.941 136.144C404.325 136.144 403.765 136.004 403.261 135.724C402.765 135.444 402.373 135.052 402.085 134.548C401.805 134.044 401.665 133.472 401.665 132.832C401.665 132.208 401.805 131.648 402.085 131.152C402.365 130.656 402.749 130.268 403.237 129.988C403.733 129.708 404.289 129.568 404.905 129.568C405.529 129.568 406.069 129.72 406.525 130.024C406.989 130.32 407.337 130.72 407.569 131.224C407.809 131.728 407.917 132.28 407.893 132.88H402.157V132.184H407.245L406.813 132.592C406.821 132.152 406.753 131.756 406.609 131.404C406.473 131.052 406.257 130.776 405.961 130.576C405.673 130.368 405.321 130.264 404.905 130.264C404.497 130.264 404.129 130.368 403.801 130.576C403.473 130.776 403.213 131.068 403.021 131.452C402.837 131.828 402.745 132.272 402.745 132.784C402.745 133.28 402.845 133.716 403.045 134.092C403.253 134.468 403.533 134.76 403.885 134.968C404.245 135.168 404.649 135.268 405.097 135.268C405.593 135.268 406.041 135.152 406.441 134.92C406.841 134.688 407.169 134.372 407.425 133.972L407.917 134.248C407.797 134.552 407.601 134.852 407.329 135.148C407.057 135.436 406.713 135.676 406.297 135.868C405.889 136.052 405.437 136.144 404.941 136.144Z" fill="#FF3131"/>
<path d="M359.008 142.808H363.18C363.973 142.808 364.655 142.934 365.224 143.186C365.803 143.438 366.246 143.802 366.554 144.278C366.862 144.754 367.016 145.319 367.016 145.972C367.016 146.607 366.843 147.157 366.498 147.624C366.153 148.091 365.691 148.45 365.112 148.702C364.533 148.954 363.899 149.08 363.208 149.08H360.016V147.582H363.054C363.642 147.582 364.113 147.442 364.468 147.162C364.823 146.882 365 146.485 365 145.972C365 145.459 364.827 145.067 364.482 144.796C364.137 144.516 363.647 144.376 363.012 144.376H360.282L361.024 143.844V153H359.008V142.808ZM362.522 147.876L364.524 147.764L367.156 153H364.972L362.522 147.876ZM371.903 153.168C371.109 153.168 370.405 153.005 369.789 152.678C369.173 152.351 368.692 151.899 368.347 151.32C368.001 150.741 367.829 150.079 367.829 149.332C367.829 148.585 368.001 147.923 368.347 147.344C368.692 146.765 369.173 146.313 369.789 145.986C370.405 145.659 371.109 145.496 371.903 145.496C372.696 145.496 373.401 145.659 374.017 145.986C374.633 146.313 375.113 146.765 375.459 147.344C375.813 147.923 375.991 148.585 375.991 149.332C375.991 150.079 375.813 150.741 375.459 151.32C375.113 151.899 374.633 152.351 374.017 152.678C373.401 153.005 372.696 153.168 371.903 153.168ZM371.903 151.782C372.323 151.782 372.696 151.679 373.023 151.474C373.359 151.259 373.615 150.965 373.793 150.592C373.97 150.219 374.059 149.799 374.059 149.332C374.059 148.865 373.97 148.445 373.793 148.072C373.615 147.699 373.359 147.409 373.023 147.204C372.696 146.989 372.323 146.882 371.903 146.882C371.492 146.882 371.119 146.989 370.783 147.204C370.456 147.409 370.199 147.699 370.013 148.072C369.835 148.445 369.747 148.865 369.747 149.332C369.747 149.799 369.835 150.219 370.013 150.592C370.199 150.965 370.456 151.259 370.783 151.474C371.119 151.679 371.492 151.782 371.903 151.782ZM380.04 153.168C379.489 153.168 379.009 153.065 378.598 152.86C378.197 152.655 377.884 152.337 377.66 151.908C377.436 151.479 377.324 150.928 377.324 150.256V145.664H379.214V150.018C379.214 150.391 379.27 150.704 379.382 150.956C379.503 151.199 379.671 151.381 379.886 151.502C380.101 151.623 380.357 151.684 380.656 151.684C380.992 151.684 381.281 151.609 381.524 151.46C381.767 151.311 381.953 151.11 382.084 150.858C382.215 150.606 382.28 150.326 382.28 150.018V145.664H384.17V153H382.392V151.194L382.672 151.558C382.439 152.053 382.093 152.445 381.636 152.734C381.179 153.023 380.647 153.168 380.04 153.168ZM385.939 145.664H387.717V147.47L387.451 147.106C387.675 146.611 388.015 146.219 388.473 145.93C388.93 145.641 389.462 145.496 390.069 145.496C390.629 145.496 391.109 145.599 391.511 145.804C391.912 146.009 392.225 146.327 392.449 146.756C392.682 147.185 392.799 147.736 392.799 148.408V153H390.895V148.646C390.895 148.273 390.834 147.965 390.713 147.722C390.601 147.47 390.437 147.283 390.223 147.162C390.008 147.041 389.751 146.98 389.453 146.98C389.117 146.98 388.827 147.055 388.585 147.204C388.342 147.353 388.155 147.554 388.025 147.806C387.903 148.058 387.843 148.338 387.843 148.646V153H385.939V145.664ZM397.815 153.168C397.115 153.168 396.485 153.005 395.925 152.678C395.375 152.351 394.941 151.899 394.623 151.32C394.306 150.741 394.147 150.079 394.147 149.332C394.147 148.585 394.306 147.923 394.623 147.344C394.941 146.765 395.375 146.313 395.925 145.986C396.485 145.659 397.115 145.496 397.815 145.496C398.45 145.496 399.005 145.636 399.481 145.916C399.957 146.196 400.335 146.593 400.615 147.106L400.307 147.498V142.528H402.197V153H400.433V151.012L400.713 151.376C400.452 151.936 400.069 152.375 399.565 152.692C399.061 153.009 398.478 153.168 397.815 153.168ZM398.193 151.74C398.595 151.74 398.954 151.642 399.271 151.446C399.598 151.25 399.85 150.97 400.027 150.606C400.214 150.233 400.307 149.808 400.307 149.332C400.307 148.856 400.214 148.436 400.027 148.072C399.85 147.699 399.598 147.414 399.271 147.218C398.954 147.022 398.595 146.924 398.193 146.924C397.783 146.924 397.414 147.022 397.087 147.218C396.77 147.414 396.518 147.699 396.331 148.072C396.154 148.436 396.065 148.856 396.065 149.332C396.065 149.808 396.154 150.233 396.331 150.606C396.518 150.97 396.77 151.25 397.087 151.446C397.414 151.642 397.783 151.74 398.193 151.74ZM408.466 144.096L409.908 144.446L406.506 145.832L406.114 144.894L409.11 142.808H410.426V153H408.466V144.096ZM415.377 142.808H419.549C420.342 142.808 421.024 142.934 421.593 143.186C422.172 143.438 422.615 143.802 422.923 144.278C423.231 144.754 423.385 145.319 423.385 145.972C423.385 146.607 423.212 147.157 422.867 147.624C422.522 148.091 422.06 148.45 421.481 148.702C420.902 148.954 420.268 149.08 419.577 149.08H416.385V147.582H419.423C420.011 147.582 420.482 147.442 420.837 147.162C421.192 146.882 421.369 146.485 421.369 145.972C421.369 145.459 421.196 145.067 420.851 144.796C420.506 144.516 420.016 144.376 419.381 144.376H416.651L417.393 143.844V153H415.377V142.808ZM418.891 147.876L420.893 147.764L423.525 153H421.341L418.891 147.876ZM428.174 153.168C427.427 153.168 426.75 153.009 426.144 152.692C425.546 152.365 425.075 151.913 424.73 151.334C424.384 150.746 424.212 150.074 424.212 149.318C424.212 148.581 424.38 147.923 424.716 147.344C425.052 146.765 425.518 146.313 426.116 145.986C426.713 145.659 427.385 145.496 428.132 145.496C428.916 145.496 429.588 145.678 430.148 146.042C430.717 146.397 431.137 146.882 431.408 147.498C431.688 148.105 431.795 148.772 431.73 149.5H425.024V148.52H430.61L429.91 149.136C429.966 148.679 429.933 148.263 429.812 147.89C429.7 147.517 429.499 147.223 429.21 147.008C428.92 146.784 428.561 146.672 428.132 146.672C427.749 146.672 427.399 146.77 427.082 146.966C426.774 147.153 426.526 147.437 426.34 147.82C426.162 148.203 426.074 148.665 426.074 149.206C426.074 149.71 426.176 150.149 426.382 150.522C426.596 150.895 426.886 151.18 427.25 151.376C427.614 151.572 428.02 151.67 428.468 151.67C428.953 151.67 429.41 151.567 429.84 151.362C430.269 151.157 430.647 150.877 430.974 150.522L431.744 150.998C431.613 151.306 431.389 151.628 431.072 151.964C430.754 152.3 430.344 152.585 429.84 152.818C429.336 153.051 428.78 153.168 428.174 153.168ZM432.147 145.664H434.177L436.669 152.384H435.563L438.055 145.664H439.693L436.739 153H435.101L432.147 145.664ZM440.763 145.664H442.667V153H440.763V145.664ZM441.715 144.544C441.416 144.544 441.155 144.437 440.931 144.222C440.716 144.007 440.609 143.746 440.609 143.438C440.609 143.13 440.716 142.869 440.931 142.654C441.155 142.439 441.416 142.332 441.715 142.332C442.023 142.332 442.284 142.439 442.499 142.654C442.723 142.869 442.835 143.13 442.835 143.438C442.835 143.746 442.723 144.007 442.499 144.222C442.284 144.437 442.023 144.544 441.715 144.544ZM447.031 153.168C446.405 153.168 445.831 153.07 445.309 152.874C444.786 152.669 444.366 152.421 444.049 152.132L444.469 150.998C444.786 151.259 445.164 151.479 445.603 151.656C446.041 151.824 446.485 151.908 446.933 151.908C447.343 151.908 447.67 151.829 447.913 151.67C448.155 151.502 448.277 151.273 448.277 150.984C448.277 150.741 448.169 150.55 447.955 150.41C447.74 150.261 447.409 150.135 446.961 150.032L446.709 149.976C445.794 149.771 445.141 149.5 444.749 149.164C444.357 148.819 444.161 148.357 444.161 147.778C444.161 147.283 444.282 146.868 444.525 146.532C444.777 146.187 445.117 145.93 445.547 145.762C445.985 145.585 446.48 145.496 447.031 145.496C447.6 145.496 448.118 145.58 448.585 145.748C449.061 145.916 449.467 146.126 449.803 146.378L449.397 147.54C449.107 147.316 448.748 147.129 448.319 146.98C447.899 146.831 447.502 146.756 447.129 146.756C446.746 146.756 446.447 146.831 446.233 146.98C446.027 147.12 445.925 147.325 445.925 147.596C445.925 147.839 446.023 148.025 446.219 148.156C446.424 148.287 446.751 148.408 447.199 148.52L447.451 148.576C448.375 148.772 449.033 149.052 449.425 149.416C449.826 149.771 450.027 150.247 450.027 150.844C450.027 151.339 449.896 151.759 449.635 152.104C449.383 152.449 449.028 152.715 448.571 152.902C448.123 153.079 447.609 153.168 447.031 153.168ZM451.413 145.664H453.317V153L451.413 153V145.664ZM452.365 144.544C452.067 144.544 451.805 144.437 451.581 144.222C451.367 144.007 451.259 143.746 451.259 143.438C451.259 143.13 451.367 142.869 451.581 142.654C451.805 142.439 452.067 142.332 452.365 142.332C452.673 142.332 452.935 142.439 453.149 142.654C453.373 142.869 453.485 143.13 453.485 143.438C453.485 143.746 453.373 144.007 453.149 144.222C452.935 144.437 452.673 144.544 452.365 144.544ZM458.801 153.168C458.008 153.168 457.303 153.005 456.687 152.678C456.071 152.351 455.59 151.899 455.245 151.32C454.9 150.741 454.727 150.079 454.727 149.332C454.727 148.585 454.9 147.923 455.245 147.344C455.59 146.765 456.071 146.313 456.687 145.986C457.303 145.659 458.008 145.496 458.801 145.496C459.594 145.496 460.299 145.659 460.915 145.986C461.531 146.313 462.012 146.765 462.357 147.344C462.712 147.923 462.889 148.585 462.889 149.332C462.889 150.079 462.712 150.741 462.357 151.32C462.012 151.899 461.531 152.351 460.915 152.678C460.299 153.005 459.594 153.168 458.801 153.168ZM458.801 151.782C459.221 151.782 459.594 151.679 459.921 151.474C460.257 151.259 460.514 150.965 460.691 150.592C460.868 150.219 460.957 149.799 460.957 149.332C460.957 148.865 460.868 148.445 460.691 148.072C460.514 147.699 460.257 147.409 459.921 147.204C459.594 146.989 459.221 146.882 458.801 146.882C458.39 146.882 458.017 146.989 457.681 147.204C457.354 147.409 457.098 147.699 456.911 148.072C456.734 148.445 456.645 148.865 456.645 149.332C456.645 149.799 456.734 150.219 456.911 150.592C457.098 150.965 457.354 151.259 457.681 151.474C458.017 151.679 458.39 151.782 458.801 151.782ZM464.278 145.664H466.056V147.47L465.79 147.106C466.014 146.611 466.355 146.219 466.812 145.93C467.27 145.641 467.802 145.496 468.408 145.496C468.968 145.496 469.449 145.599 469.85 145.804C470.252 146.009 470.564 146.327 470.788 146.756C471.022 147.185 471.138 147.736 471.138 148.408V153H469.234V148.646C469.234 148.273 469.174 147.965 469.052 147.722C468.94 147.47 468.777 147.283 468.562 147.162C468.348 147.041 468.091 146.98 467.792 146.98C467.456 146.98 467.167 147.055 466.924 147.204C466.682 147.353 466.495 147.554 466.364 147.806C466.243 148.058 466.182 148.338 466.182 148.646V153H464.278V145.664ZM475.427 153.168C474.802 153.168 474.228 153.07 473.705 152.874C473.182 152.669 472.762 152.421 472.445 152.132L472.865 150.998C473.182 151.259 473.56 151.479 473.999 151.656C474.438 151.824 474.881 151.908 475.329 151.908C475.74 151.908 476.066 151.829 476.309 151.67C476.552 151.502 476.673 151.273 476.673 150.984C476.673 150.741 476.566 150.55 476.351 150.41C476.136 150.261 475.805 150.135 475.357 150.032L475.105 149.976C474.19 149.771 473.537 149.5 473.145 149.164C472.753 148.819 472.557 148.357 472.557 147.778C472.557 147.283 472.678 146.868 472.921 146.532C473.173 146.187 473.514 145.93 473.943 145.762C474.382 145.585 474.876 145.496 475.427 145.496C475.996 145.496 476.514 145.58 476.981 145.748C477.457 145.916 477.863 146.126 478.199 146.378L477.793 147.54C477.504 147.316 477.144 147.129 476.715 146.98C476.295 146.831 475.898 146.756 475.525 146.756C475.142 146.756 474.844 146.831 474.629 146.98C474.424 147.12 474.321 147.325 474.321 147.596C474.321 147.839 474.419 148.025 474.615 148.156C474.82 148.287 475.147 148.408 475.595 148.52L475.847 148.576C476.771 148.772 477.429 149.052 477.821 149.416C478.222 149.771 478.423 150.247 478.423 150.844C478.423 151.339 478.292 151.759 478.031 152.104C477.779 152.449 477.424 152.715 476.967 152.902C476.519 153.079 476.006 153.168 475.427 153.168Z" fill="white"/>
<rect x="387" y="174" width="83" height="21" rx="6" fill="#8F33EE"/>
<path d="M396.324 180.264H398.28L401.472 189H399.66L396.924 180.888H397.452L394.728 189H393.12L396.324 180.264ZM394.632 185.832H399.504V187.128H394.632V185.832ZM402.358 180.024H403.99V189H402.358V180.024ZM408.606 189.144C407.966 189.144 407.386 189.008 406.866 188.736C406.354 188.456 405.95 188.068 405.654 187.572C405.358 187.068 405.21 186.492 405.21 185.844C405.21 185.212 405.354 184.648 405.642 184.152C405.93 183.656 406.33 183.268 406.842 182.988C407.354 182.708 407.93 182.568 408.57 182.568C409.242 182.568 409.818 182.724 410.298 183.036C410.786 183.34 411.146 183.756 411.378 184.284C411.618 184.804 411.71 185.376 411.654 186H405.906V185.16H410.694L410.094 185.688C410.142 185.296 410.114 184.94 410.01 184.62C409.914 184.3 409.742 184.048 409.494 183.864C409.246 183.672 408.938 183.576 408.57 183.576C408.242 183.576 407.942 183.66 407.67 183.828C407.406 183.988 407.194 184.232 407.034 184.56C406.882 184.888 406.806 185.284 406.806 185.748C406.806 186.18 406.894 186.556 407.07 186.876C407.254 187.196 407.502 187.44 407.814 187.608C408.126 187.776 408.474 187.86 408.858 187.86C409.274 187.86 409.666 187.772 410.034 187.596C410.402 187.42 410.726 187.18 411.006 186.876L411.666 187.284C411.554 187.548 411.362 187.824 411.09 188.112C410.818 188.4 410.466 188.644 410.034 188.844C409.602 189.044 409.126 189.144 408.606 189.144ZM414.304 185.304L415.072 185.364L416.608 182.712H418.06L416.056 186.072L415.144 186.276L413.488 189H412.048L414.304 185.304ZM414.772 186.192H414.196L412.12 182.712H413.884L415.456 185.376L415.972 185.316L418.228 189H416.464L414.772 186.192ZM427.491 180.264H429.219V189H427.491V180.264ZM421.755 180.264H423.483V189H421.755V180.264ZM422.619 183.78H428.151V185.196H422.619V183.78ZM433.932 189.144C433.252 189.144 432.648 189.004 432.12 188.724C431.592 188.444 431.18 188.056 430.884 187.56C430.588 187.064 430.44 186.496 430.44 185.856C430.44 185.216 430.588 184.648 430.884 184.152C431.18 183.656 431.592 183.268 432.12 182.988C432.648 182.708 433.252 182.568 433.932 182.568C434.612 182.568 435.216 182.708 435.744 182.988C436.272 183.268 436.684 183.656 436.98 184.152C437.284 184.648 437.436 185.216 437.436 185.856C437.436 186.496 437.284 187.064 436.98 187.56C436.684 188.056 436.272 188.444 435.744 188.724C435.216 189.004 434.612 189.144 433.932 189.144ZM433.932 187.956C434.292 187.956 434.612 187.868 434.892 187.692C435.18 187.508 435.4 187.256 435.552 186.936C435.704 186.616 435.78 186.256 435.78 185.856C435.78 185.456 435.704 185.096 435.552 184.776C435.4 184.456 435.18 184.208 434.892 184.032C434.612 183.848 434.292 183.756 433.932 183.756C433.58 183.756 433.26 183.848 432.972 184.032C432.692 184.208 432.472 184.456 432.312 184.776C432.16 185.096 432.084 185.456 432.084 185.856C432.084 186.256 432.16 186.616 432.312 186.936C432.472 187.256 432.692 187.508 432.972 187.692C433.26 187.868 433.58 187.956 433.932 187.956ZM438.627 182.712H440.139V184.872L440.007 184.716C440.119 184.228 440.311 183.812 440.583 183.468C440.863 183.116 441.195 182.876 441.579 182.748C441.971 182.62 442.379 182.632 442.803 182.784L442.575 184.128C442.135 184.064 441.739 184.1 441.387 184.236C441.043 184.364 440.767 184.584 440.559 184.896C440.359 185.2 440.259 185.576 440.259 186.024V189H438.627V182.712ZM443.631 182.712H445.155V184.26L444.927 183.948C445.119 183.524 445.411 183.188 445.803 182.94C446.195 182.692 446.651 182.568 447.171 182.568C447.651 182.568 448.063 182.656 448.407 182.832C448.751 183.008 449.019 183.28 449.211 183.648C449.411 184.016 449.511 184.488 449.511 185.064V189H447.879V185.268C447.879 184.948 447.827 184.684 447.723 184.476C447.627 184.26 447.487 184.1 447.303 183.996C447.119 183.892 446.899 183.84 446.643 183.84C446.355 183.84 446.107 183.904 445.899 184.032C445.691 184.16 445.531 184.332 445.419 184.548C445.315 184.764 445.263 185.004 445.263 185.268V189H443.631V182.712ZM452.767 189.144C452.119 189.144 451.603 188.984 451.219 188.664C450.843 188.344 450.655 187.908 450.655 187.356C450.655 186.908 450.779 186.54 451.027 186.252C451.275 185.956 451.599 185.744 451.999 185.616C452.399 185.488 452.835 185.424 453.307 185.424H455.191V186.276H453.535C453.071 186.276 452.723 186.356 452.491 186.516C452.259 186.676 452.143 186.908 452.143 187.212C452.143 187.5 452.243 187.728 452.443 187.896C452.643 188.064 452.907 188.148 453.235 188.148C453.523 188.148 453.779 188.092 454.003 187.98C454.235 187.86 454.419 187.7 454.555 187.5C454.691 187.3 454.759 187.08 454.759 186.84V185.196C454.759 184.74 454.631 184.4 454.375 184.176C454.127 183.952 453.791 183.84 453.367 183.84C452.999 183.84 452.659 183.916 452.347 184.068C452.035 184.22 451.755 184.44 451.507 184.728L450.871 184.2C451.095 183.72 451.451 183.328 451.939 183.024C452.435 182.72 453.011 182.568 453.667 182.568C454.219 182.568 454.695 182.668 455.095 182.868C455.495 183.06 455.803 183.352 456.019 183.744C456.235 184.128 456.343 184.6 456.343 185.16V189H454.855V187.488L455.083 187.872C454.883 188.256 454.583 188.564 454.183 188.796C453.791 189.028 453.319 189.144 452.767 189.144ZM458.427 186.54L461.835 182.712H463.491L460.743 185.784L460.419 185.952L459.051 187.536L458.427 186.54ZM457.647 180.024H459.279V189H457.647V180.024ZM459.447 185.64L460.923 185.172L463.611 189H461.799L459.447 185.64Z" fill="white"/>
<path d="M390.5 169.599C390.498 169.81 390.429 170.016 390.302 170.184C390.175 170.353 389.997 170.477 389.794 170.537L389.782 170.54L384.907 171.905L383.542 176.78L383.538 176.793C383.478 176.995 383.355 177.173 383.186 177.3C383.017 177.427 382.812 177.497 382.601 177.498H382.582C382.375 177.5 382.172 177.437 382.003 177.317C381.834 177.198 381.707 177.028 381.64 176.832L377.562 165.838C377.561 165.835 377.56 165.832 377.559 165.828C377.498 165.652 377.488 165.461 377.53 165.279C377.572 165.096 377.665 164.929 377.797 164.797C377.929 164.664 378.096 164.571 378.278 164.529C378.46 164.487 378.651 164.496 378.828 164.557L378.838 164.56L389.833 168.638C390.032 168.707 390.204 168.836 390.324 169.009C390.444 169.182 390.506 169.389 390.5 169.599Z" fill="#8F33EE"/>
</g>
<defs>
<clipPath id="clip0_86_1621">
<rect width="558" height="240" fill="white"/>
</clipPath>
<clipPath id="clip1_86_1621">
<rect width="17.6101" height="28.2688" fill="white" transform="translate(309.394 125.504)"/>
</clipPath>
</defs>
</svg>
